{"glyphs":{"0":{"ha":806,"x_min":0,"x_max":0,"o":"m 497 1008 b 360 976 446 1008 400 998 b 252 890 319 955 283 926 b 172 765 221 854 194 813 b 116 617 149 718 130 669 b 85 459 102 565 91 512 b 75 307 78 406 75 355 b 89 177 75 261 80 217 b 133 72 98 137 113 102 b 213 1 154 43 180 19 b 332 -25 245 -16 285 -25 b 469 7 383 -25 428 -14 b 576 93 509 28 545 57 b 657 218 608 129 635 171 b 712 367 679 265 697 315 b 744 524 726 419 737 471 b 754 674 751 576 754 626 b 740 803 754 719 750 762 b 695 910 731 844 716 879 b 615 982 674 940 648 964 b 497 1008 583 1000 544 1008 z m 490 925 b 567 904 521 925 547 918 b 617 847 588 890 605 871 b 644 764 630 823 639 795 b 653 665 650 732 653 700 b 629 446 653 591 645 518 b 564 251 613 374 592 309 b 465 113 536 194 503 148 b 339 60 426 77 384 60 b 261 81 308 60 282 67 b 210 136 240 94 223 113 b 183 217 198 159 189 186 b 175 315 178 248 175 281 b 199 535 175 389 183 463 b 264 731 214 608 236 673 b 363 872 292 789 325 836 b 490 925 402 907 444 925 z "},"1":{"ha":806,"x_min":0,"x_max":0,"o":"m 422 0 l 596 983 l 507 983 l 221 781 l 269 708 l 476 863 l 325 0 z "},"2":{"ha":806,"x_min":0,"x_max":0,"o":"m 631 0 l 646 88 l 131 88 l 546 442 b 630 517 577 469 605 494 b 692 589 654 540 675 564 b 732 670 709 614 723 641 b 746 774 741 699 746 734 b 723 876 746 813 738 847 b 662 949 708 905 687 929 b 574 994 636 969 607 984 b 472 1008 541 1003 507 1008 b 358 990 431 1008 392 1002 b 265 940 323 978 292 962 b 195 865 237 919 214 894 b 151 771 176 835 162 804 l 246 751 b 322 874 260 800 285 840 b 468 924 359 907 408 924 b 536 913 492 924 515 920 b 592 882 557 906 576 896 b 631 832 609 868 622 851 b 646 765 641 813 646 790 b 635 692 646 738 642 714 b 603 628 627 669 617 648 b 555 570 590 609 574 589 b 490 511 536 551 514 531 l 19 104 l 1 0 z "},"3":{"ha":806,"x_min":0,"x_max":0,"o":"m 321 557 l 306 474 l 349 474 b 510 431 415 474 469 459 b 572 296 552 403 572 358 b 555 199 572 260 566 227 b 506 125 543 170 527 145 b 432 78 485 105 461 89 b 338 61 403 67 372 61 b 265 71 313 61 288 64 b 203 100 242 77 221 87 b 156 147 184 113 169 129 b 129 211 143 166 134 187 l 31 176 b 73 92 40 145 54 117 b 140 28 92 67 114 46 b 227 -11 166 11 195 -2 b 329 -25 259 -20 293 -25 b 472 0 382 -25 430 -17 b 581 69 515 17 551 40 b 651 174 611 98 634 133 b 675 306 667 214 675 258 b 663 379 675 331 671 356 b 628 441 654 402 643 423 b 576 486 613 459 596 474 b 514 513 557 498 536 507 l 514 515 b 610 556 551 525 583 539 b 678 616 638 573 660 593 b 717 690 695 639 708 663 b 729 774 725 717 729 745 b 708 876 729 813 722 847 b 650 949 693 905 674 929 b 567 994 626 969 598 984 b 467 1008 535 1003 502 1008 b 178 849 344 1008 247 955 l 258 803 b 344 893 280 843 308 873 b 463 924 379 913 419 924 b 581 885 509 924 548 911 b 629 774 613 859 629 822 b 559 610 629 700 606 646 b 364 557 512 575 447 557 z "},"4":{"ha":806,"x_min":0,"x_max":0,"o":"m 586 325 l 703 983 l 569 983 l 42 339 l 25 238 l 475 238 l 433 0 l 529 0 l 571 238 l 717 238 l 732 325 z m 588 871 l 490 325 l 140 325 l 585 871 z "},"5":{"ha":806,"x_min":0,"x_max":0,"o":"m 718 896 l 733 983 l 257 983 l 157 479 b 258 519 185 496 218 509 b 369 535 297 530 334 535 b 524 477 434 535 486 516 b 581 328 562 439 581 389 b 563 222 581 290 575 255 b 513 138 552 190 535 162 b 429 82 490 115 463 96 b 314 61 396 68 357 61 b 195 97 269 61 230 73 b 124 194 160 121 137 154 l 32 154 b 133 26 50 102 84 59 b 313 -25 181 -8 241 -25 b 477 6 375 -25 430 -15 b 593 88 524 26 563 53 b 662 206 624 122 647 161 b 685 347 677 251 685 298 b 664 451 685 384 678 419 b 606 536 650 484 631 512 b 515 592 581 560 550 579 b 397 613 480 606 441 613 b 271 590 354 613 312 605 l 332 896 z "},"6":{"ha":806,"x_min":0,"x_max":0,"o":"m 301 554 l 660 983 l 539 983 l 192 554 b 88 398 145 497 111 445 b 53 256 64 351 53 304 b 74 146 53 217 60 180 b 133 56 88 112 107 82 b 225 -3 159 31 190 11 b 343 -25 260 -18 300 -25 b 488 1 396 -25 444 -16 b 601 73 531 18 569 42 b 675 184 633 104 657 141 b 701 326 693 227 701 275 b 681 433 701 365 695 401 b 626 515 668 465 649 492 b 542 569 602 538 574 556 b 435 588 509 581 474 588 b 364 578 410 588 386 584 b 304 551 342 571 322 563 z m 153 253 b 173 354 153 289 159 323 b 228 436 186 386 205 413 b 312 490 252 459 280 477 b 417 510 344 503 379 510 b 496 494 446 510 473 505 b 554 453 519 484 538 470 b 590 392 570 435 582 415 b 603 318 599 369 603 344 b 585 216 603 282 597 248 b 533 133 573 184 555 156 b 451 77 510 109 483 91 b 346 57 420 64 385 57 b 265 73 316 57 289 62 b 204 115 241 84 221 98 b 166 177 188 133 175 153 b 153 253 157 201 153 226 z "},"7":{"ha":806,"x_min":0,"x_max":0,"o":"m 774 892 l 790 983 l 207 983 l 192 896 l 672 896 l 99 0 l 215 0 z "},"8":{"ha":806,"x_min":0,"x_max":0,"o":"m 538 518 l 538 521 b 615 557 565 529 591 541 b 678 613 639 573 660 591 b 722 687 697 635 711 659 b 738 776 732 714 738 744 b 718 875 738 813 731 846 b 665 948 705 904 687 928 b 583 993 642 968 615 983 b 479 1008 551 1003 516 1008 b 358 985 436 1008 395 1001 b 260 922 320 970 288 949 b 197 828 233 895 212 864 b 174 711 181 792 174 753 b 208 599 174 669 185 632 b 300 526 230 566 261 542 l 300 524 b 207 488 268 516 237 504 b 128 425 177 471 151 450 b 74 338 106 400 88 371 b 54 231 61 305 54 269 b 77 122 54 190 62 153 b 139 41 92 90 113 63 b 230 -8 165 19 195 3 b 340 -25 265 -19 301 -25 b 471 -4 385 -25 428 -18 b 585 59 513 10 551 31 b 665 165 618 87 645 122 b 694 311 684 207 694 256 b 650 444 694 364 680 408 b 538 518 620 481 583 505 z m 269 718 b 285 796 269 745 275 771 b 327 862 295 821 309 843 b 391 908 345 881 366 896 b 472 925 416 919 443 925 b 595 883 524 925 565 911 b 640 761 625 856 640 815 b 626 694 640 740 635 718 b 583 630 616 671 602 650 b 516 581 565 610 542 594 b 428 561 490 568 460 561 b 361 574 403 561 381 565 b 311 608 342 582 325 594 b 280 658 297 623 287 640 b 269 718 273 677 269 697 z m 156 236 b 175 332 156 270 162 302 b 229 409 188 362 206 387 b 310 460 252 431 279 448 b 411 479 341 473 375 479 b 485 466 438 479 463 475 b 544 429 508 457 528 445 b 581 374 560 413 572 395 b 594 306 590 352 594 330 b 577 208 594 270 589 238 b 528 131 566 179 549 153 b 449 78 506 108 480 91 b 342 60 417 66 381 60 b 206 108 284 60 239 76 b 156 236 172 141 156 183 z "},"9":{"ha":806,"x_min":0,"x_max":0,"o":"m 538 429 l 179 0 l 300 0 l 647 429 b 751 585 694 487 728 539 b 786 728 775 632 786 680 b 765 838 786 767 779 803 b 706 927 751 872 731 902 b 613 987 680 953 649 972 b 496 1008 578 1001 538 1008 b 351 983 443 1008 395 1000 b 238 910 308 966 270 941 b 164 799 206 879 181 842 b 138 657 146 756 138 709 b 157 551 138 618 144 583 b 212 468 170 519 188 491 b 297 415 235 445 264 427 b 404 396 329 402 365 396 b 475 406 429 396 453 399 b 535 432 497 412 517 421 z m 688 731 b 667 629 688 694 681 661 b 611 548 654 598 635 571 b 526 494 587 525 559 507 b 422 475 494 481 459 475 b 343 490 393 475 366 480 b 285 531 320 500 300 514 b 249 592 269 548 257 569 b 236 665 240 615 236 639 b 254 767 236 701 242 735 b 306 849 266 798 284 826 b 388 906 329 873 356 892 b 493 926 419 919 454 926 b 574 910 523 926 550 921 b 635 868 598 900 618 886 b 674 806 651 850 664 830 b 688 731 683 781 688 756 z "},"\u0000":{"ha":694,"x_min":0,"x_max":0,"o":""},"\r":{"ha":0,"x_min":0,"x_max":0,"o":""}," ":{"ha":347,"x_min":0,"x_max":0,"o":""},"!":{"ha":386,"x_min":0,"x_max":0,"o":"m 215 267 l 342 983 l 242 983 l 115 267 z m 213 68 b 192 122 213 91 206 109 b 140 142 178 135 161 142 b 87 119 120 142 102 134 b 64 64 72 105 64 86 b 85 11 64 42 71 24 b 138 -8 100 -2 117 -8 b 191 15 159 -8 177 -1 b 213 68 205 30 213 48 z "},"\"":{"ha":556,"x_min":0,"x_max":0,"o":"m 219 983 l 161 657 l 244 657 l 303 983 z m 421 983 l 363 657 l 446 657 l 504 983 z "},"#":{"ha":772,"x_min":0,"x_max":0,"o":"m 168 297 l 74 0 l 158 0 l 253 297 l 438 297 l 343 0 l 428 0 l 522 297 l 665 297 l 679 381 l 547 381 l 618 606 l 756 606 l 769 689 l 644 689 l 738 983 l 653 983 l 560 689 l 375 689 l 468 983 l 383 983 l 290 689 l 128 689 l 114 606 l 264 606 l 193 381 l 40 381 l 26 297 z m 278 381 l 349 606 l 533 606 l 463 381 z "},"$":{"ha":806,"x_min":0,"x_max":0,"o":"m 332 -117 l 349 -18 b 502 16 410 -15 461 -4 b 603 90 543 36 577 60 b 658 185 629 119 647 150 b 675 283 669 219 675 252 b 655 377 675 319 668 351 b 602 447 641 403 624 427 b 529 497 580 466 556 483 b 447 535 502 511 475 524 l 514 915 b 614 886 552 913 585 904 b 678 826 643 869 664 849 l 761 885 b 667 963 738 915 706 941 b 528 1000 627 985 581 997 l 546 1100 l 488 1100 l 471 1001 b 333 974 419 999 373 989 b 233 911 294 958 260 937 b 170 820 205 885 184 855 b 149 710 156 785 149 749 b 168 617 149 675 155 644 b 219 549 181 591 198 568 b 292 499 241 529 265 513 b 375 463 319 485 346 473 l 306 67 b 185 103 259 69 219 82 b 110 181 152 125 126 151 l 24 126 b 137 24 50 82 88 48 b 292 -17 185 1 237 -13 l 274 -117 z m 365 67 l 429 443 b 532 377 469 425 503 403 b 575 271 561 351 575 315 b 559 192 575 243 570 217 b 515 128 548 168 534 147 b 449 85 497 110 475 96 b 365 67 424 74 396 68 z m 456 917 l 392 556 b 287 618 348 573 313 594 b 247 721 260 642 247 676 b 265 806 247 753 253 781 b 313 865 277 830 293 850 b 379 901 332 881 354 893 b 456 917 404 910 430 915 z "},"%":{"ha":1157,"x_min":0,"x_max":0,"o":"m 293 518 b 402 540 333 518 369 525 b 488 601 435 555 463 575 b 544 692 512 627 530 658 b 564 803 557 727 564 764 b 549 883 564 831 559 858 b 506 945 538 907 524 928 b 439 985 487 962 465 976 b 353 1000 413 995 384 1000 b 243 977 313 1000 276 992 b 157 916 210 962 181 941 b 101 826 133 891 114 861 b 81 717 87 792 81 756 b 97 636 81 687 86 660 b 140 574 107 612 122 591 b 208 533 159 556 181 542 b 293 518 234 523 263 518 z m 479 796 b 466 718 479 768 475 742 b 428 654 457 694 445 673 b 371 610 412 636 393 621 b 299 594 349 600 325 594 b 203 631 258 594 226 607 b 168 725 180 656 168 687 b 181 803 168 753 172 779 b 219 868 190 828 203 850 b 276 912 235 887 254 901 b 347 928 297 922 321 928 b 444 890 389 928 421 915 b 479 796 468 865 479 834 z m 833 -14 b 942 8 873 -14 909 -6 b 1028 69 975 23 1004 44 b 1084 160 1052 95 1071 126 b 1104 271 1097 195 1104 232 b 1089 351 1104 300 1099 326 b 1046 413 1079 375 1064 396 b 979 453 1027 430 1005 444 b 893 468 953 463 925 468 b 783 445 853 468 817 460 b 697 384 750 430 721 409 b 641 294 673 359 654 329 b 621 185 628 260 621 224 b 637 104 621 155 626 128 b 681 42 647 80 662 59 b 748 1 699 24 722 10 b 833 -14 774 -9 803 -14 z m 1019 264 b 1006 186 1019 236 1015 210 b 969 122 997 162 985 141 b 911 78 953 104 933 89 b 839 63 889 68 865 63 b 743 99 798 62 766 75 b 708 193 720 124 708 155 b 722 272 708 221 713 247 b 759 336 730 296 743 318 b 816 380 775 355 794 369 b 888 396 838 391 862 396 b 985 358 929 396 962 383 b 1019 264 1008 333 1019 302 z m 215 -43 l 1022 989 l 961 1026 l 153 -6 z "},"&":{"ha":978,"x_min":0,"x_max":0,"o":"m 710 800 b 647 954 710 867 689 918 b 486 1008 606 990 552 1008 b 387 990 450 1008 417 1002 b 309 937 357 977 331 959 b 258 856 287 914 270 887 b 240 754 246 825 240 791 b 260 647 240 719 247 683 b 317 549 274 611 293 578 b 221 501 286 536 254 520 b 129 433 188 482 157 459 b 60 343 101 407 78 377 b 33 228 42 309 33 270 b 54 121 33 187 40 151 b 113 44 68 90 88 65 b 201 -1 138 24 167 9 b 315 -17 236 -12 274 -17 b 482 23 376 -17 432 -3 b 629 146 532 49 581 90 l 742 0 l 868 0 l 688 225 l 921 532 l 806 532 l 632 290 l 447 524 b 549 574 483 538 517 555 b 633 637 581 593 609 614 b 689 711 656 659 675 684 b 710 800 703 738 710 768 z m 361 483 l 574 211 b 455 103 534 163 494 127 b 321 67 416 79 371 67 b 192 110 270 67 227 81 b 139 231 156 138 139 179 b 158 319 139 264 145 294 b 207 389 170 345 187 369 b 278 442 227 409 251 427 b 361 483 305 458 332 471 z m 613 793 b 596 726 613 769 607 747 b 551 671 585 706 570 688 b 485 624 533 654 511 639 b 404 585 460 610 433 597 b 354 663 386 605 369 631 b 332 761 339 694 332 727 b 374 881 332 809 346 849 b 486 928 403 912 440 928 b 579 891 526 928 557 916 b 613 793 601 866 613 834 z "},"'":{"ha":354,"x_min":0,"x_max":0,"o":"m 219 983 l 161 657 l 244 657 l 303 983 z "},"(":{"ha":417,"x_min":0,"x_max":0,"o":"m 115 232 b 138 439 115 301 123 370 b 202 637 153 507 175 573 b 298 818 229 700 261 761 b 417 975 334 875 374 928 l 353 1021 b 224 858 306 972 263 918 b 119 668 184 799 149 736 b 49 457 90 600 66 530 b 24 232 32 384 24 309 b 55 -16 24 146 34 63 b 139 -219 76 -95 104 -163 l 211 -181 b 140 7 181 -125 157 -62 b 115 232 124 76 115 151 z "},")":{"ha":417,"x_min":0,"x_max":0,"o":"m 293 568 b 270 361 293 499 285 430 b 206 163 255 293 234 227 b 110 -18 179 100 147 39 b -8 -175 74 -75 34 -128 l 56 -221 b 184 -58 101 -172 144 -118 b 289 132 224 1 259 64 b 359 343 319 200 342 270 b 385 568 376 416 385 491 b 353 816 385 654 374 737 b 269 1019 333 895 305 963 l 197 981 b 268 793 228 925 251 863 b 293 568 285 724 293 649 z "},"*":{"ha":617,"x_min":0,"x_max":0,"o":"m 389 782 l 389 983 l 311 983 l 311 782 l 111 844 l 86 775 l 289 713 l 160 536 l 218 492 l 350 672 l 482 492 l 540 536 l 411 713 l 614 775 l 589 844 z "},"+":{"ha":925,"x_min":0,"x_max":0,"o":"m 504 463 l 504 775 l 421 775 l 421 463 l 108 463 l 108 379 l 421 379 l 421 67 l 504 67 l 504 379 l 817 379 l 817 463 z "},",":{"ha":361,"x_min":0,"x_max":0,"o":"m 32 -194 l 203 132 l 104 132 l -47 -194 z "},"-":{"ha":444,"x_min":0,"x_max":0,"o":"m 356 297 l 369 376 l 58 376 l 44 297 z "},".":{"ha":361,"x_min":0,"x_max":0,"o":"m 182 68 b 161 122 182 91 175 109 b 110 142 147 135 130 142 b 56 119 89 142 72 134 b 33 64 41 105 33 86 b 55 11 33 42 41 24 b 107 -8 69 -2 87 -8 b 160 15 128 -8 146 -1 b 182 68 175 30 182 48 z "},"/":{"ha":514,"x_min":0,"x_max":0,"o":"m 8 -25 l 604 981 l 531 1008 l -68 1 z "},":":{"ha":417,"x_min":0,"x_max":0,"o":"m 218 68 b 197 122 218 91 211 109 b 146 142 183 135 166 142 b 92 119 125 142 108 134 b 69 64 77 105 69 86 b 91 11 69 42 77 24 b 143 -8 105 -2 123 -8 b 197 15 164 -8 182 -1 b 218 68 211 30 218 48 z m 299 585 b 278 639 299 608 292 626 b 226 658 264 652 247 658 b 173 636 206 658 188 651 b 150 581 158 621 150 603 b 172 528 150 558 157 541 b 224 508 186 515 203 508 b 277 531 245 508 263 516 b 299 585 291 547 299 564 z "},";":{"ha":417,"x_min":0,"x_max":0,"o":"m 54 -194 l 225 132 l 122 132 l -29 -194 z m 299 585 b 278 639 299 608 292 626 b 226 658 264 652 247 658 b 173 636 206 658 188 651 b 150 581 158 621 150 603 b 172 528 150 558 157 541 b 224 508 186 515 203 508 b 277 531 245 508 263 516 b 299 585 291 547 299 564 z "},"<":{"ha":925,"x_min":0,"x_max":0,"o":"m 817 700 l 817 783 l 108 453 l 108 389 l 817 58 l 817 142 l 221 421 z "},"=":{"ha":925,"x_min":0,"x_max":0,"o":"m 817 567 l 108 567 l 108 483 l 817 483 z m 817 358 l 108 358 l 108 275 l 817 275 z "},">":{"ha":925,"x_min":0,"x_max":0,"o":"m 108 783 l 108 700 l 704 421 l 108 142 l 108 58 l 817 389 l 817 453 z "},"?":{"ha":669,"x_min":0,"x_max":0,"o":"m 353 267 l 361 322 b 378 388 365 347 371 369 b 408 438 386 406 396 423 b 450 481 419 453 433 468 b 508 525 467 495 486 509 b 574 576 531 542 553 559 b 626 633 594 594 612 613 b 661 699 641 653 653 675 b 674 779 669 723 674 750 b 654 876 674 816 667 849 b 601 946 641 904 624 927 b 524 987 579 964 553 978 b 428 1000 494 996 462 1000 b 329 984 394 1000 361 995 b 243 938 298 973 269 958 b 176 865 217 917 195 893 b 135 768 157 836 143 804 l 225 751 b 290 867 235 797 257 835 b 429 914 324 898 370 914 b 533 876 472 914 506 901 b 574 776 560 851 574 818 b 541 676 574 736 563 702 b 457 597 519 650 491 624 l 411 563 b 324 477 379 538 350 509 b 272 350 299 445 281 403 l 258 267 z m 364 68 b 343 122 364 91 357 109 b 292 142 329 135 312 142 b 238 119 271 142 253 134 b 215 64 223 105 215 86 b 237 11 215 42 222 24 b 289 -8 251 -2 269 -8 b 342 15 310 -8 328 -1 b 364 68 357 30 364 48 z "},"@":{"ha":1111,"x_min":0,"x_max":0,"o":"m 617 679 b 691 649 653 679 678 669 b 711 579 704 629 711 606 b 695 482 711 547 706 514 b 651 393 684 450 670 420 b 583 328 632 366 609 344 b 499 303 557 311 529 303 b 453 312 480 303 465 306 b 426 335 442 318 433 326 b 413 369 420 345 415 356 b 408 407 410 381 408 394 b 426 515 408 446 414 482 b 472 601 437 547 453 576 b 539 658 492 625 514 644 b 617 679 564 672 590 679 z m 975 138 l 935 201 b 756 94 879 155 819 119 b 538 56 692 68 619 56 b 379 81 479 56 426 64 b 258 151 332 97 292 121 b 181 260 225 181 199 217 b 154 401 163 302 154 350 b 192 607 154 475 167 543 b 298 774 218 671 253 726 b 456 885 343 821 396 858 b 654 925 517 912 583 925 b 794 903 705 925 752 918 b 904 841 837 889 874 868 b 975 741 935 814 958 780 b 1000 607 992 702 1000 657 b 987 501 1000 573 996 538 b 949 402 978 465 966 432 b 890 328 933 372 913 347 b 813 300 867 309 841 300 b 761 316 788 300 771 305 b 746 361 751 327 746 342 b 750 388 746 368 747 377 b 760 424 753 400 756 412 b 771 458 763 436 767 447 b 781 483 775 468 778 477 l 882 742 l 796 742 l 771 679 l 765 679 b 718 738 760 702 744 722 b 626 763 692 754 662 763 b 484 725 572 763 524 750 b 384 632 444 700 410 669 b 326 514 358 595 338 556 b 307 401 313 472 307 435 b 350 272 307 349 321 306 b 486 222 379 239 424 222 b 547 232 507 222 528 225 b 599 257 566 238 583 247 b 640 290 614 267 628 278 b 669 325 652 302 662 314 l 675 325 b 676 286 671 311 672 298 b 697 253 680 274 687 263 b 737 231 707 244 721 236 b 792 222 753 225 771 222 b 923 258 842 222 885 234 b 1016 351 960 281 991 312 b 1071 480 1041 389 1059 432 b 1089 624 1083 528 1089 575 b 1056 787 1089 685 1078 739 b 965 908 1033 834 1003 875 b 828 983 926 941 881 966 b 660 1008 776 1000 720 1008 b 417 960 572 1008 491 992 b 225 830 343 928 279 885 b 100 638 171 775 130 711 b 56 403 70 564 56 486 b 88 233 56 342 66 285 b 182 97 110 180 141 135 b 331 7 223 58 272 28 b 528 -25 389 -14 455 -25 b 767 15 613 -25 693 -12 b 975 138 842 41 911 82 z "},"A":{"ha":965,"x_min":0,"x_max":0,"o":"m 43 0 l 204 258 l 707 258 l 760 0 l 864 0 l 660 983 l 563 983 l -71 0 z m 261 350 l 589 872 l 692 350 z "},"B":{"ha":861,"x_min":0,"x_max":0,"o":"m 229 983 l 56 0 l 346 0 b 515 19 407 0 463 6 b 647 77 566 32 610 52 b 734 172 684 103 713 134 b 765 304 755 210 765 254 b 714 447 765 363 748 410 b 582 514 680 483 636 506 l 582 517 b 739 605 647 532 699 562 b 799 768 779 648 799 702 b 773 869 799 808 790 841 b 706 935 756 896 734 918 b 615 972 679 953 648 965 b 513 983 581 980 547 983 z m 251 553 l 313 899 l 486 899 b 569 890 516 899 543 896 b 635 863 594 885 616 876 b 678 816 653 851 668 835 b 694 747 689 797 694 774 b 672 655 694 710 687 679 b 613 595 656 630 637 610 b 535 563 590 580 563 569 b 453 553 506 556 479 553 z m 169 85 l 238 471 l 442 471 b 606 428 513 471 568 456 b 664 308 645 399 664 359 b 638 204 664 268 655 233 b 570 135 621 175 598 152 b 472 97 542 117 509 104 b 356 85 434 89 395 85 z "},"C":{"ha":1000,"x_min":0,"x_max":0,"o":"m 915 156 l 842 208 b 697 97 799 157 751 120 b 528 61 644 73 587 61 b 381 88 472 61 423 70 b 274 162 339 106 303 131 b 208 272 245 193 223 229 b 186 407 194 314 186 359 b 222 599 186 473 198 537 b 320 763 245 661 278 716 b 472 878 362 811 413 849 b 665 922 530 908 595 922 b 753 911 698 922 727 919 b 824 881 780 904 803 894 b 876 839 844 869 861 855 b 908 792 890 823 901 807 l 999 851 b 944 917 985 875 966 897 b 867 966 921 936 895 953 b 773 997 838 979 807 990 b 668 1008 739 1005 704 1008 b 439 960 587 1008 510 992 b 252 830 368 928 305 885 b 126 636 199 775 157 710 b 81 397 96 562 81 482 b 113 225 81 334 91 277 b 203 92 134 173 164 129 b 342 6 242 55 288 26 b 522 -25 397 -15 456 -25 b 651 -10 569 -25 611 -20 b 759 28 690 -1 726 12 b 847 85 792 45 821 64 b 915 156 873 107 896 131 z "},"D":{"ha":1051,"x_min":0,"x_max":0,"o":"m 229 983 l 56 0 l 385 0 b 624 41 471 0 550 14 b 814 157 697 68 760 107 b 940 338 868 207 909 267 b 985 572 970 408 985 486 b 944 760 985 645 971 708 b 839 888 918 813 882 855 b 692 960 795 921 746 945 b 526 983 637 976 582 983 z m 169 88 l 313 896 l 504 896 b 672 869 569 896 625 887 b 789 797 719 852 758 828 b 857 690 819 767 842 731 b 879 561 872 650 879 606 b 848 385 879 501 869 442 b 755 234 827 328 796 278 b 602 128 714 190 663 155 b 392 88 541 101 471 88 z "},"E":{"ha":806,"x_min":0,"x_max":0,"o":"m 169 88 l 238 469 l 707 469 l 722 554 l 253 554 l 313 896 l 804 896 l 819 983 l 229 983 l 56 0 l 682 0 l 697 88 z "},"F":{"ha":764,"x_min":0,"x_max":0,"o":"m 154 0 l 238 468 l 683 468 l 697 553 l 251 553 l 313 896 l 793 896 l 808 983 l 229 983 l 56 0 z "},"G":{"ha":1069,"x_min":0,"x_max":0,"o":"m 528 61 b 381 88 472 61 423 70 b 274 162 339 106 303 131 b 208 272 245 193 223 229 b 186 407 194 314 186 359 b 222 599 186 473 198 537 b 320 763 245 661 278 716 b 472 878 362 811 413 849 b 665 922 530 908 595 922 b 753 911 698 922 727 919 b 824 881 780 904 803 894 b 876 839 844 869 861 855 b 908 792 890 823 901 807 l 999 851 b 944 917 985 875 966 897 b 867 966 921 936 895 953 b 773 997 838 979 807 990 b 668 1008 739 1005 704 1008 b 439 960 587 1008 510 992 b 252 830 368 928 305 885 b 126 636 199 775 157 710 b 81 397 96 562 81 482 b 113 225 81 334 91 277 b 203 92 134 173 164 129 b 342 6 242 55 288 26 b 522 -25 397 -15 456 -25 b 714 -3 589 -25 653 -18 b 894 71 775 12 835 37 l 972 514 l 643 514 l 628 429 l 860 429 l 807 128 b 685 79 774 107 733 91 b 528 61 637 67 584 61 z "},"H":{"ha":983,"x_min":0,"x_max":0,"o":"m 229 983 l 56 0 l 154 0 l 236 467 l 760 467 l 678 0 l 776 0 l 950 983 l 851 983 l 775 556 l 251 556 l 328 983 z "},"I":{"ha":361,"x_min":0,"x_max":0,"o":"m 154 0 l 328 983 l 229 983 l 56 0 z "},"J":{"ha":669,"x_min":0,"x_max":0,"o":"m 74 194 l -14 167 b 10 93 -10 141 -2 116 b 58 32 22 70 38 50 b 131 -10 78 14 102 0 b 228 -25 159 -20 192 -25 b 364 5 283 -25 329 -15 b 449 81 399 25 428 50 b 497 181 471 111 487 144 b 521 283 507 217 515 251 l 644 983 l 546 983 l 424 290 b 403 205 418 261 411 232 b 369 132 396 178 384 153 b 311 81 353 111 334 94 b 222 61 288 68 258 61 b 119 100 178 61 144 74 b 74 194 95 126 80 157 z "},"K":{"ha":813,"x_min":0,"x_max":0,"o":"m 250 542 l 328 983 l 229 983 l 56 0 l 154 0 l 246 524 l 247 524 l 640 0 l 769 0 l 358 528 l 896 983 l 751 983 l 251 542 z "},"L":{"ha":708,"x_min":0,"x_max":0,"o":"m 168 88 l 328 983 l 229 983 l 56 0 l 614 0 l 628 88 z "},"M":{"ha":1231,"x_min":0,"x_max":0,"o":"m 565 169 l 379 983 l 229 983 l 56 0 l 153 0 l 303 850 l 306 850 l 511 0 l 564 0 l 1069 850 l 1072 850 l 922 0 l 1021 0 l 1194 983 l 1043 983 l 567 169 z "},"N":{"ha":1042,"x_min":0,"x_max":0,"o":"m 758 140 l 354 983 l 231 983 l 57 0 l 156 0 l 306 854 l 308 854 l 711 0 l 835 0 l 1008 983 l 910 983 l 761 140 z "},"O":{"ha":1158,"x_min":0,"x_max":0,"o":"m 518 -25 b 747 24 600 -25 677 -9 b 929 156 818 56 878 100 b 1049 351 980 211 1020 276 b 1092 589 1077 425 1092 505 b 1059 760 1092 652 1081 709 b 969 893 1037 812 1007 856 b 831 978 930 930 884 959 b 654 1008 777 998 718 1008 b 428 960 574 1008 498 992 b 247 830 359 928 298 885 b 125 635 195 775 155 710 b 81 397 95 561 81 481 b 113 225 81 334 91 277 b 203 92 134 173 164 129 b 342 6 242 55 288 26 b 518 -25 395 -15 454 -25 z m 986 579 b 952 385 986 513 975 448 b 857 219 929 323 898 268 b 710 104 816 171 767 133 b 522 61 653 75 591 61 b 378 88 468 61 419 70 b 272 162 336 106 301 131 b 208 272 244 193 222 229 b 186 406 193 314 186 358 b 219 597 186 471 197 535 b 313 763 242 659 273 714 b 460 878 353 811 402 849 b 650 922 517 908 581 922 b 794 895 704 922 752 913 b 899 822 836 877 871 853 b 964 713 928 791 949 754 b 986 579 979 671 986 626 z "},"P":{"ha":806,"x_min":0,"x_max":0,"o":"m 229 983 l 56 0 l 154 0 l 235 457 l 421 457 b 572 475 475 457 526 463 b 690 530 617 487 657 505 b 767 621 722 554 748 585 b 794 747 785 657 794 699 b 715 921 794 821 768 879 b 492 983 663 963 588 983 z m 249 539 l 313 899 l 483 899 b 638 863 548 899 600 887 b 694 736 675 838 694 796 b 624 589 694 671 671 622 b 429 539 578 556 513 539 z "},"Q":{"ha":1161,"x_min":0,"x_max":0,"o":"m 985 571 b 949 383 985 504 973 441 b 852 228 925 324 892 272 b 713 124 812 184 765 150 b 547 85 660 98 605 85 b 283 174 435 85 347 114 b 186 422 218 233 186 316 b 219 605 186 484 197 545 b 311 765 241 665 271 718 b 456 879 351 813 399 850 b 646 922 513 908 576 922 b 790 895 700 922 747 913 b 897 821 832 877 867 852 b 963 710 926 789 948 752 b 985 571 977 667 985 621 z m 1090 589 b 1058 760 1090 652 1079 709 b 966 893 1036 812 1005 856 b 826 978 927 930 880 959 b 650 1008 773 998 714 1008 b 425 961 569 1008 494 993 b 245 833 356 930 296 887 b 126 642 195 778 155 715 b 83 408 98 570 83 492 b 119 227 83 339 95 278 b 218 100 144 176 176 133 b 364 25 260 67 308 42 b 542 0 419 8 479 0 l 1063 0 l 1078 88 l 790 88 l 792 90 b 908 167 833 110 872 135 b 1003 279 944 199 976 237 b 1067 422 1031 322 1052 369 b 1090 589 1083 474 1090 530 z "},"R":{"ha":832,"x_min":0,"x_max":0,"o":"m 154 0 l 235 460 l 408 460 l 614 0 l 726 0 l 510 468 b 622 493 550 472 587 480 b 715 547 657 506 688 524 b 776 631 741 569 762 597 b 799 749 791 664 799 703 b 776 853 799 788 791 823 b 712 926 760 882 739 907 b 615 969 684 946 652 960 b 494 983 578 979 538 983 l 229 983 l 56 0 z m 250 543 l 313 899 l 479 899 b 640 858 548 899 601 885 b 699 738 679 831 699 791 b 674 638 699 697 691 664 b 611 579 658 613 637 593 b 524 551 585 565 556 556 b 425 543 491 546 458 543 z "},"S":{"ha":783,"x_min":0,"x_max":0,"o":"m 682 831 l 767 892 b 665 976 745 926 711 954 b 494 1008 618 997 561 1008 b 346 985 439 1008 389 1001 b 236 923 302 970 266 949 b 168 829 206 897 184 865 b 144 713 152 793 144 754 b 163 620 144 677 151 647 b 213 551 176 594 192 571 b 283 501 233 532 256 515 b 365 465 310 488 338 475 b 444 433 393 455 419 444 b 509 394 468 422 490 409 b 554 342 528 380 543 362 b 571 269 565 321 571 297 b 551 183 571 238 564 209 b 498 117 538 157 521 135 b 419 76 475 99 449 85 b 324 61 389 66 357 61 b 190 95 272 61 227 72 b 107 178 153 118 125 145 l 18 121 b 146 12 48 73 90 36 b 319 -25 201 -13 259 -25 b 488 5 386 -25 442 -15 b 597 81 533 25 569 50 b 657 183 625 112 645 146 b 675 288 669 219 675 254 b 653 384 675 325 668 357 b 594 456 638 411 619 435 b 514 507 570 476 544 493 b 426 544 484 521 455 533 b 356 574 401 554 378 563 b 299 610 334 584 316 596 b 261 658 283 624 270 640 b 247 725 252 677 247 699 b 269 813 247 759 254 789 b 325 874 283 838 302 858 b 403 910 348 891 374 903 b 489 922 431 918 460 922 b 606 896 533 922 572 913 b 682 831 639 878 664 856 z "},"T":{"ha":760,"x_min":0,"x_max":0,"o":"m 347 0 l 506 896 l 836 896 l 851 983 l 93 983 l 78 896 l 407 896 l 249 0 z "},"U":{"ha":986,"x_min":0,"x_max":0,"o":"m 432 -25 b 617 13 505 -25 567 -12 b 740 110 667 39 708 71 b 813 237 772 149 796 191 b 850 367 830 283 843 326 l 958 983 l 860 983 l 753 378 b 720 258 745 336 734 296 b 662 156 706 219 686 185 b 570 87 637 127 607 104 b 438 61 534 70 489 61 b 328 80 394 61 358 67 b 258 131 299 92 276 109 b 219 204 240 152 227 176 b 207 293 211 232 207 262 b 215 378 207 320 210 348 l 322 983 l 224 983 l 115 367 b 107 274 110 337 107 306 b 124 166 107 238 113 202 b 181 70 136 130 155 98 b 281 1 206 42 240 19 b 432 -25 322 -16 373 -25 z "},"V":{"ha":833,"x_min":0,"x_max":0,"o":"m 340 129 l 213 983 l 107 983 l 265 0 l 368 0 l 953 983 l 843 983 l 343 129 z "},"W":{"ha":1333,"x_min":0,"x_max":0,"o":"m 303 138 l 224 983 l 118 983 l 219 0 l 336 0 l 751 847 l 754 847 l 833 0 l 950 0 l 1429 983 l 1324 983 l 919 138 l 917 138 l 835 983 l 715 983 l 306 138 z "},"X":{"ha":858,"x_min":0,"x_max":0,"o":"m 449 586 l 260 983 l 140 983 l 375 517 l -90 0 l 46 0 l 425 435 l 632 0 l 751 0 l 499 506 l 928 983 l 797 983 z "},"Y":{"ha":774,"x_min":0,"x_max":0,"o":"m 343 0 l 418 424 l 899 983 l 775 983 l 382 506 l 186 983 l 69 983 l 319 424 l 244 0 z "},"Z":{"ha":794,"x_min":0,"x_max":0,"o":"m 829 900 l 844 983 l 164 983 l 149 896 l 701 896 l -19 83 l -35 0 l 676 0 l 692 88 l 110 88 z "},"[":{"ha":417,"x_min":0,"x_max":0,"o":"m 397 942 l 410 1017 l 185 1017 l -33 -217 l 192 -217 l 206 -142 l 72 -142 l 264 942 z "},"\\":{"ha":514,"x_min":0,"x_max":0,"o":"m 7 981 l 426 -25 l 507 1 l 86 1008 z "},"]":{"ha":417,"x_min":0,"x_max":0,"o":"m 11 -142 l -3 -217 l 222 -217 l 440 1017 l 215 1017 l 203 942 l 336 942 l 144 -142 z "},"^":{"ha":925,"x_min":0,"x_max":0,"o":"m 429 983 l 111 382 l 197 382 l 463 883 l 728 382 l 814 382 l 496 983 z "},"_":{"ha":694,"x_min":0,"x_max":0,"o":"m 0 -104 l 0 -174 l 694 -174 l 694 -104 z "},"`":{"ha":333,"x_min":0,"x_max":0,"o":"m 32 983 l 215 783 l 293 783 l 154 983 z "},"a":{"ha":742,"x_min":0,"x_max":0,"o":"m 532 399 b 353 390 472 399 412 396 b 192 355 294 384 240 372 b 76 281 145 338 106 313 b 32 156 47 249 32 207 b 51 76 32 124 38 98 b 98 24 63 55 79 38 b 161 -4 117 11 138 1 b 229 -12 184 -10 207 -12 b 303 -6 256 -12 281 -10 b 367 14 326 -2 347 5 b 425 51 387 23 406 35 b 481 106 444 66 462 84 l 483 106 b 477 51 481 88 478 70 b 475 0 476 33 475 16 l 558 0 b 563 68 558 19 560 41 b 574 146 565 95 569 121 l 621 410 b 625 445 623 419 624 431 b 626 479 626 459 626 471 b 608 565 626 513 620 541 b 558 623 595 588 578 608 b 484 656 537 638 512 649 b 396 667 456 663 426 667 b 258 641 350 667 305 658 b 142 574 212 624 173 601 l 183 511 b 274 566 207 532 238 551 b 386 589 310 581 347 589 b 499 560 434 589 472 579 b 539 460 525 540 539 507 b 538 435 539 452 538 444 b 532 399 537 427 535 414 z m 497 328 l 519 328 l 510 274 b 481 192 504 245 494 218 b 428 125 467 167 449 144 b 354 79 406 106 382 90 b 263 63 326 68 296 63 b 213 67 246 63 229 64 b 170 84 197 71 183 76 b 140 116 158 92 148 103 b 129 167 133 129 129 146 b 163 249 129 201 141 228 b 251 298 186 270 215 286 b 369 322 286 309 326 317 b 497 328 413 326 456 328 z "},"b":{"ha":872,"x_min":0,"x_max":0,"o":"m 167 110 l 169 110 b 208 56 179 89 191 71 b 263 16 224 40 242 27 b 327 -8 283 5 304 -3 b 396 -17 350 -14 373 -17 b 548 15 450 -17 501 -6 b 669 101 595 37 635 65 b 749 229 703 137 729 180 b 778 386 768 278 778 331 b 757 500 778 428 771 466 b 697 589 743 534 723 564 b 605 647 671 614 641 633 b 485 667 569 660 529 667 b 410 657 459 667 434 663 b 342 631 386 650 363 642 b 286 592 322 619 303 606 b 246 544 269 577 256 561 l 243 544 l 333 1050 l 240 1050 l 54 0 l 147 0 z m 681 381 b 660 256 681 336 674 295 b 603 156 647 218 628 184 b 513 88 578 127 548 104 b 397 63 478 71 440 63 b 310 78 365 63 336 68 b 244 122 285 88 263 103 b 202 188 226 141 212 163 b 188 272 192 214 188 242 b 210 394 188 315 195 355 b 271 495 225 432 245 466 b 363 564 297 524 327 547 b 476 589 398 581 436 589 b 564 573 510 589 539 584 b 628 528 589 562 610 547 b 667 462 645 509 659 487 b 681 381 676 436 681 409 z "},"c":{"ha":694,"x_min":0,"x_max":0,"o":"m 592 503 l 674 557 b 578 640 652 595 621 623 b 443 667 536 658 491 667 b 283 635 385 667 331 656 b 160 548 235 613 194 584 b 82 419 127 511 100 469 b 54 263 63 370 54 318 b 75 149 54 221 61 183 b 135 60 89 114 109 85 b 231 3 162 36 194 17 b 356 -17 268 -10 309 -17 b 501 14 411 -17 460 -6 b 614 96 543 34 581 62 l 554 147 b 472 86 531 122 504 102 b 363 63 441 70 404 63 b 274 78 329 63 300 68 b 208 122 248 89 226 104 b 167 188 190 141 176 163 b 153 271 157 214 153 241 b 174 394 153 314 160 355 b 234 495 189 432 209 466 b 325 564 259 524 290 547 b 440 589 360 581 399 589 b 534 565 475 589 507 581 b 592 503 561 548 581 528 z "},"d":{"ha":864,"x_min":0,"x_max":0,"o":"m 47 264 b 68 150 47 222 54 184 b 128 61 82 116 102 86 b 220 3 154 36 184 17 b 340 -17 256 -10 296 -17 b 483 20 393 -17 441 -4 b 579 107 526 45 558 74 l 582 107 l 563 0 l 656 0 l 842 1050 l 749 1050 l 658 540 l 656 540 b 562 635 634 582 603 613 b 429 667 521 656 476 667 b 277 635 375 667 324 656 b 156 549 230 613 190 585 b 76 421 121 513 95 470 b 47 264 57 372 47 319 z m 144 271 b 165 395 144 315 151 357 b 222 496 178 434 197 467 b 312 564 247 525 277 547 b 428 589 347 581 385 589 b 514 574 459 589 488 584 b 581 530 540 563 562 549 b 623 463 599 511 613 489 b 638 379 633 438 638 410 b 615 257 638 336 630 295 b 554 156 600 219 580 185 b 463 88 528 127 498 104 b 349 63 427 71 389 63 b 261 78 315 63 286 68 b 197 123 236 89 215 104 b 158 189 180 142 166 164 b 144 271 149 214 144 241 z "},"e":{"ha":786,"x_min":0,"x_max":0,"o":"m 144 300 l 682 300 b 692 362 687 319 690 339 b 694 413 694 384 694 401 b 626 596 694 488 672 549 b 424 667 580 643 513 667 b 276 634 371 667 322 656 b 156 547 230 612 190 583 b 76 421 122 511 96 469 b 47 269 57 373 47 322 b 70 148 47 224 55 184 b 133 58 85 112 106 82 b 226 3 159 34 190 16 b 343 -17 263 -10 301 -17 b 503 18 400 -17 453 -5 b 635 121 553 41 597 75 l 576 176 b 485 97 553 146 523 119 b 351 63 447 74 402 63 b 269 78 322 63 294 68 b 202 121 243 88 221 102 b 158 186 183 139 168 161 b 142 269 147 211 142 239 b 142 284 142 274 142 279 b 144 300 143 289 144 294 z m 599 369 l 157 369 b 190 453 163 399 175 427 b 248 524 206 480 225 503 b 326 572 271 544 297 560 b 421 589 355 583 387 589 b 556 541 480 589 525 573 b 601 418 586 509 601 468 b 601 394 601 411 601 403 b 599 369 600 385 600 377 z "},"f":{"ha":410,"x_min":0,"x_max":0,"o":"m 425 572 l 440 650 l 285 650 l 314 817 b 330 882 318 840 323 862 b 356 935 337 902 346 920 b 397 971 367 951 380 963 b 454 983 413 979 432 983 b 519 975 478 983 500 981 l 542 1057 b 503 1065 529 1061 516 1063 b 465 1067 490 1066 477 1067 b 368 1047 428 1067 396 1060 b 297 995 340 1034 316 1017 b 249 919 277 973 261 948 b 222 826 237 890 228 859 l 192 650 l 57 650 l 42 572 l 179 572 l 79 0 l 172 0 l 272 572 z "},"g":{"ha":871,"x_min":0,"x_max":0,"o":"m 57 -136 l -6 -203 b 119 -299 26 -244 68 -275 b 293 -333 171 -322 229 -333 b 469 -300 365 -333 424 -322 b 578 -217 515 -278 551 -250 b 639 -107 606 -183 626 -147 b 668 6 652 -67 662 -30 l 782 650 l 690 650 l 669 538 l 667 538 b 629 592 657 558 645 576 b 576 633 613 609 596 622 b 511 658 556 644 534 653 b 442 667 488 664 465 667 b 290 637 387 667 337 657 b 170 555 244 617 204 590 b 91 433 136 520 110 480 b 63 285 72 387 63 337 b 83 172 63 244 69 206 b 140 82 96 138 115 108 b 231 22 165 56 196 36 b 351 0 267 7 307 0 b 490 33 401 0 448 11 b 599 129 533 56 569 88 l 601 129 l 578 6 b 549 -94 571 -30 562 -63 b 496 -176 536 -125 518 -152 b 413 -231 474 -199 446 -218 b 293 -251 379 -245 339 -251 b 155 -219 243 -251 197 -241 b 57 -136 113 -197 80 -169 z m 158 283 b 179 408 158 329 165 370 b 237 505 193 446 212 478 b 326 567 261 531 291 552 b 440 589 360 581 399 589 b 528 572 473 589 502 583 b 594 528 554 561 576 546 b 635 462 612 509 626 487 b 650 381 645 436 650 409 b 629 265 650 340 643 301 b 571 168 615 228 596 196 b 481 102 546 140 516 118 b 367 78 447 86 408 78 b 278 94 333 78 304 83 b 213 138 252 104 230 119 b 172 204 195 157 181 179 b 158 283 163 229 158 256 z "},"h":{"ha":801,"x_min":0,"x_max":0,"o":"m 461 667 b 336 633 417 667 375 656 b 242 543 297 611 266 581 l 239 543 l 328 1050 l 235 1050 l 50 0 l 143 0 l 201 333 b 237 447 209 377 221 415 b 293 526 253 478 272 505 b 363 574 314 548 338 563 b 438 589 388 584 413 589 b 552 549 492 589 530 576 b 585 442 574 523 585 487 b 576 360 585 416 582 388 l 513 0 l 606 0 l 676 399 b 681 435 678 412 680 424 b 683 468 683 446 683 457 b 624 613 683 529 664 578 b 461 667 585 649 531 667 z "},"i":{"ha":347,"x_min":0,"x_max":0,"o":"m 144 0 l 260 650 l 167 650 l 51 0 z m 315 901 b 297 948 315 921 309 936 b 253 965 285 959 270 965 b 206 946 235 965 220 959 b 186 897 193 933 186 917 b 205 851 186 878 192 863 b 250 835 217 840 232 835 b 297 854 269 835 284 841 b 315 901 309 867 315 883 z "},"j":{"ha":349,"x_min":0,"x_max":0,"o":"m -137 -244 l -157 -324 b -117 -331 -146 -327 -133 -330 b -79 -333 -102 -333 -89 -333 b 13 -316 -42 -333 -12 -328 b 71 -270 37 -304 56 -289 b 105 -205 86 -251 97 -229 b 124 -129 113 -180 119 -155 l 261 650 l 168 650 l 33 -114 b 21 -170 30 -134 25 -153 b 1 -214 16 -187 10 -202 b -31 -242 -7 -226 -18 -235 b -79 -253 -44 -249 -60 -253 b -109 -251 -88 -253 -98 -252 b -137 -244 -120 -249 -129 -247 z m 315 901 b 297 948 315 921 309 936 b 253 965 285 959 270 965 b 206 946 235 965 220 959 b 186 897 193 933 186 917 b 205 851 186 878 192 863 b 250 835 217 840 232 835 b 297 854 269 835 284 841 b 315 901 309 867 315 883 z "},"k":{"ha":676,"x_min":0,"x_max":0,"o":"m 208 357 l 331 1050 l 238 1050 l 53 0 l 147 0 l 206 342 l 210 342 l 492 0 l 614 0 l 317 349 l 674 650 l 544 650 l 213 357 z "},"l":{"ha":350,"x_min":0,"x_max":0,"o":"m 147 0 l 332 1050 l 238 1050 l 53 0 z "},"m":{"ha":1214,"x_min":0,"x_max":0,"o":"m 872 667 b 739 631 822 667 778 655 b 643 529 700 608 668 574 b 615 597 638 557 628 580 b 570 640 602 615 587 629 b 516 661 553 650 535 657 b 461 667 497 665 479 667 b 333 633 414 667 371 655 b 236 539 295 610 263 579 l 233 539 b 242 592 236 553 239 570 b 249 650 244 613 247 632 l 160 650 b 151 575 158 628 155 603 b 139 507 147 547 143 525 l 50 0 l 143 0 l 201 333 b 238 447 209 377 221 415 b 294 526 254 478 273 505 b 363 574 316 548 338 563 b 432 589 387 584 410 589 b 533 555 480 589 514 578 b 561 463 552 532 561 501 b 553 378 561 437 558 408 l 485 0 l 578 0 l 639 346 b 662 435 644 376 652 406 b 702 513 672 463 685 489 b 765 568 719 536 740 554 b 853 589 789 582 819 589 b 965 549 906 589 944 576 b 997 442 987 523 997 487 b 989 360 997 416 994 388 l 925 0 l 1018 0 l 1089 399 b 1094 435 1091 412 1092 424 b 1096 468 1095 446 1096 457 b 1037 613 1096 529 1076 578 b 872 667 997 649 943 667 z "},"n":{"ha":801,"x_min":0,"x_max":0,"o":"m 250 650 l 160 650 b 151 575 158 628 155 603 b 139 507 147 547 143 525 l 50 0 l 143 0 l 201 333 b 238 447 209 377 221 415 b 295 526 254 478 273 505 b 365 574 317 548 340 563 b 440 589 390 584 415 589 b 553 549 494 589 531 576 b 585 442 574 523 585 487 b 576 360 585 416 582 388 l 513 0 l 606 0 l 676 399 b 681 435 678 412 680 424 b 683 468 683 446 683 457 b 624 613 683 529 664 578 b 460 667 585 649 530 667 b 334 633 415 667 373 655 b 238 539 295 610 263 579 l 235 539 b 243 592 238 553 240 570 b 250 650 246 613 248 632 z "},"o":{"ha":828,"x_min":0,"x_max":0,"o":"m 347 -17 b 503 15 404 -17 456 -6 b 625 101 550 37 591 65 b 705 229 659 137 686 180 b 733 386 724 278 733 331 b 711 500 733 428 726 466 b 649 589 696 534 676 564 b 555 647 623 614 591 633 b 433 667 518 660 478 667 b 278 635 377 667 325 656 b 156 548 231 613 190 584 b 76 420 121 511 95 469 b 47 265 57 372 47 320 b 69 151 47 224 55 185 b 131 62 84 116 105 86 b 226 4 158 37 189 18 b 347 -17 263 -10 304 -17 z m 636 381 b 615 258 636 337 629 296 b 557 157 601 219 582 186 b 467 88 532 128 502 105 b 353 63 433 71 394 63 b 266 78 320 63 291 68 b 201 122 241 89 219 104 b 160 188 183 141 169 163 b 146 271 150 214 146 241 b 167 392 146 313 153 354 b 226 494 182 431 201 465 b 315 563 251 523 281 546 b 428 589 350 580 387 589 b 515 573 460 589 489 584 b 581 529 541 562 563 548 b 622 463 599 511 613 489 b 636 381 631 438 636 410 z "},"p":{"ha":872,"x_min":0,"x_max":0,"o":"m 246 544 l 243 544 l 263 650 l 169 650 l -6 -333 l 88 -333 l 167 110 l 169 110 b 263 15 191 68 222 37 b 396 -17 304 -6 349 -17 b 548 15 450 -17 501 -6 b 669 101 595 37 635 65 b 749 229 703 137 729 180 b 778 386 768 278 778 331 b 757 500 778 428 771 466 b 697 589 743 534 723 564 b 605 647 671 614 641 633 b 485 667 569 660 529 667 b 410 657 459 667 434 663 b 342 631 386 650 363 642 b 286 592 322 619 303 606 b 246 544 269 577 256 561 z m 681 381 b 660 256 681 336 674 295 b 603 156 647 218 628 184 b 513 88 578 127 548 104 b 397 63 478 71 440 63 b 310 78 365 63 336 68 b 244 122 285 88 263 103 b 202 188 226 141 212 163 b 188 272 192 214 188 242 b 210 394 188 315 195 355 b 271 495 225 432 245 466 b 363 564 297 524 327 547 b 476 589 398 581 436 589 b 564 573 510 589 539 584 b 628 528 589 562 610 547 b 667 462 645 509 659 487 b 681 381 676 436 681 409 z "},"q":{"ha":861,"x_min":0,"x_max":0,"o":"m 47 264 b 68 150 47 222 54 184 b 128 61 82 116 102 86 b 220 3 154 36 184 17 b 340 -17 256 -10 296 -17 b 415 -7 366 -17 391 -13 b 483 19 439 0 462 8 b 539 58 503 31 522 44 b 579 106 556 73 569 89 l 582 106 l 504 -333 l 597 -333 l 771 650 l 678 650 l 658 540 l 656 540 b 562 635 634 582 603 613 b 429 667 521 656 476 667 b 277 635 375 667 324 656 b 156 549 230 613 190 585 b 76 421 121 513 95 470 b 47 264 57 372 47 319 z m 144 271 b 165 395 144 315 151 357 b 222 496 178 434 197 467 b 312 564 247 525 277 547 b 428 589 347 581 385 589 b 514 574 459 589 488 584 b 581 530 540 563 562 549 b 623 463 599 511 613 489 b 638 379 633 438 638 410 b 615 257 638 336 630 295 b 554 156 600 219 580 185 b 463 88 528 127 498 104 b 349 63 427 71 389 63 b 261 78 315 63 286 68 b 197 123 236 89 215 104 b 158 189 180 142 166 164 b 144 271 149 214 144 241 z "},"r":{"ha":483,"x_min":0,"x_max":0,"o":"m 139 507 l 139 507 l 50 0 l 143 0 l 201 333 b 235 445 209 377 220 414 b 288 522 251 476 268 502 b 354 565 308 541 330 556 b 428 579 378 575 403 579 b 466 576 441 579 453 578 b 492 571 478 575 487 573 l 514 660 b 485 665 504 663 494 664 b 453 667 475 666 465 667 b 328 631 406 667 365 655 b 236 539 291 608 260 577 l 233 539 b 242 592 236 553 239 570 b 249 650 244 613 247 632 l 160 650 b 151 575 158 628 155 603 b 139 507 147 547 143 525 z "},"s":{"ha":617,"x_min":0,"x_max":0,"o":"m 492 507 l 565 560 b 480 638 548 592 519 618 b 346 667 441 657 396 667 b 257 656 316 667 287 663 b 177 622 227 648 201 637 b 119 563 153 606 134 587 b 96 476 103 538 96 510 b 110 408 96 450 101 427 b 149 359 120 389 133 372 b 201 326 164 346 182 335 b 260 304 221 318 240 311 b 377 252 311 288 350 270 b 418 174 404 234 418 208 b 404 123 418 154 413 137 b 367 88 395 109 383 97 b 315 69 352 79 335 73 b 256 63 296 65 276 63 b 146 91 214 63 177 72 b 75 160 114 110 91 133 l -6 107 b 106 14 21 65 59 34 b 260 -17 154 -6 205 -17 b 347 -6 288 -17 318 -13 b 428 30 377 2 404 14 b 488 92 452 46 472 67 b 511 183 503 118 511 148 b 461 303 511 235 494 275 b 315 374 428 332 379 355 b 261 391 295 379 277 385 b 221 412 245 397 232 404 b 195 440 210 420 201 429 b 186 483 189 451 186 466 b 201 533 186 503 191 519 b 238 565 210 546 223 557 b 288 583 253 574 270 580 b 340 589 306 587 324 589 b 433 566 376 589 407 581 b 492 507 459 551 479 531 z "},"t":{"ha":426,"x_min":0,"x_max":0,"o":"m 421 572 l 436 650 l 257 650 l 289 833 l 196 833 l 164 650 l 32 650 l 17 572 l 151 572 l 79 165 b 75 121 76 149 75 134 b 88 57 75 95 79 74 b 122 17 97 40 108 27 b 166 -3 135 8 150 1 b 214 -8 182 -6 198 -8 b 274 -3 235 -8 255 -7 b 321 11 293 0 309 5 l 332 92 b 296 76 324 85 312 80 b 253 71 280 73 266 71 b 194 86 229 71 209 76 b 172 147 180 96 172 117 b 176 192 172 160 174 175 l 244 572 z "},"u":{"ha":801,"x_min":0,"x_max":0,"o":"m 506 0 l 596 0 b 605 75 598 22 601 47 b 617 143 609 103 613 125 l 706 650 l 613 650 l 554 317 b 518 203 547 273 535 235 b 460 124 501 172 482 145 b 390 78 439 103 415 88 b 315 63 365 68 340 63 b 203 101 262 62 224 75 b 171 208 181 127 171 163 b 179 290 171 233 174 261 l 243 650 l 150 650 l 79 251 b 74 215 77 238 76 226 b 72 182 73 204 72 193 b 131 37 72 121 92 72 b 296 -17 171 1 225 -17 b 422 17 340 -17 382 -5 b 518 111 461 40 493 71 l 521 111 b 513 58 518 97 515 80 b 506 0 510 37 507 18 z "},"v":{"ha":664,"x_min":0,"x_max":0,"o":"m 285 0 l 676 650 l 575 650 l 251 100 l 249 100 l 144 650 l 49 650 l 185 0 z "},"w":{"ha":1018,"x_min":0,"x_max":0,"o":"m 169 650 l 72 650 l 143 0 l 242 0 l 513 526 l 515 526 l 589 0 l 689 0 l 1021 650 l 921 650 l 661 122 l 657 122 l 581 650 l 492 650 l 217 122 l 214 122 z "},"x":{"ha":660,"x_min":0,"x_max":0,"o":"m 438 0 l 546 0 l 363 332 l 671 650 l 558 650 l 321 394 l 194 650 l 94 650 l 257 343 l -76 0 l 39 0 l 299 276 z "},"y":{"ha":671,"x_min":0,"x_max":0,"o":"m 263 103 l 158 650 l 61 650 l 197 1 l 117 -135 b 52 -220 95 -172 74 -200 b -25 -250 30 -240 5 -250 b -86 -239 -45 -250 -66 -246 l -100 -325 b -21 -333 -74 -331 -48 -333 b 100 -288 27 -333 68 -318 b 194 -168 132 -258 164 -218 l 686 650 l 582 650 l 265 103 z "},"z":{"ha":614,"x_min":0,"x_max":0,"o":"m 585 583 l 597 650 l 103 650 l 88 571 l 456 571 l -21 67 l -32 0 l 496 0 l 510 82 l 107 82 z "},"{":{"ha":417,"x_min":0,"x_max":0,"o":"m 3 442 l -12 358 b 53 331 17 358 39 349 b 75 254 68 313 75 288 b 71 204 75 238 74 222 l 28 -43 b 24 -71 26 -53 25 -62 b 22 -94 23 -79 22 -87 b 58 -190 22 -140 34 -172 b 146 -217 82 -208 112 -217 l 233 -217 l 247 -142 l 181 -142 b 131 -121 156 -142 139 -135 b 118 -71 122 -107 118 -90 b 122 -26 118 -55 119 -40 l 165 221 b 169 265 168 238 169 252 b 158 327 169 290 166 311 b 131 367 151 343 142 357 b 99 390 121 378 110 386 b 74 399 89 395 80 398 l 74 401 b 108 412 82 402 94 406 b 154 441 123 418 138 428 b 199 495 170 454 185 472 b 229 579 213 518 223 546 l 272 826 b 283 867 275 839 278 853 b 300 904 287 881 293 893 b 329 931 307 915 317 924 b 372 942 341 938 356 942 l 439 942 l 451 1017 l 364 1017 b 306 1008 344 1017 325 1014 b 253 978 286 1002 269 992 b 210 925 237 965 223 947 b 183 843 198 903 189 875 l 140 596 b 92 482 131 547 115 509 b 3 442 69 455 39 442 z "},"|":{"ha":308,"x_min":0,"x_max":0,"o":"m 196 1042 l 113 1042 l 113 -347 l 196 -347 z "},"}":{"ha":417,"x_min":0,"x_max":0,"o":"m 404 358 l 404 358 l 419 442 b 332 543 361 442 332 475 b 338 596 332 561 334 578 l 381 843 b 385 870 382 852 384 861 b 386 894 386 879 386 887 b 349 990 386 940 374 972 b 261 1017 325 1008 295 1017 l 174 1017 l 161 942 l 228 942 b 278 921 253 942 269 935 b 290 871 286 907 290 890 b 286 826 290 855 289 840 l 243 579 b 239 533 240 563 239 547 b 250 472 239 509 243 489 b 276 432 257 456 266 442 b 308 410 287 422 297 414 b 335 401 318 405 327 402 l 335 399 b 300 388 326 398 315 394 b 253 359 285 382 270 372 b 208 305 237 346 222 328 b 179 221 194 282 185 254 l 136 -26 b 126 -67 133 -39 130 -53 b 108 -104 122 -81 116 -93 b 78 -131 100 -115 90 -124 b 36 -142 67 -138 53 -142 l -31 -142 l -44 -217 l 43 -217 b 101 -208 63 -217 82 -214 b 155 -178 121 -202 139 -192 b 198 -125 171 -165 185 -147 b 225 -43 210 -103 219 -75 l 268 204 b 315 318 276 253 292 291 b 404 358 338 345 368 358 z "},"~":{"ha":925,"x_min":0,"x_max":0,"o":"m 801 456 l 743 511 b 720 478 737 501 729 490 b 690 444 711 466 701 455 b 653 419 679 434 667 426 b 608 410 639 413 624 410 b 540 425 586 410 563 415 b 465 467 517 435 492 449 b 387 505 437 485 410 498 b 313 515 363 512 338 515 b 251 503 290 515 270 511 b 199 473 232 496 215 485 b 158 431 184 460 170 447 b 124 386 145 416 134 401 l 182 331 b 204 365 188 342 196 353 b 233 398 213 377 222 388 b 271 422 244 408 257 416 b 315 432 285 429 300 432 b 383 418 339 432 362 427 b 458 376 405 409 430 395 b 503 351 475 366 490 358 b 540 336 516 345 528 340 b 576 328 552 332 564 330 b 613 326 587 327 600 326 b 674 338 635 326 655 330 b 726 369 693 346 711 356 b 769 410 742 381 756 395 b 801 456 781 426 792 441 z "}," ":{"ha":347,"x_min":0,"x_max":0,"o":""},"¡":{"ha":386,"x_min":0,"x_max":0,"o":"m 135 400 l 8 -317 l 108 -317 l 235 400 z m 138 599 b 158 544 138 575 144 557 b 210 525 172 531 189 525 b 263 547 230 525 248 532 b 286 603 278 562 286 581 b 265 656 286 625 279 643 b 213 675 250 669 233 675 b 159 652 191 675 173 667 b 138 599 145 637 138 619 z "},"¢":{"ha":806,"x_min":0,"x_max":0,"o":"m 336 -11 l 321 -100 l 388 -100 l 403 -17 b 549 14 458 -17 507 -6 b 663 96 591 34 629 62 l 603 147 b 523 88 581 123 554 103 b 417 63 492 72 456 63 l 510 588 b 590 560 540 585 567 575 b 640 503 613 544 630 525 l 722 557 b 640 633 704 590 676 616 b 522 665 604 651 565 662 l 538 750 l 471 750 l 456 665 b 310 624 402 661 353 647 b 199 536 266 602 229 572 b 128 412 168 500 144 459 b 103 263 111 365 103 315 b 165 80 103 189 124 128 b 336 -11 207 31 264 1 z m 443 586 l 353 69 b 240 140 303 80 265 103 b 201 271 214 177 201 221 b 219 383 201 310 207 347 b 268 481 230 419 247 452 b 344 551 289 509 315 533 b 443 586 374 570 407 581 z "},"£":{"ha":806,"x_min":0,"x_max":0,"o":"m 564 468 l 579 549 l 343 549 l 364 669 b 381 747 368 692 373 717 b 417 830 389 776 401 803 b 481 897 434 856 455 879 b 582 925 506 916 540 925 b 666 907 614 925 642 919 b 725 861 690 895 709 880 l 785 932 b 698 988 762 956 733 975 b 585 1008 663 1002 625 1008 b 445 976 529 1008 483 998 b 353 896 408 955 377 928 b 297 789 329 863 310 828 b 267 678 283 750 273 713 l 244 549 l 114 549 l 99 468 l 232 468 l 165 82 l 24 82 l 8 0 l 614 0 l 629 82 l 264 82 l 331 468 z "},"€":{"ha":806,"x_min":0,"x_max":0,"o":"m 776 879 l 776 879 l 825 964 b 737 997 801 978 772 989 b 626 1008 702 1004 665 1008 b 478 981 575 1008 525 999 b 347 907 431 963 387 938 b 241 794 307 875 272 838 b 165 651 210 750 185 702 l 86 651 l 44 575 l 140 575 b 128 528 136 560 131 544 b 118 480 124 511 121 495 b 111 438 115 465 113 450 b 108 406 109 425 108 414 l 40 406 l 0 329 l 106 329 b 128 197 106 284 113 240 b 194 84 143 155 165 117 b 306 5 224 51 261 25 b 460 -25 350 -15 401 -25 b 694 40 548 -25 626 -3 l 668 118 b 574 76 637 99 605 84 b 479 63 543 67 512 63 b 365 81 437 63 398 69 b 278 135 331 94 302 112 b 224 219 255 159 237 187 b 206 329 212 252 206 288 l 526 329 l 564 406 l 207 406 b 210 444 207 417 208 430 b 217 490 212 459 214 474 b 226 535 219 505 223 520 b 239 575 230 551 234 564 l 644 575 l 683 651 l 267 651 b 323 753 281 687 300 720 b 401 839 346 785 372 814 b 499 899 430 864 463 884 b 615 921 535 913 574 921 b 701 910 644 921 673 917 b 776 879 730 903 755 893 z "},"¥":{"ha":806,"x_min":0,"x_max":0,"o":"m 335 310 l 106 310 l 94 238 l 324 238 l 281 0 l 372 0 l 415 238 l 647 238 l 658 310 l 426 310 l 454 458 l 686 458 l 697 531 l 499 531 l 876 983 l 757 983 l 429 567 l 243 983 l 136 983 l 357 531 l 144 531 l 133 458 l 363 458 z "},"Š":{"ha":783,"x_min":0,"x_max":0,"o":"m 682 831 l 767 892 b 665 976 745 926 711 954 b 494 1008 618 997 561 1008 b 346 985 439 1008 389 1001 b 236 923 302 970 266 949 b 168 829 206 897 184 865 b 144 713 152 793 144 754 b 163 620 144 677 151 647 b 213 551 176 594 192 571 b 283 501 233 532 256 515 b 365 465 310 488 338 475 b 444 433 393 455 419 444 b 509 394 468 422 490 409 b 554 342 528 380 543 362 b 571 269 565 321 571 297 b 551 183 571 238 564 209 b 498 117 538 157 521 135 b 419 76 475 99 449 85 b 324 61 389 66 357 61 b 190 95 272 61 227 72 b 107 178 153 118 125 145 l 18 121 b 146 12 48 73 90 36 b 319 -25 201 -13 259 -25 b 488 5 386 -25 442 -15 b 597 81 533 25 569 50 b 657 183 625 112 645 146 b 675 288 669 219 675 254 b 653 384 675 325 668 357 b 594 456 638 411 619 435 b 514 507 570 476 544 493 b 426 544 484 521 455 533 b 356 574 401 554 378 563 b 299 610 334 584 316 596 b 261 658 283 624 270 640 b 247 725 252 677 247 699 b 269 813 247 759 254 789 b 325 874 283 838 302 858 b 403 910 348 891 374 903 b 489 922 431 918 460 922 b 606 896 533 922 572 913 b 682 831 639 878 664 856 z m 550 1061 l 738 1261 l 642 1261 l 500 1111 l 411 1261 l 324 1261 l 439 1061 z "},"§":{"ha":806,"x_min":0,"x_max":0,"o":"m 357 561 l 440 525 b 517 475 470 512 496 495 b 550 390 539 455 550 426 b 538 336 550 371 546 353 b 508 293 530 319 520 305 b 465 263 495 281 481 271 b 419 246 450 254 434 249 l 335 281 b 240 335 293 298 262 316 b 208 418 219 353 208 381 b 224 478 208 441 213 461 b 261 522 234 496 246 510 b 309 549 276 533 292 542 b 357 561 326 555 342 559 z m 279 613 b 149 531 220 596 176 569 b 107 404 121 494 107 451 b 155 281 107 354 123 313 b 315 190 187 248 240 218 b 424 128 368 170 404 149 b 454 47 444 108 454 81 b 401 -68 454 -4 437 -42 b 269 -107 366 -94 322 -107 b 222 -100 255 -107 239 -105 b 174 -79 206 -95 190 -88 b 131 -43 159 -70 145 -58 b 99 8 118 -28 107 -11 l 17 -50 b 115 -150 37 -89 70 -122 b 268 -192 159 -178 211 -192 b 385 -174 311 -192 350 -186 b 475 -122 420 -162 450 -144 b 533 -43 500 -100 519 -74 b 554 57 547 -12 554 21 b 493 192 554 109 534 154 b 608 272 541 210 579 237 b 650 407 636 306 650 351 b 601 527 650 455 634 495 b 443 619 569 559 516 590 b 337 680 394 640 359 660 b 304 765 315 700 304 728 b 314 822 304 785 307 803 b 346 869 320 840 331 856 b 401 903 361 883 379 894 b 483 915 424 911 451 915 b 568 897 513 915 541 909 b 633 838 595 885 617 865 l 713 894 b 628 970 696 925 668 950 b 485 1000 588 990 540 1000 b 361 980 438 1000 396 993 b 274 925 326 966 297 948 b 222 846 250 902 233 875 b 204 751 210 816 204 785 b 223 672 204 723 210 696 b 279 613 235 648 254 628 z "},"š":{"ha":617,"x_min":0,"x_max":0,"o":"m 492 507 l 565 560 b 480 638 548 592 519 618 b 346 667 441 657 396 667 b 257 656 316 667 287 663 b 177 622 227 648 201 637 b 119 563 153 606 134 587 b 96 476 103 538 96 510 b 110 408 96 450 101 427 b 149 359 120 389 133 372 b 201 326 164 346 182 335 b 260 304 221 318 240 311 b 377 252 311 288 350 270 b 418 174 404 234 418 208 b 404 123 418 154 413 137 b 367 88 395 109 383 97 b 315 69 352 79 335 73 b 256 63 296 65 276 63 b 146 91 214 63 177 72 b 75 160 114 110 91 133 l -6 107 b 106 14 21 65 59 34 b 260 -17 154 -6 205 -17 b 347 -6 288 -17 318 -13 b 428 30 377 2 404 14 b 488 92 452 46 472 67 b 511 183 503 118 511 148 b 461 303 511 235 494 275 b 315 374 428 332 379 355 b 261 391 295 379 277 385 b 221 412 245 397 232 404 b 195 440 210 420 201 429 b 186 483 189 451 186 466 b 201 533 186 503 191 519 b 238 565 210 546 223 557 b 288 583 253 574 270 580 b 340 589 306 587 324 589 b 433 566 376 589 407 581 b 492 507 459 551 479 531 z m 426 783 l 614 983 l 518 983 l 376 833 l 288 983 l 200 983 l 315 783 z "},"©":{"ha":1111,"x_min":0,"x_max":0,"o":"m 806 311 l 733 358 b 657 289 711 326 686 303 b 569 268 628 275 599 268 b 478 287 535 268 505 274 b 409 338 451 299 428 316 b 366 411 390 359 376 383 b 351 499 356 439 351 468 b 367 585 351 529 356 558 b 410 658 377 613 391 637 b 480 709 429 680 453 697 b 572 728 507 722 538 728 b 662 702 605 728 634 719 b 722 646 689 685 709 666 l 794 701 b 698 782 771 736 739 763 b 569 811 657 801 614 811 b 444 788 524 811 482 803 b 344 722 405 772 372 750 b 279 624 317 694 295 662 b 256 499 263 586 256 544 b 279 373 256 453 263 411 b 344 274 295 334 317 301 b 444 208 372 246 405 224 b 569 185 482 193 524 185 b 713 222 625 185 673 197 b 806 311 752 247 783 277 z m 28 490 b 69 287 28 418 42 350 b 183 121 97 223 135 168 b 351 10 230 74 286 37 b 557 -31 415 -17 484 -31 b 761 10 629 -31 697 -17 b 928 121 825 37 881 74 b 1042 287 976 168 1014 223 b 1083 490 1069 350 1083 418 b 1042 695 1083 563 1069 632 b 928 861 1014 759 976 814 b 761 973 881 908 825 946 b 557 1014 697 1000 629 1014 b 351 973 484 1014 415 1000 b 183 861 286 946 230 908 b 69 695 135 814 97 759 b 28 490 42 632 28 563 z m 111 490 b 147 663 111 551 123 609 b 242 805 170 717 202 765 b 384 901 283 845 330 877 b 557 936 438 924 496 936 b 729 901 618 936 675 924 b 870 805 783 877 830 845 b 965 663 910 765 942 717 b 1000 490 988 609 1000 551 b 965 318 1000 429 988 372 b 870 177 942 264 910 217 b 729 82 830 137 783 105 b 557 47 675 59 618 47 b 384 82 496 47 438 59 b 242 177 330 105 283 137 b 147 318 202 217 170 264 b 111 490 123 372 111 429 z "},"ª":{"ha":486,"x_min":0,"x_max":0,"o":"m 406 843 b 299 839 370 843 335 842 b 203 819 264 836 231 830 b 133 775 174 809 151 794 b 106 697 115 756 106 730 b 119 646 106 677 110 660 b 151 613 128 632 138 621 b 194 595 164 604 179 598 b 238 590 210 592 225 590 b 383 664 299 590 347 615 l 385 664 b 381 632 383 654 381 643 b 379 600 380 621 379 610 l 439 600 b 442 640 439 611 440 625 l 447 688 l 476 846 b 478 867 477 851 478 859 b 479 888 479 876 479 883 b 467 940 479 908 475 925 b 435 975 459 954 449 966 b 390 995 422 984 407 991 b 336 1001 372 999 355 1001 b 249 985 309 1001 280 996 b 175 943 218 974 194 960 l 206 894 b 259 927 219 906 237 917 b 324 942 281 937 302 942 b 385 927 349 942 369 937 b 408 874 400 917 408 900 b 408 858 408 869 408 864 b 406 843 407 853 406 848 z m 383 790 l 397 790 l 392 763 b 347 681 385 730 370 703 b 257 649 324 659 294 649 b 206 660 239 649 222 652 b 182 704 190 667 182 682 b 201 749 182 723 188 738 b 250 775 214 760 231 769 b 315 788 269 781 291 786 b 383 790 338 789 361 790 z "},"«":{"ha":689,"x_min":0,"x_max":0,"o":"m 281 89 l 163 326 l 367 572 l 310 624 l 64 333 l 211 43 z m 532 89 l 414 326 l 618 572 l 561 624 l 315 333 l 463 43 z "},"¬":{"ha":925,"x_min":0,"x_max":0,"o":"m 817 181 l 817 567 l 108 567 l 108 483 l 733 483 l 733 181 z "},"­":{"ha":444,"x_min":0,"x_max":0,"o":"m 356 297 l 369 376 l 58 376 l 44 297 z "},"®":{"ha":833,"x_min":0,"x_max":0,"o":"m 156 685 b 181 563 156 641 164 600 b 249 463 197 525 220 491 b 349 397 277 435 311 413 b 472 372 388 380 429 372 b 595 397 516 372 557 380 b 696 463 634 413 667 435 b 764 563 725 491 747 525 b 789 685 781 600 789 641 b 764 808 789 728 781 769 b 696 908 747 846 725 879 b 595 975 667 936 634 958 b 472 1000 557 992 516 1000 b 349 975 429 1000 388 992 b 249 908 311 958 277 936 b 181 808 220 879 197 846 b 156 685 164 769 156 728 z m 206 685 b 226 789 206 722 213 756 b 283 874 240 821 259 850 b 368 931 307 898 336 917 b 472 951 400 944 435 951 b 576 931 509 951 544 944 b 661 874 609 917 637 898 b 718 789 685 850 704 821 b 739 685 732 756 739 722 b 718 582 739 649 732 614 b 661 497 704 550 685 521 b 576 439 637 472 609 453 b 472 418 544 425 509 418 b 368 439 435 418 400 425 b 283 497 336 453 307 472 b 226 582 259 521 240 550 b 206 685 213 614 206 649 z m 349 864 l 349 508 l 413 508 l 413 657 l 458 657 l 542 508 l 619 508 l 524 664 b 583 697 549 669 569 680 b 606 760 598 713 606 734 b 594 808 606 779 602 795 b 565 840 587 821 577 832 b 522 858 552 849 538 855 b 474 864 506 862 490 864 z m 464 708 l 413 708 l 413 810 l 471 810 b 519 800 488 810 503 806 b 542 761 534 794 542 781 b 517 719 542 740 533 726 b 464 708 500 712 482 708 z "},"¯":{"ha":333,"x_min":0,"x_max":0,"o":"m 426 833 l 439 908 l 64 908 l 51 833 z "},"°":{"ha":556,"x_min":0,"x_max":0,"o":"m 554 793 b 539 876 554 823 549 850 b 496 942 529 901 514 923 b 430 985 477 960 455 975 b 347 1000 404 995 377 1000 b 265 985 318 1000 290 995 b 199 942 239 975 217 960 b 156 876 180 923 166 901 b 140 793 145 850 140 823 b 156 710 140 763 145 736 b 199 644 166 685 180 663 b 265 601 217 626 239 612 b 347 586 290 591 318 586 b 430 601 377 586 404 591 b 496 644 455 612 477 626 b 539 710 514 663 529 685 b 554 793 549 736 554 763 z m 488 793 b 476 738 488 774 484 755 b 447 694 469 721 459 706 b 402 664 434 681 419 671 b 347 653 385 656 367 653 b 292 664 328 653 309 656 b 248 694 275 671 260 681 b 218 738 235 706 225 721 b 207 793 211 755 207 774 b 218 848 207 813 211 831 b 248 892 225 865 235 880 b 292 922 260 905 275 915 b 347 933 309 930 328 933 b 402 922 367 933 385 930 b 447 892 419 915 434 905 b 476 848 459 880 469 865 b 488 793 484 831 488 813 z "},"±":{"ha":925,"x_min":0,"x_max":0,"o":"m 108 565 l 108 482 l 421 482 l 421 272 l 504 272 l 504 482 l 817 482 l 817 565 l 504 565 l 504 782 l 421 782 l 421 565 z m 108 150 l 108 67 l 817 67 l 817 150 z "},"²":{"ha":514,"x_min":0,"x_max":0,"o":"m 471 478 l 174 478 l 376 644 b 433 694 398 662 417 678 b 476 740 450 709 464 725 b 502 790 487 756 496 772 b 511 847 508 807 511 826 b 468 955 511 891 497 927 b 342 997 439 983 397 997 b 223 958 297 997 258 984 b 147 849 188 931 163 895 l 224 828 b 267 899 234 857 248 881 b 336 925 286 916 309 925 b 406 902 366 925 389 917 b 432 843 423 887 432 867 b 411 779 432 822 425 800 b 339 704 397 758 373 733 l 79 486 l 65 403 l 456 403 z "},"³":{"ha":514,"x_min":0,"x_max":0,"o":"m 271 743 l 271 743 l 242 743 l 229 674 l 256 674 b 304 669 272 674 288 672 b 347 653 320 666 334 660 b 376 623 359 645 369 635 b 388 576 384 610 388 595 b 356 499 388 544 377 518 b 265 469 334 479 304 469 b 158 547 208 469 172 495 l 75 522 b 144 428 88 481 111 450 b 264 394 177 406 217 394 b 413 444 324 394 374 411 b 471 585 451 477 471 524 b 444 663 471 613 462 639 b 376 707 427 686 404 700 b 420 724 391 711 406 716 b 459 753 434 732 447 742 b 487 796 471 765 480 779 b 497 853 494 813 497 831 b 452 962 497 900 482 936 b 338 1000 422 987 384 1000 b 232 975 299 1000 263 992 b 154 897 200 958 175 932 l 218 857 b 263 908 231 879 246 896 b 328 926 279 920 301 926 b 390 906 354 926 375 919 b 414 849 406 892 414 873 b 380 772 414 816 403 791 b 271 743 357 753 321 743 z "},"Ž":{"ha":794,"x_min":0,"x_max":0,"o":"m 829 900 l 844 983 l 164 983 l 149 896 l 701 896 l -19 83 l -35 0 l 676 0 l 692 88 l 110 88 z m 557 1061 l 744 1261 l 649 1261 l 507 1111 l 418 1261 l 331 1261 l 446 1061 z "},"µ":{"ha":772,"x_min":0,"x_max":0,"o":"m 168 650 l -37 -317 l 54 -317 l 126 24 b 271 -17 159 -3 207 -17 b 338 -7 292 -17 314 -13 b 405 19 361 0 383 8 b 466 58 427 31 447 44 b 515 106 485 73 501 89 l 518 106 l 496 0 l 594 0 b 605 72 598 24 602 48 b 617 143 608 95 612 119 l 725 650 l 633 650 l 563 317 b 525 210 554 277 542 241 b 467 132 508 179 489 153 b 394 83 444 111 420 94 b 313 67 367 72 340 67 b 203 95 263 67 226 76 b 169 189 181 114 169 145 b 173 235 169 203 171 218 b 183 290 175 251 179 270 l 260 650 z "},"¶":{"ha":833,"x_min":0,"x_max":0,"o":"m 607 -175 l 811 983 l 482 983 b 331 958 426 983 376 975 b 214 887 285 941 246 917 b 138 781 181 857 156 822 b 111 653 120 741 111 698 b 128 568 111 622 117 594 b 178 500 140 542 157 519 b 257 455 200 481 226 466 b 360 439 288 444 322 439 l 251 -175 l 343 -175 l 533 908 l 706 908 l 515 -175 z "},"·":{"ha":361,"x_min":0,"x_max":0,"o":"m 256 438 b 235 492 256 461 249 479 b 183 511 221 505 204 511 b 130 489 163 511 145 504 b 107 433 115 474 107 456 b 128 381 107 411 114 394 b 181 361 143 368 160 361 b 234 384 202 361 220 369 b 256 438 248 399 256 417 z "},"ž":{"ha":614,"x_min":0,"x_max":0,"o":"m 585 583 l 597 650 l 103 650 l 88 571 l 456 571 l -21 67 l -32 0 l 496 0 l 510 82 l 107 82 z m 417 783 l 604 983 l 508 983 l 367 833 l 278 983 l 190 983 l 306 783 z "},"¹":{"ha":514,"x_min":0,"x_max":0,"o":"m 317 397 l 421 983 l 350 983 l 172 856 l 214 799 l 317 878 l 232 397 z "},"º":{"ha":486,"x_min":0,"x_max":0,"o":"m 276 589 b 373 608 312 589 344 595 b 449 660 402 621 427 639 b 498 738 470 682 486 708 b 515 832 509 767 515 799 b 501 901 515 857 511 880 b 463 953 492 922 479 939 b 403 988 446 968 426 979 b 329 1000 381 996 356 1000 b 234 981 295 1000 263 994 b 159 928 205 968 180 950 b 110 852 138 907 122 881 b 92 758 98 823 92 792 b 106 690 92 733 96 710 b 144 636 115 669 128 651 b 202 601 160 621 179 610 b 276 589 225 593 250 589 z m 439 825 b 427 759 439 802 435 780 b 394 703 419 738 408 720 b 345 665 381 687 364 675 b 282 651 326 656 305 651 b 199 684 247 651 219 662 b 169 765 179 706 169 733 b 181 831 169 788 173 810 b 214 887 189 852 200 871 b 263 925 228 903 244 916 b 325 939 282 934 303 939 b 408 906 360 939 388 928 b 439 825 429 884 439 857 z "},"»":{"ha":689,"x_min":0,"x_max":0,"o":"m 379 578 l 497 340 l 293 94 l 350 43 l 596 333 l 449 624 z m 128 578 l 246 340 l 42 94 l 99 43 l 344 333 l 197 624 z "},"Œ":{"ha":1347,"x_min":0,"x_max":0,"o":"m 539 0 l 1224 0 l 1239 88 l 747 88 l 815 469 l 1249 469 l 1264 554 l 831 554 l 890 896 l 1346 896 l 1361 983 l 681 983 b 442 942 594 983 515 970 b 251 826 369 915 305 876 b 126 646 198 776 156 716 b 81 411 96 575 81 497 b 121 222 81 337 94 274 b 226 95 148 170 183 128 b 374 23 270 62 319 38 b 539 0 428 8 483 0 z m 792 896 l 649 88 l 561 88 b 393 114 496 88 440 96 b 276 186 346 131 307 156 b 208 292 246 217 223 252 b 186 422 194 333 186 376 b 217 598 186 482 197 541 b 310 749 238 655 269 705 b 463 856 350 793 401 829 b 674 896 524 882 594 896 z "},"œ":{"ha":1364,"x_min":0,"x_max":0,"o":"m 657 149 b 694 85 666 126 679 105 b 750 32 710 64 729 47 b 824 -3 771 17 796 5 b 921 -17 853 -12 885 -17 b 1081 18 977 -17 1031 -5 b 1213 121 1131 41 1175 75 l 1154 176 b 1063 97 1131 146 1100 119 b 929 63 1025 74 980 63 b 847 78 900 63 872 68 b 780 121 821 88 799 102 b 735 186 761 139 746 161 b 719 269 725 211 719 239 b 720 284 719 274 720 279 b 722 300 721 289 721 294 l 1260 300 b 1269 362 1264 319 1268 339 b 1272 413 1271 384 1272 401 b 1203 596 1272 488 1249 549 b 1001 667 1158 643 1090 667 b 911 655 971 667 941 663 b 828 621 881 647 854 636 b 757 568 802 606 778 588 b 703 500 736 548 718 525 b 600 621 681 550 647 590 b 433 667 553 651 497 667 b 278 635 377 667 325 656 b 156 548 231 613 190 584 b 76 420 121 511 95 469 b 47 265 57 372 47 320 b 69 151 47 224 55 185 b 131 62 84 116 105 86 b 226 4 158 37 189 18 b 347 -17 263 -10 304 -17 b 451 -3 385 -17 420 -12 b 537 32 483 5 511 17 b 605 84 562 47 585 64 b 657 149 625 104 642 125 z m 636 381 b 615 258 636 337 629 296 b 557 157 601 219 582 186 b 467 88 532 128 502 105 b 353 63 433 71 394 63 b 266 78 320 63 291 68 b 201 122 241 89 219 104 b 160 188 183 141 169 163 b 146 271 150 214 146 241 b 167 392 146 313 153 354 b 226 494 182 431 201 465 b 315 563 251 523 281 546 b 428 589 350 580 387 589 b 515 573 460 589 489 584 b 581 529 541 562 563 548 b 622 463 599 511 613 489 b 636 381 631 438 636 410 z m 1176 369 l 735 369 b 768 453 741 399 752 427 b 826 524 784 480 803 503 b 903 572 848 544 874 560 b 999 589 933 583 964 589 b 1133 541 1058 589 1103 573 b 1179 418 1164 509 1179 468 b 1178 394 1179 411 1179 403 b 1176 369 1178 385 1177 377 z "},"Ÿ":{"ha":774,"x_min":0,"x_max":0,"o":"m 343 0 l 418 424 l 899 983 l 775 983 l 382 506 l 186 983 l 69 983 l 319 424 l 244 0 z m 428 1179 b 410 1228 428 1200 422 1216 b 364 1246 398 1240 382 1246 b 315 1226 345 1246 329 1239 b 294 1175 301 1212 294 1195 b 314 1127 294 1155 301 1139 b 361 1110 327 1116 343 1110 b 408 1131 380 1110 395 1117 b 428 1179 421 1144 428 1161 z m 703 1179 b 684 1228 703 1200 697 1216 b 638 1246 672 1240 656 1246 b 590 1226 619 1246 603 1239 b 569 1175 576 1212 569 1195 b 588 1127 569 1155 576 1139 b 635 1110 601 1116 616 1110 b 683 1131 653 1110 669 1117 b 703 1179 696 1144 703 1161 z "},"¿":{"ha":669,"x_min":0,"x_max":0,"o":"m 282 400 l 274 344 b 257 278 270 319 264 297 b 228 227 250 259 240 242 b 185 184 216 212 202 197 b 128 140 169 171 150 156 b 9 31 81 107 41 70 b -39 -112 -23 -9 -39 -57 b -20 -210 -39 -150 -33 -183 b 31 -279 -8 -238 9 -261 b 108 -320 53 -298 78 -311 b 203 -333 137 -329 169 -333 b 392 -272 275 -333 338 -313 b 500 -101 447 -230 482 -174 l 410 -85 b 341 -200 400 -130 377 -169 b 206 -247 305 -231 260 -247 b 101 -210 163 -247 128 -235 b 61 -110 75 -185 61 -151 b 69 -53 61 -88 64 -69 b 90 -7 74 -36 81 -21 b 125 33 100 7 111 20 b 171 71 139 45 154 58 l 217 106 b 265 144 233 118 249 131 b 307 190 280 158 294 174 b 341 246 320 207 331 225 b 363 317 351 266 358 290 l 376 400 z m 271 599 b 292 544 271 575 278 557 b 343 525 306 531 323 525 b 397 547 363 525 381 532 b 419 603 412 562 419 581 b 398 656 419 625 412 643 b 346 675 384 669 366 675 b 292 652 325 675 307 667 b 271 599 278 637 271 619 z "},"À":{"ha":965,"x_min":0,"x_max":0,"o":"m 43 0 l 204 258 l 707 258 l 760 0 l 864 0 l 660 983 l 563 983 l -71 0 z m 261 350 l 589 872 l 692 350 z m 397 1261 l 581 1061 l 658 1061 l 519 1261 z "},"Á":{"ha":965,"x_min":0,"x_max":0,"o":"m 43 0 l 204 258 l 707 258 l 760 0 l 864 0 l 660 983 l 563 983 l -71 0 z m 261 350 l 589 872 l 692 350 z m 639 1061 l 858 1261 l 736 1261 l 561 1061 z "},"Â":{"ha":965,"x_min":0,"x_max":0,"o":"m 43 0 l 204 258 l 707 258 l 760 0 l 864 0 l 660 983 l 563 983 l -71 0 z m 261 350 l 589 872 l 692 350 z m 826 1061 l 711 1261 l 600 1261 l 413 1061 l 508 1061 l 650 1211 l 739 1061 z "},"Ã":{"ha":965,"x_min":0,"x_max":0,"o":"m 43 0 l 204 258 l 707 258 l 760 0 l 864 0 l 660 983 l 563 983 l -71 0 z m 261 350 l 589 872 l 692 350 z m 403 1078 l 463 1078 b 492 1126 470 1095 480 1111 b 542 1147 504 1140 520 1147 b 585 1138 556 1147 571 1144 b 629 1115 600 1131 614 1124 b 676 1094 645 1108 661 1101 b 725 1083 692 1087 708 1083 b 780 1096 745 1083 764 1088 b 823 1128 796 1104 810 1115 b 856 1174 835 1142 846 1157 b 879 1228 865 1191 873 1209 l 819 1228 b 790 1180 812 1210 802 1194 b 739 1158 777 1166 760 1158 b 697 1169 725 1158 711 1162 b 651 1190 682 1176 667 1183 b 604 1213 636 1199 620 1206 b 556 1222 588 1219 572 1222 b 500 1210 534 1222 516 1218 b 458 1177 484 1201 470 1191 b 426 1131 445 1164 434 1148 b 403 1078 417 1113 409 1095 z "},"Ä":{"ha":965,"x_min":0,"x_max":0,"o":"m 43 0 l 204 258 l 707 258 l 760 0 l 864 0 l 660 983 l 563 983 l -71 0 z m 261 350 l 589 872 l 692 350 z m 569 1179 b 551 1228 569 1200 563 1216 b 506 1246 539 1240 524 1246 b 457 1226 487 1246 471 1239 b 436 1175 443 1212 436 1195 b 456 1127 436 1155 443 1139 b 503 1110 469 1116 484 1110 b 550 1131 521 1110 537 1117 b 569 1179 563 1144 569 1161 z m 844 1179 b 826 1228 844 1200 838 1216 b 779 1246 813 1240 798 1246 b 731 1226 761 1246 745 1239 b 711 1175 718 1212 711 1195 b 730 1127 711 1155 717 1139 b 776 1110 742 1116 758 1110 b 824 1131 795 1110 811 1117 b 844 1179 838 1144 844 1161 z "},"Å":{"ha":965,"x_min":0,"x_max":0,"o":"m 43 0 l 204 258 l 707 258 l 760 0 l 864 0 l 660 983 l 563 983 l -71 0 z m 261 350 l 589 872 l 692 350 z m 626 1047 b 735 1093 671 1047 707 1063 b 776 1204 763 1124 776 1161 b 744 1283 776 1237 766 1263 b 658 1314 722 1304 694 1314 b 598 1301 636 1314 616 1310 b 551 1267 580 1293 564 1282 b 519 1217 537 1253 527 1236 b 508 1157 512 1198 508 1178 b 541 1078 508 1125 519 1098 b 626 1047 563 1057 591 1047 z m 729 1201 b 701 1122 729 1171 720 1144 b 629 1089 683 1100 659 1089 b 576 1109 607 1089 589 1096 b 557 1161 563 1122 557 1140 b 585 1240 557 1192 566 1218 b 656 1274 603 1263 627 1274 b 710 1253 679 1274 697 1267 b 729 1201 723 1239 729 1222 z "},"Æ":{"ha":1375,"x_min":0,"x_max":0,"o":"m 646 0 l 1235 0 l 1250 88 l 758 88 l 826 469 l 1260 469 l 1275 554 l 842 554 l 901 896 l 1357 896 l 1372 983 l 754 983 l -60 0 l 64 0 l 290 278 l 694 278 z m 710 363 l 356 363 l 793 896 l 804 896 z "},"Ç":{"ha":1000,"x_min":0,"x_max":0,"o":"m 915 156 l 842 208 b 697 97 799 157 751 120 b 528 61 644 73 587 61 b 381 88 472 61 423 70 b 274 162 339 106 303 131 b 208 272 245 193 223 229 b 186 407 194 314 186 359 b 222 599 186 473 198 537 b 320 763 245 661 278 716 b 472 878 362 811 413 849 b 665 922 530 908 595 922 b 753 911 698 922 727 919 b 824 881 780 904 803 894 b 876 839 844 869 861 855 b 908 792 890 823 901 807 l 999 851 b 944 917 985 875 966 897 b 867 966 921 936 895 953 b 773 997 838 979 807 990 b 668 1008 739 1005 704 1008 b 439 960 587 1008 510 992 b 252 830 368 928 305 885 b 126 636 199 775 157 710 b 81 397 96 562 81 482 b 110 232 81 337 90 282 b 192 102 129 182 157 139 b 321 15 228 66 271 36 b 488 -24 371 -7 426 -20 l 397 -136 l 418 -157 b 479 -146 438 -150 459 -146 b 528 -158 499 -146 515 -150 b 549 -199 542 -167 549 -180 b 540 -228 549 -211 546 -221 b 518 -248 535 -236 527 -243 b 488 -258 509 -253 499 -256 b 457 -261 478 -260 467 -261 b 403 -257 439 -261 422 -260 b 354 -242 385 -254 369 -249 l 328 -292 b 395 -312 346 -301 369 -308 b 463 -319 422 -317 444 -319 b 518 -312 480 -319 499 -317 b 572 -291 538 -308 556 -301 b 613 -252 589 -281 603 -268 b 629 -192 624 -236 629 -216 b 619 -148 629 -174 626 -159 b 595 -119 613 -136 605 -127 b 562 -103 585 -112 574 -107 b 526 -99 549 -100 538 -99 b 505 -100 519 -99 512 -99 b 483 -104 498 -101 491 -102 l 547 -24 b 767 33 633 -20 707 -1 b 915 156 828 68 877 108 z "},"È":{"ha":806,"x_min":0,"x_max":0,"o":"m 169 88 l 238 469 l 707 469 l 722 554 l 253 554 l 313 896 l 804 896 l 819 983 l 229 983 l 56 0 l 682 0 l 697 88 z m 358 1261 l 542 1061 l 619 1061 l 481 1261 z "},"É":{"ha":806,"x_min":0,"x_max":0,"o":"m 169 88 l 238 469 l 707 469 l 722 554 l 253 554 l 313 896 l 804 896 l 819 983 l 229 983 l 56 0 l 682 0 l 697 88 z m 557 1061 l 776 1261 l 654 1261 l 479 1061 z "},"Ê":{"ha":806,"x_min":0,"x_max":0,"o":"m 169 88 l 238 469 l 707 469 l 722 554 l 253 554 l 313 896 l 804 896 l 819 983 l 229 983 l 56 0 l 682 0 l 697 88 z m 743 1061 l 628 1261 l 517 1261 l 329 1061 l 425 1061 l 567 1211 l 656 1061 z "},"Ë":{"ha":806,"x_min":0,"x_max":0,"o":"m 169 88 l 238 469 l 707 469 l 722 554 l 253 554 l 313 896 l 804 896 l 819 983 l 229 983 l 56 0 l 682 0 l 697 88 z m 483 1179 b 465 1228 483 1200 477 1216 b 419 1246 453 1240 438 1246 b 371 1226 401 1246 385 1239 b 350 1175 357 1212 350 1195 b 369 1127 350 1155 356 1139 b 417 1110 382 1116 398 1110 b 464 1131 435 1110 451 1117 b 483 1179 477 1144 483 1161 z m 758 1179 b 740 1228 758 1200 752 1216 b 693 1246 727 1240 712 1246 b 645 1226 675 1246 659 1239 b 625 1175 632 1212 625 1195 b 644 1127 625 1155 631 1139 b 690 1110 656 1116 672 1110 b 738 1131 709 1110 725 1117 b 758 1179 752 1144 758 1161 z "},"Ì":{"ha":361,"x_min":0,"x_max":0,"o":"m 154 0 l 328 983 l 229 983 l 56 0 z m 69 1261 l 253 1061 l 331 1061 l 192 1261 z "},"Í":{"ha":361,"x_min":0,"x_max":0,"o":"m 154 0 l 328 983 l 229 983 l 56 0 z m 318 1061 l 538 1261 l 415 1261 l 240 1061 z "},"Î":{"ha":361,"x_min":0,"x_max":0,"o":"m 154 0 l 328 983 l 229 983 l 56 0 z m 496 1061 l 381 1261 l 269 1261 l 82 1061 l 178 1061 l 319 1211 l 408 1061 z "},"Ï":{"ha":361,"x_min":0,"x_max":0,"o":"m 154 0 l 328 983 l 229 983 l 56 0 z m 235 1179 b 217 1228 235 1200 229 1216 b 171 1246 205 1240 189 1246 b 122 1226 152 1246 136 1239 b 101 1175 108 1212 101 1195 b 121 1127 101 1155 108 1139 b 168 1110 134 1116 150 1110 b 215 1131 187 1110 202 1117 b 235 1179 228 1144 235 1161 z m 510 1179 b 491 1228 510 1200 503 1216 b 444 1246 478 1240 463 1246 b 397 1226 426 1246 410 1239 b 376 1175 383 1212 376 1195 b 395 1127 376 1155 383 1139 b 442 1110 408 1116 423 1110 b 490 1131 460 1110 476 1117 b 510 1179 503 1144 510 1161 z "},"Ð":{"ha":1051,"x_min":0,"x_max":0,"o":"m 43 482 l 140 482 l 56 0 l 385 0 b 624 41 471 0 550 14 b 814 157 697 68 760 107 b 940 338 868 207 909 267 b 985 572 970 408 985 486 b 944 760 985 645 971 708 b 839 888 918 813 882 855 b 692 960 795 921 746 945 b 526 983 637 976 582 983 l 229 983 l 154 557 l 57 557 z m 601 557 l 253 557 l 313 896 l 504 896 b 672 869 569 896 625 887 b 789 797 719 852 758 828 b 857 690 819 767 842 731 b 879 561 872 650 879 606 b 848 385 879 501 869 442 b 755 234 827 328 796 278 b 602 128 714 190 663 155 b 392 88 541 101 471 88 l 169 88 l 239 482 l 588 482 z "},"Ñ":{"ha":1042,"x_min":0,"x_max":0,"o":"m 758 140 l 354 983 l 231 983 l 57 0 l 156 0 l 306 854 l 308 854 l 711 0 l 835 0 l 1008 983 l 910 983 l 761 140 z m 404 1078 l 464 1078 b 493 1126 471 1095 481 1111 b 543 1147 505 1140 522 1147 b 587 1138 558 1147 572 1144 b 631 1115 601 1131 616 1124 b 678 1094 646 1108 662 1101 b 726 1083 694 1087 710 1083 b 781 1096 747 1083 765 1088 b 824 1128 797 1104 812 1115 b 857 1174 837 1142 848 1157 b 881 1228 866 1191 874 1209 l 821 1228 b 791 1180 813 1210 803 1194 b 740 1158 778 1166 762 1158 b 698 1169 726 1158 712 1162 b 653 1190 684 1176 669 1183 b 606 1213 637 1199 621 1206 b 557 1222 590 1219 574 1222 b 501 1210 536 1222 517 1218 b 459 1177 486 1201 472 1191 b 427 1131 447 1164 436 1148 b 404 1078 418 1113 411 1095 z "},"Ò":{"ha":1158,"x_min":0,"x_max":0,"o":"m 518 -25 b 747 24 600 -25 677 -9 b 929 156 818 56 878 100 b 1049 351 980 211 1020 276 b 1092 589 1077 425 1092 505 b 1059 760 1092 652 1081 709 b 969 893 1037 812 1007 856 b 831 978 930 930 884 959 b 654 1008 777 998 718 1008 b 428 960 574 1008 498 992 b 247 830 359 928 298 885 b 125 635 195 775 155 710 b 81 397 95 561 81 481 b 113 225 81 334 91 277 b 203 92 134 173 164 129 b 342 6 242 55 288 26 b 518 -25 395 -15 454 -25 z m 986 579 b 952 385 986 513 975 448 b 857 219 929 323 898 268 b 710 104 816 171 767 133 b 522 61 653 75 591 61 b 378 88 468 61 419 70 b 272 162 336 106 301 131 b 208 272 244 193 222 229 b 186 406 193 314 186 358 b 219 597 186 471 197 535 b 313 763 242 659 273 714 b 460 878 353 811 402 849 b 650 922 517 908 581 922 b 794 895 704 922 752 913 b 899 822 836 877 871 853 b 964 713 928 791 949 754 b 986 579 979 671 986 626 z m 488 1261 l 671 1061 l 749 1061 l 610 1261 z "},"Ó":{"ha":1158,"x_min":0,"x_max":0,"o":"m 518 -25 b 747 24 600 -25 677 -9 b 929 156 818 56 878 100 b 1049 351 980 211 1020 276 b 1092 589 1077 425 1092 505 b 1059 760 1092 652 1081 709 b 969 893 1037 812 1007 856 b 831 978 930 930 884 959 b 654 1008 777 998 718 1008 b 428 960 574 1008 498 992 b 247 830 359 928 298 885 b 125 635 195 775 155 710 b 81 397 95 561 81 481 b 113 225 81 334 91 277 b 203 92 134 173 164 129 b 342 6 242 55 288 26 b 518 -25 395 -15 454 -25 z m 986 579 b 952 385 986 513 975 448 b 857 219 929 323 898 268 b 710 104 816 171 767 133 b 522 61 653 75 591 61 b 378 88 468 61 419 70 b 272 162 336 106 301 131 b 208 272 244 193 222 229 b 186 406 193 314 186 358 b 219 597 186 471 197 535 b 313 763 242 659 273 714 b 460 878 353 811 402 849 b 650 922 517 908 581 922 b 794 895 704 922 752 913 b 899 822 836 877 871 853 b 964 713 928 791 949 754 b 986 579 979 671 986 626 z m 689 1061 l 908 1261 l 786 1261 l 611 1061 z "},"Ô":{"ha":1158,"x_min":0,"x_max":0,"o":"m 518 -25 b 747 24 600 -25 677 -9 b 929 156 818 56 878 100 b 1049 351 980 211 1020 276 b 1092 589 1077 425 1092 505 b 1059 760 1092 652 1081 709 b 969 893 1037 812 1007 856 b 831 978 930 930 884 959 b 654 1008 777 998 718 1008 b 428 960 574 1008 498 992 b 247 830 359 928 298 885 b 125 635 195 775 155 710 b 81 397 95 561 81 481 b 113 225 81 334 91 277 b 203 92 134 173 164 129 b 342 6 242 55 288 26 b 518 -25 395 -15 454 -25 z m 986 579 b 952 385 986 513 975 448 b 857 219 929 323 898 268 b 710 104 816 171 767 133 b 522 61 653 75 591 61 b 378 88 468 61 419 70 b 272 162 336 106 301 131 b 208 272 244 193 222 229 b 186 406 193 314 186 358 b 219 597 186 471 197 535 b 313 763 242 659 273 714 b 460 878 353 811 402 849 b 650 922 517 908 581 922 b 794 895 704 922 752 913 b 899 822 836 877 871 853 b 964 713 928 791 949 754 b 986 579 979 671 986 626 z m 894 1061 l 779 1261 l 668 1261 l 481 1061 l 576 1061 l 718 1211 l 807 1061 z "},"Õ":{"ha":1158,"x_min":0,"x_max":0,"o":"m 518 -25 b 747 24 600 -25 677 -9 b 929 156 818 56 878 100 b 1049 351 980 211 1020 276 b 1092 589 1077 425 1092 505 b 1059 760 1092 652 1081 709 b 969 893 1037 812 1007 856 b 831 978 930 930 884 959 b 654 1008 777 998 718 1008 b 428 960 574 1008 498 992 b 247 830 359 928 298 885 b 125 635 195 775 155 710 b 81 397 95 561 81 481 b 113 225 81 334 91 277 b 203 92 134 173 164 129 b 342 6 242 55 288 26 b 518 -25 395 -15 454 -25 z m 986 579 b 952 385 986 513 975 448 b 857 219 929 323 898 268 b 710 104 816 171 767 133 b 522 61 653 75 591 61 b 378 88 468 61 419 70 b 272 162 336 106 301 131 b 208 272 244 193 222 229 b 186 406 193 314 186 358 b 219 597 186 471 197 535 b 313 763 242 659 273 714 b 460 878 353 811 402 849 b 650 922 517 908 581 922 b 794 895 704 922 752 913 b 899 822 836 877 871 853 b 964 713 928 791 949 754 b 986 579 979 671 986 626 z m 461 1078 l 521 1078 b 550 1126 528 1095 538 1111 b 600 1147 562 1140 579 1147 b 644 1138 615 1147 629 1144 b 688 1115 658 1131 673 1124 b 735 1094 703 1108 719 1101 b 783 1083 750 1087 767 1083 b 838 1096 804 1083 822 1088 b 881 1128 854 1104 869 1115 b 914 1174 894 1142 905 1157 b 938 1228 923 1191 931 1209 l 878 1228 b 848 1180 870 1210 860 1194 b 797 1158 835 1166 819 1158 b 755 1169 783 1158 769 1162 b 710 1190 741 1176 725 1183 b 663 1213 694 1199 678 1206 b 614 1222 647 1219 631 1222 b 558 1210 593 1222 574 1218 b 516 1177 543 1201 528 1191 b 484 1131 503 1164 493 1148 b 461 1078 475 1113 468 1095 z "},"Ö":{"ha":1158,"x_min":0,"x_max":0,"o":"m 518 -25 b 747 24 600 -25 677 -9 b 929 156 818 56 878 100 b 1049 351 980 211 1020 276 b 1092 589 1077 425 1092 505 b 1059 760 1092 652 1081 709 b 969 893 1037 812 1007 856 b 831 978 930 930 884 959 b 654 1008 777 998 718 1008 b 428 960 574 1008 498 992 b 247 830 359 928 298 885 b 125 635 195 775 155 710 b 81 397 95 561 81 481 b 113 225 81 334 91 277 b 203 92 134 173 164 129 b 342 6 242 55 288 26 b 518 -25 395 -15 454 -25 z m 986 579 b 952 385 986 513 975 448 b 857 219 929 323 898 268 b 710 104 816 171 767 133 b 522 61 653 75 591 61 b 378 88 468 61 419 70 b 272 162 336 106 301 131 b 208 272 244 193 222 229 b 186 406 193 314 186 358 b 219 597 186 471 197 535 b 313 763 242 659 273 714 b 460 878 353 811 402 849 b 650 922 517 908 581 922 b 794 895 704 922 752 913 b 899 822 836 877 871 853 b 964 713 928 791 949 754 b 986 579 979 671 986 626 z m 632 1179 b 614 1228 632 1200 626 1216 b 568 1246 602 1240 587 1246 b 519 1226 550 1246 533 1239 b 499 1175 506 1212 499 1195 b 518 1127 499 1155 505 1139 b 565 1110 531 1116 547 1110 b 613 1131 584 1110 600 1117 b 632 1179 625 1144 632 1161 z m 907 1179 b 888 1228 907 1200 901 1216 b 842 1246 876 1240 860 1246 b 794 1226 823 1246 807 1239 b 774 1175 780 1212 774 1195 b 792 1127 774 1155 780 1139 b 839 1110 805 1116 820 1110 b 887 1131 857 1110 873 1117 b 907 1179 900 1144 907 1161 z "},"×":{"ha":925,"x_min":0,"x_max":0,"o":"m 463 481 l 242 701 l 183 643 l 404 421 l 183 200 l 242 140 l 463 361 l 682 140 l 742 200 l 521 421 l 742 643 l 682 701 z "},"Ø":{"ha":1158,"x_min":0,"x_max":0,"o":"m 1021 844 l 1146 961 l 1104 1008 l 979 892 b 840 978 940 929 894 957 b 664 1008 787 998 728 1008 b 437 960 583 1008 508 992 b 251 830 366 928 304 885 b 126 635 199 775 157 710 b 81 397 96 561 81 481 b 101 256 81 346 88 299 b 161 139 115 213 135 174 l 35 22 l 76 -25 l 201 93 b 340 6 240 55 287 26 b 518 -25 394 -15 453 -25 b 749 24 600 -25 677 -9 b 934 156 820 56 882 100 b 1057 351 986 211 1027 276 b 1101 589 1087 425 1101 505 b 1081 729 1101 640 1094 687 b 1021 844 1067 772 1047 810 z m 275 160 l 944 775 b 996 579 979 719 996 653 b 960 385 996 513 984 448 b 862 219 937 323 904 268 b 712 104 820 171 770 133 b 522 61 654 75 591 61 b 378 88 468 61 420 70 b 275 160 337 105 303 129 z m 906 826 l 239 207 b 186 406 204 264 186 331 b 221 597 186 471 198 535 b 318 763 244 659 276 714 b 468 878 360 811 410 849 b 660 922 526 908 590 922 b 801 897 713 922 761 914 b 906 826 842 879 877 856 z "},"Ù":{"ha":986,"x_min":0,"x_max":0,"o":"m 432 -25 b 617 13 505 -25 567 -12 b 740 110 667 39 708 71 b 813 237 772 149 796 191 b 850 367 830 283 843 326 l 958 983 l 860 983 l 753 378 b 720 258 745 336 734 296 b 662 156 706 219 686 185 b 570 87 637 127 607 104 b 438 61 534 70 489 61 b 328 80 394 61 358 67 b 258 131 299 92 276 109 b 219 204 240 152 227 176 b 207 293 211 232 207 262 b 215 378 207 320 210 348 l 322 983 l 224 983 l 115 367 b 107 274 110 337 107 306 b 124 166 107 238 113 202 b 181 70 136 130 155 98 b 281 1 206 42 240 19 b 432 -25 322 -16 373 -25 z m 406 1261 l 589 1061 l 667 1061 l 528 1261 z "},"Ú":{"ha":986,"x_min":0,"x_max":0,"o":"m 432 -25 b 617 13 505 -25 567 -12 b 740 110 667 39 708 71 b 813 237 772 149 796 191 b 850 367 830 283 843 326 l 958 983 l 860 983 l 753 378 b 720 258 745 336 734 296 b 662 156 706 219 686 185 b 570 87 637 127 607 104 b 438 61 534 70 489 61 b 328 80 394 61 358 67 b 258 131 299 92 276 109 b 219 204 240 152 227 176 b 207 293 211 232 207 262 b 215 378 207 320 210 348 l 322 983 l 224 983 l 115 367 b 107 274 110 337 107 306 b 124 166 107 238 113 202 b 181 70 136 130 155 98 b 281 1 206 42 240 19 b 432 -25 322 -16 373 -25 z m 608 1061 l 828 1261 l 706 1261 l 531 1061 z "},"Û":{"ha":986,"x_min":0,"x_max":0,"o":"m 432 -25 b 617 13 505 -25 567 -12 b 740 110 667 39 708 71 b 813 237 772 149 796 191 b 850 367 830 283 843 326 l 958 983 l 860 983 l 753 378 b 720 258 745 336 734 296 b 662 156 706 219 686 185 b 570 87 637 127 607 104 b 438 61 534 70 489 61 b 328 80 394 61 358 67 b 258 131 299 92 276 109 b 219 204 240 152 227 176 b 207 293 211 232 207 262 b 215 378 207 320 210 348 l 322 983 l 224 983 l 115 367 b 107 274 110 337 107 306 b 124 166 107 238 113 202 b 181 70 136 130 155 98 b 281 1 206 42 240 19 b 432 -25 322 -16 373 -25 z m 810 1061 l 694 1261 l 583 1261 l 396 1061 l 492 1061 l 633 1211 l 722 1061 z "},"Ü":{"ha":986,"x_min":0,"x_max":0,"o":"m 432 -25 b 617 13 505 -25 567 -12 b 740 110 667 39 708 71 b 813 237 772 149 796 191 b 850 367 830 283 843 326 l 958 983 l 860 983 l 753 378 b 720 258 745 336 734 296 b 662 156 706 219 686 185 b 570 87 637 127 607 104 b 438 61 534 70 489 61 b 328 80 394 61 358 67 b 258 131 299 92 276 109 b 219 204 240 152 227 176 b 207 293 211 232 207 262 b 215 378 207 320 210 348 l 322 983 l 224 983 l 115 367 b 107 274 110 337 107 306 b 124 166 107 238 113 202 b 181 70 136 130 155 98 b 281 1 206 42 240 19 b 432 -25 322 -16 373 -25 z m 549 1179 b 531 1228 549 1200 543 1216 b 485 1246 519 1240 503 1246 b 436 1226 466 1246 450 1239 b 415 1175 422 1212 415 1195 b 435 1127 415 1155 422 1139 b 482 1110 448 1116 463 1110 b 529 1131 500 1110 516 1117 b 549 1179 542 1144 549 1161 z m 824 1179 b 805 1228 824 1200 817 1216 b 758 1246 792 1240 777 1246 b 710 1226 740 1246 724 1239 b 690 1175 697 1212 690 1195 b 709 1127 690 1155 697 1139 b 756 1110 722 1116 737 1110 b 803 1131 774 1110 790 1117 b 824 1179 817 1144 824 1161 z "},"Ý":{"ha":774,"x_min":0,"x_max":0,"o":"m 343 0 l 418 424 l 899 983 l 775 983 l 382 506 l 186 983 l 69 983 l 319 424 l 244 0 z m 513 1061 l 732 1261 l 610 1261 l 435 1061 z "},"Þ":{"ha":806,"x_min":0,"x_max":0,"o":"m 156 0 l 199 242 l 385 242 b 535 260 439 242 490 248 b 653 315 581 272 621 290 b 731 406 686 339 712 369 b 758 532 749 442 758 484 b 679 706 758 606 732 664 b 456 768 626 747 552 768 l 292 768 l 329 983 l 231 983 l 57 0 z m 213 324 l 276 683 l 447 683 b 601 647 512 683 563 671 b 658 521 639 623 658 581 b 588 374 658 456 635 407 b 393 324 541 340 476 324 z "},"ß":{"ha":824,"x_min":0,"x_max":0,"o":"m 133 0 l 267 753 b 286 830 270 777 277 803 b 326 905 295 857 309 882 b 393 961 344 928 366 946 b 493 983 420 976 453 983 b 608 945 540 983 578 971 b 651 832 637 920 651 882 b 633 749 651 800 645 773 b 582 688 620 725 603 704 b 508 650 561 671 536 658 b 421 638 481 642 451 638 l 410 638 l 394 554 l 407 554 b 576 496 478 554 534 535 b 638 344 617 457 638 406 b 612 212 638 292 629 247 b 545 125 595 176 572 147 b 453 78 518 103 487 87 b 350 64 419 69 384 64 b 313 65 340 64 328 64 b 279 69 299 66 288 68 l 265 -10 b 308 -15 275 -12 290 -13 b 351 -17 326 -16 340 -17 b 506 8 407 -17 458 -8 b 627 80 553 25 593 49 b 707 194 661 111 688 149 b 736 349 726 240 736 291 b 685 511 736 412 719 466 b 544 597 650 556 604 585 l 544 600 b 693 687 606 616 656 645 b 749 842 730 729 749 781 b 731 932 749 874 743 904 b 681 1003 720 960 703 984 b 601 1050 658 1023 632 1039 b 496 1067 570 1061 535 1067 b 359 1038 442 1067 397 1057 b 265 965 322 1019 290 995 b 206 865 239 936 219 902 b 175 756 192 828 181 792 l 42 0 z "},"à":{"ha":742,"x_min":0,"x_max":0,"o":"m 532 399 b 353 390 472 399 412 396 b 192 355 294 384 240 372 b 76 281 145 338 106 313 b 32 156 47 249 32 207 b 51 76 32 124 38 98 b 98 24 63 55 79 38 b 161 -4 117 11 138 1 b 229 -12 184 -10 207 -12 b 303 -6 256 -12 281 -10 b 367 14 326 -2 347 5 b 425 51 387 23 406 35 b 481 106 444 66 462 84 l 483 106 b 477 51 481 88 478 70 b 475 0 476 33 475 16 l 558 0 b 563 68 558 19 560 41 b 574 146 565 95 569 121 l 621 410 b 625 445 623 419 624 431 b 626 479 626 459 626 471 b 608 565 626 513 620 541 b 558 623 595 588 578 608 b 484 656 537 638 512 649 b 396 667 456 663 426 667 b 258 641 350 667 305 658 b 142 574 212 624 173 601 l 183 511 b 274 566 207 532 238 551 b 386 589 310 581 347 589 b 499 560 434 589 472 579 b 539 460 525 540 539 507 b 538 435 539 452 538 444 b 532 399 537 427 535 414 z m 497 328 l 519 328 l 510 274 b 481 192 504 245 494 218 b 428 125 467 167 449 144 b 354 79 406 106 382 90 b 263 63 326 68 296 63 b 213 67 246 63 229 64 b 170 84 197 71 183 76 b 140 116 158 92 148 103 b 129 167 133 129 129 146 b 163 249 129 201 141 228 b 251 298 186 270 215 286 b 369 322 286 309 326 317 b 497 328 413 326 456 328 z m 235 983 l 418 783 l 496 783 l 357 983 z "},"á":{"ha":742,"x_min":0,"x_max":0,"o":"m 532 399 b 353 390 472 399 412 396 b 192 355 294 384 240 372 b 76 281 145 338 106 313 b 32 156 47 249 32 207 b 51 76 32 124 38 98 b 98 24 63 55 79 38 b 161 -4 117 11 138 1 b 229 -12 184 -10 207 -12 b 303 -6 256 -12 281 -10 b 367 14 326 -2 347 5 b 425 51 387 23 406 35 b 481 106 444 66 462 84 l 483 106 b 477 51 481 88 478 70 b 475 0 476 33 475 16 l 558 0 b 563 68 558 19 560 41 b 574 146 565 95 569 121 l 621 410 b 625 445 623 419 624 431 b 626 479 626 459 626 471 b 608 565 626 513 620 541 b 558 623 595 588 578 608 b 484 656 537 638 512 649 b 396 667 456 663 426 667 b 258 641 350 667 305 658 b 142 574 212 624 173 601 l 183 511 b 274 566 207 532 238 551 b 386 589 310 581 347 589 b 499 560 434 589 472 579 b 539 460 525 540 539 507 b 538 435 539 452 538 444 b 532 399 537 427 535 414 z m 497 328 l 519 328 l 510 274 b 481 192 504 245 494 218 b 428 125 467 167 449 144 b 354 79 406 106 382 90 b 263 63 326 68 296 63 b 213 67 246 63 229 64 b 170 84 197 71 183 76 b 140 116 158 92 148 103 b 129 167 133 129 129 146 b 163 249 129 201 141 228 b 251 298 186 270 215 286 b 369 322 286 309 326 317 b 497 328 413 326 456 328 z m 436 783 l 656 983 l 533 983 l 358 783 z "},"â":{"ha":742,"x_min":0,"x_max":0,"o":"m 532 399 b 353 390 472 399 412 396 b 192 355 294 384 240 372 b 76 281 145 338 106 313 b 32 156 47 249 32 207 b 51 76 32 124 38 98 b 98 24 63 55 79 38 b 161 -4 117 11 138 1 b 229 -12 184 -10 207 -12 b 303 -6 256 -12 281 -10 b 367 14 326 -2 347 5 b 425 51 387 23 406 35 b 481 106 444 66 462 84 l 483 106 b 477 51 481 88 478 70 b 475 0 476 33 475 16 l 558 0 b 563 68 558 19 560 41 b 574 146 565 95 569 121 l 621 410 b 625 445 623 419 624 431 b 626 479 626 459 626 471 b 608 565 626 513 620 541 b 558 623 595 588 578 608 b 484 656 537 638 512 649 b 396 667 456 663 426 667 b 258 641 350 667 305 658 b 142 574 212 624 173 601 l 183 511 b 274 566 207 532 238 551 b 386 589 310 581 347 589 b 499 560 434 589 472 579 b 539 460 525 540 539 507 b 538 435 539 452 538 444 b 532 399 537 427 535 414 z m 497 328 l 519 328 l 510 274 b 481 192 504 245 494 218 b 428 125 467 167 449 144 b 354 79 406 106 382 90 b 263 63 326 68 296 63 b 213 67 246 63 229 64 b 170 84 197 71 183 76 b 140 116 158 92 148 103 b 129 167 133 129 129 146 b 163 249 129 201 141 228 b 251 298 186 270 215 286 b 369 322 286 309 326 317 b 497 328 413 326 456 328 z m 642 783 l 526 983 l 415 983 l 228 783 l 324 783 l 465 933 l 554 783 z "},"ã":{"ha":742,"x_min":0,"x_max":0,"o":"m 532 399 b 353 390 472 399 412 396 b 192 355 294 384 240 372 b 76 281 145 338 106 313 b 32 156 47 249 32 207 b 51 76 32 124 38 98 b 98 24 63 55 79 38 b 161 -4 117 11 138 1 b 229 -12 184 -10 207 -12 b 303 -6 256 -12 281 -10 b 367 14 326 -2 347 5 b 425 51 387 23 406 35 b 481 106 444 66 462 84 l 483 106 b 477 51 481 88 478 70 b 475 0 476 33 475 16 l 558 0 b 563 68 558 19 560 41 b 574 146 565 95 569 121 l 621 410 b 625 445 623 419 624 431 b 626 479 626 459 626 471 b 608 565 626 513 620 541 b 558 623 595 588 578 608 b 484 656 537 638 512 649 b 396 667 456 663 426 667 b 258 641 350 667 305 658 b 142 574 212 624 173 601 l 183 511 b 274 566 207 532 238 551 b 386 589 310 581 347 589 b 499 560 434 589 472 579 b 539 460 525 540 539 507 b 538 435 539 452 538 444 b 532 399 537 427 535 414 z m 497 328 l 519 328 l 510 274 b 481 192 504 245 494 218 b 428 125 467 167 449 144 b 354 79 406 106 382 90 b 263 63 326 68 296 63 b 213 67 246 63 229 64 b 170 84 197 71 183 76 b 140 116 158 92 148 103 b 129 167 133 129 129 146 b 163 249 129 201 141 228 b 251 298 186 270 215 286 b 369 322 286 309 326 317 b 497 328 413 326 456 328 z m 208 800 l 268 800 b 297 848 275 818 285 834 b 347 869 309 862 326 869 b 391 860 362 869 377 866 b 435 838 405 853 420 846 b 482 816 450 830 466 823 b 531 806 498 809 514 806 b 585 818 551 806 569 810 b 628 851 602 826 616 837 b 661 897 641 864 652 879 b 685 950 670 914 678 931 l 625 950 b 595 902 618 932 608 916 b 544 881 583 888 566 881 b 502 891 531 881 516 884 b 457 913 488 898 473 905 b 410 935 441 921 425 928 b 361 944 394 941 378 944 b 306 932 340 944 321 940 b 263 899 290 924 276 913 b 231 853 251 886 240 870 b 208 800 222 835 215 818 z "},"ä":{"ha":742,"x_min":0,"x_max":0,"o":"m 532 399 b 353 390 472 399 412 396 b 192 355 294 384 240 372 b 76 281 145 338 106 313 b 32 156 47 249 32 207 b 51 76 32 124 38 98 b 98 24 63 55 79 38 b 161 -4 117 11 138 1 b 229 -12 184 -10 207 -12 b 303 -6 256 -12 281 -10 b 367 14 326 -2 347 5 b 425 51 387 23 406 35 b 481 106 444 66 462 84 l 483 106 b 477 51 481 88 478 70 b 475 0 476 33 475 16 l 558 0 b 563 68 558 19 560 41 b 574 146 565 95 569 121 l 621 410 b 625 445 623 419 624 431 b 626 479 626 459 626 471 b 608 565 626 513 620 541 b 558 623 595 588 578 608 b 484 656 537 638 512 649 b 396 667 456 663 426 667 b 258 641 350 667 305 658 b 142 574 212 624 173 601 l 183 511 b 274 566 207 532 238 551 b 386 589 310 581 347 589 b 499 560 434 589 472 579 b 539 460 525 540 539 507 b 538 435 539 452 538 444 b 532 399 537 427 535 414 z m 497 328 l 519 328 l 510 274 b 481 192 504 245 494 218 b 428 125 467 167 449 144 b 354 79 406 106 382 90 b 263 63 326 68 296 63 b 213 67 246 63 229 64 b 170 84 197 71 183 76 b 140 116 158 92 148 103 b 129 167 133 129 129 146 b 163 249 129 201 141 228 b 251 298 186 270 215 286 b 369 322 286 309 326 317 b 497 328 413 326 456 328 z m 379 901 b 361 950 379 922 373 938 b 315 968 349 962 334 968 b 267 948 297 968 281 961 b 246 897 253 934 246 918 b 265 849 246 877 252 861 b 313 832 278 838 294 832 b 360 853 331 832 347 839 b 379 901 373 867 379 883 z m 654 901 b 635 950 654 922 648 938 b 589 968 623 962 607 968 b 541 948 570 968 554 961 b 521 897 528 934 521 918 b 540 849 521 877 527 861 b 586 832 552 838 568 832 b 634 853 605 832 621 839 b 654 901 647 867 654 883 z "},"å":{"ha":742,"x_min":0,"x_max":0,"o":"m 532 399 b 353 390 472 399 412 396 b 192 355 294 384 240 372 b 76 281 145 338 106 313 b 32 156 47 249 32 207 b 51 76 32 124 38 98 b 98 24 63 55 79 38 b 161 -4 117 11 138 1 b 229 -12 184 -10 207 -12 b 303 -6 256 -12 281 -10 b 367 14 326 -2 347 5 b 425 51 387 23 406 35 b 481 106 444 66 462 84 l 483 106 b 477 51 481 88 478 70 b 475 0 476 33 475 16 l 558 0 b 563 68 558 19 560 41 b 574 146 565 95 569 121 l 621 410 b 625 445 623 419 624 431 b 626 479 626 459 626 471 b 608 565 626 513 620 541 b 558 623 595 588 578 608 b 484 656 537 638 512 649 b 396 667 456 663 426 667 b 258 641 350 667 305 658 b 142 574 212 624 173 601 l 183 511 b 274 566 207 532 238 551 b 386 589 310 581 347 589 b 499 560 434 589 472 579 b 539 460 525 540 539 507 b 538 435 539 452 538 444 b 532 399 537 427 535 414 z m 497 328 l 519 328 l 510 274 b 481 192 504 245 494 218 b 428 125 467 167 449 144 b 354 79 406 106 382 90 b 263 63 326 68 296 63 b 213 67 246 63 229 64 b 170 84 197 71 183 76 b 140 116 158 92 148 103 b 129 167 133 129 129 146 b 163 249 129 201 141 228 b 251 298 186 270 215 286 b 369 322 286 309 326 317 b 497 328 413 326 456 328 z m 436 769 b 544 815 481 769 517 785 b 586 926 572 846 586 883 b 553 1006 586 959 575 985 b 468 1036 532 1026 503 1036 b 408 1024 446 1036 426 1032 b 360 990 390 1015 374 1004 b 329 940 347 975 337 959 b 318 879 322 921 318 900 b 351 800 318 847 329 820 b 436 769 372 780 401 769 z m 539 924 b 511 844 539 893 530 867 b 439 811 493 822 469 811 b 386 831 417 811 399 818 b 367 883 373 845 367 862 b 394 963 367 914 376 940 b 465 996 413 985 437 996 b 519 975 488 996 506 989 b 539 924 532 961 539 944 z "},"æ":{"ha":1228,"x_min":0,"x_max":0,"o":"m 614 540 b 531 637 598 585 570 617 b 396 667 491 657 446 667 b 258 641 350 667 305 658 b 142 574 212 624 173 601 l 183 511 b 274 566 207 532 238 551 b 386 589 310 581 347 589 b 499 560 434 589 472 579 b 539 460 525 540 539 507 b 535 421 539 452 538 439 b 525 369 532 402 529 385 b 347 363 465 369 405 367 b 189 335 288 359 235 350 b 76 270 143 320 105 298 b 32 156 47 242 32 204 b 51 76 32 124 38 98 b 102 24 64 55 81 38 b 172 -4 123 11 146 1 b 250 -12 198 -10 224 -12 b 428 31 321 -12 381 2 b 540 147 476 59 513 98 b 576 83 549 124 560 103 b 631 31 591 63 609 45 b 703 -4 653 16 677 4 b 785 -17 729 -12 756 -17 b 944 18 841 -17 894 -5 b 1076 121 994 41 1038 75 l 1018 176 b 926 97 995 146 964 119 b 793 63 888 74 844 63 b 713 78 763 63 737 68 b 651 121 688 88 668 102 b 611 186 634 139 620 161 b 597 269 602 211 597 239 b 598 284 597 274 597 279 b 600 300 598 289 599 294 l 1124 300 b 1133 362 1128 319 1131 339 b 1136 413 1135 384 1136 401 b 1067 596 1136 488 1113 549 b 865 667 1022 643 954 667 b 793 657 841 667 817 663 b 723 630 769 650 746 641 b 660 590 700 618 679 605 b 614 540 641 574 626 558 z m 492 300 l 514 300 l 510 274 b 482 190 505 243 496 215 b 429 123 468 164 450 142 b 355 78 408 104 383 89 b 263 63 327 68 296 63 b 213 67 246 63 229 64 b 170 84 197 71 183 76 b 140 116 158 92 148 103 b 129 167 133 129 129 146 b 159 234 129 194 139 217 b 239 274 179 251 206 265 b 355 294 272 284 311 291 b 492 300 399 298 444 300 z m 1040 369 l 613 369 b 644 453 619 399 630 427 b 699 524 659 480 678 503 b 773 572 721 544 746 560 b 863 589 800 583 830 589 b 997 541 922 589 967 573 b 1043 418 1028 509 1043 468 b 1042 394 1043 411 1043 403 b 1040 369 1042 385 1041 377 z "},"ç":{"ha":694,"x_min":0,"x_max":0,"o":"m 592 503 l 674 557 b 578 640 652 595 621 623 b 443 667 536 658 491 667 b 283 635 385 667 331 656 b 160 548 235 613 194 584 b 82 419 127 511 100 469 b 54 263 63 370 54 318 b 72 157 54 225 60 189 b 124 72 84 125 101 96 b 204 14 146 48 173 29 b 311 -14 236 -1 271 -10 l 214 -136 l 235 -157 b 296 -146 255 -150 275 -146 b 345 -158 315 -146 332 -150 b 365 -199 359 -167 365 -180 b 357 -228 365 -211 363 -221 b 335 -248 351 -236 344 -243 b 305 -258 325 -253 316 -256 b 274 -261 294 -260 284 -261 b 220 -257 256 -261 238 -260 b 171 -242 202 -254 186 -249 l 144 -292 b 212 -312 163 -301 185 -308 b 279 -319 238 -317 261 -319 b 335 -312 297 -319 315 -317 b 389 -291 354 -308 372 -301 b 430 -252 406 -281 419 -268 b 446 -192 441 -236 446 -216 b 436 -148 446 -174 443 -159 b 412 -119 430 -136 422 -127 b 378 -103 402 -112 391 -107 b 343 -99 366 -100 354 -99 b 322 -100 336 -99 328 -99 b 300 -104 315 -101 307 -102 l 369 -17 b 506 17 421 -15 467 -4 b 614 96 546 37 581 63 l 554 147 b 472 86 531 122 504 102 b 363 63 441 70 404 63 b 274 78 329 63 300 68 b 208 122 248 89 226 104 b 167 188 190 141 176 163 b 153 271 157 214 153 241 b 174 394 153 314 160 355 b 234 495 189 432 209 466 b 325 564 259 524 290 547 b 440 589 360 581 399 589 b 534 565 475 589 507 581 b 592 503 561 548 581 528 z "},"è":{"ha":786,"x_min":0,"x_max":0,"o":"m 144 300 l 682 300 b 692 362 687 319 690 339 b 694 413 694 384 694 401 b 626 596 694 488 672 549 b 424 667 580 643 513 667 b 276 634 371 667 322 656 b 156 547 230 612 190 583 b 76 421 122 511 96 469 b 47 269 57 373 47 322 b 70 148 47 224 55 184 b 133 58 85 112 106 82 b 226 3 159 34 190 16 b 343 -17 263 -10 301 -17 b 503 18 400 -17 453 -5 b 635 121 553 41 597 75 l 576 176 b 485 97 553 146 523 119 b 351 63 447 74 402 63 b 269 78 322 63 294 68 b 202 121 243 88 221 102 b 158 186 183 139 168 161 b 142 269 147 211 142 239 b 142 284 142 274 142 279 b 144 300 143 289 144 294 z m 599 369 l 157 369 b 190 453 163 399 175 427 b 248 524 206 480 225 503 b 326 572 271 544 297 560 b 421 589 355 583 387 589 b 556 541 480 589 525 573 b 601 418 586 509 601 468 b 601 394 601 411 601 403 b 599 369 600 385 600 377 z m 240 983 l 424 783 l 501 783 l 363 983 z "},"é":{"ha":786,"x_min":0,"x_max":0,"o":"m 144 300 l 682 300 b 692 362 687 319 690 339 b 694 413 694 384 694 401 b 626 596 694 488 672 549 b 424 667 580 643 513 667 b 276 634 371 667 322 656 b 156 547 230 612 190 583 b 76 421 122 511 96 469 b 47 269 57 373 47 322 b 70 148 47 224 55 184 b 133 58 85 112 106 82 b 226 3 159 34 190 16 b 343 -17 263 -10 301 -17 b 503 18 400 -17 453 -5 b 635 121 553 41 597 75 l 576 176 b 485 97 553 146 523 119 b 351 63 447 74 402 63 b 269 78 322 63 294 68 b 202 121 243 88 221 102 b 158 186 183 139 168 161 b 142 269 147 211 142 239 b 142 284 142 274 142 279 b 144 300 143 289 144 294 z m 599 369 l 157 369 b 190 453 163 399 175 427 b 248 524 206 480 225 503 b 326 572 271 544 297 560 b 421 589 355 583 387 589 b 556 541 480 589 525 573 b 601 418 586 509 601 468 b 601 394 601 411 601 403 b 599 369 600 385 600 377 z m 450 783 l 669 983 l 547 983 l 372 783 z "},"ê":{"ha":786,"x_min":0,"x_max":0,"o":"m 144 300 l 682 300 b 692 362 687 319 690 339 b 694 413 694 384 694 401 b 626 596 694 488 672 549 b 424 667 580 643 513 667 b 276 634 371 667 322 656 b 156 547 230 612 190 583 b 76 421 122 511 96 469 b 47 269 57 373 47 322 b 70 148 47 224 55 184 b 133 58 85 112 106 82 b 226 3 159 34 190 16 b 343 -17 263 -10 301 -17 b 503 18 400 -17 453 -5 b 635 121 553 41 597 75 l 576 176 b 485 97 553 146 523 119 b 351 63 447 74 402 63 b 269 78 322 63 294 68 b 202 121 243 88 221 102 b 158 186 183 139 168 161 b 142 269 147 211 142 239 b 142 284 142 274 142 279 b 144 300 143 289 144 294 z m 599 369 l 157 369 b 190 453 163 399 175 427 b 248 524 206 480 225 503 b 326 572 271 544 297 560 b 421 589 355 583 387 589 b 556 541 480 589 525 573 b 601 418 586 509 601 468 b 601 394 601 411 601 403 b 599 369 600 385 600 377 z m 671 783 l 556 983 l 444 983 l 257 783 l 353 783 l 494 933 l 583 783 z "},"ë":{"ha":786,"x_min":0,"x_max":0,"o":"m 144 300 l 682 300 b 692 362 687 319 690 339 b 694 413 694 384 694 401 b 626 596 694 488 672 549 b 424 667 580 643 513 667 b 276 634 371 667 322 656 b 156 547 230 612 190 583 b 76 421 122 511 96 469 b 47 269 57 373 47 322 b 70 148 47 224 55 184 b 133 58 85 112 106 82 b 226 3 159 34 190 16 b 343 -17 263 -10 301 -17 b 503 18 400 -17 453 -5 b 635 121 553 41 597 75 l 576 176 b 485 97 553 146 523 119 b 351 63 447 74 402 63 b 269 78 322 63 294 68 b 202 121 243 88 221 102 b 158 186 183 139 168 161 b 142 269 147 211 142 239 b 142 284 142 274 142 279 b 144 300 143 289 144 294 z m 599 369 l 157 369 b 190 453 163 399 175 427 b 248 524 206 480 225 503 b 326 572 271 544 297 560 b 421 589 355 583 387 589 b 556 541 480 589 525 573 b 601 418 586 509 601 468 b 601 394 601 411 601 403 b 599 369 600 385 600 377 z m 406 901 b 388 950 406 922 400 938 b 342 968 375 962 360 968 b 293 948 323 968 307 961 b 272 897 279 934 272 918 b 292 849 272 877 279 861 b 339 832 305 838 320 832 b 386 853 357 832 373 839 b 406 901 399 867 406 883 z m 681 901 b 662 950 681 922 674 938 b 615 968 649 962 634 968 b 567 948 597 968 581 961 b 547 897 554 934 547 918 b 566 849 547 877 553 861 b 613 832 578 838 594 832 b 660 853 631 832 647 839 b 681 901 674 867 681 883 z "},"ì":{"ha":347,"x_min":0,"x_max":0,"o":"m 144 0 l 260 650 l 167 650 l 51 0 z m 26 983 l 210 783 l 288 783 l 149 983 z "},"í":{"ha":347,"x_min":0,"x_max":0,"o":"m 144 0 l 260 650 l 167 650 l 51 0 z m 261 783 l 481 983 l 358 983 l 183 783 z "},"î":{"ha":347,"x_min":0,"x_max":0,"o":"m 144 0 l 260 650 l 167 650 l 51 0 z m 443 783 l 328 983 l 217 983 l 29 783 l 125 783 l 267 933 l 356 783 z "},"ï":{"ha":347,"x_min":0,"x_max":0,"o":"m 144 0 l 260 650 l 167 650 l 51 0 z m 179 901 b 161 950 179 922 173 938 b 115 968 149 962 134 968 b 67 948 97 968 81 961 b 46 897 53 934 46 918 b 65 849 46 877 52 861 b 113 832 78 838 94 832 b 160 853 131 832 147 839 b 179 901 173 867 179 883 z m 454 901 b 435 950 454 922 448 938 b 389 968 423 962 407 968 b 341 948 370 968 354 961 b 321 897 328 934 321 918 b 340 849 321 877 327 861 b 386 832 352 838 368 832 b 434 853 405 832 421 839 b 454 901 447 867 454 883 z "},"ð":{"ha":828,"x_min":0,"x_max":0,"o":"m 446 667 b 290 635 389 667 338 656 b 168 548 243 613 202 584 b 88 420 134 511 107 469 b 60 265 69 372 60 320 b 82 151 60 224 67 185 b 144 62 97 116 117 86 b 239 4 170 37 202 18 b 360 -17 276 -10 316 -17 b 543 25 432 -17 493 -3 b 665 134 593 53 634 89 b 731 285 696 179 718 229 b 751 451 745 340 751 396 b 702 704 751 540 735 625 b 568 917 669 784 625 855 l 725 992 l 678 1040 l 524 967 b 467 1024 506 986 487 1005 b 404 1081 446 1043 425 1062 l 319 1029 b 378 982 337 1015 357 1000 b 439 924 400 964 420 945 l 272 846 l 314 796 l 483 875 b 584 742 521 836 555 792 b 651 589 613 693 636 642 l 647 586 b 558 647 619 614 589 634 b 446 667 528 660 490 667 z m 649 381 b 628 258 649 337 642 296 b 569 157 614 219 594 186 b 480 88 544 128 515 105 b 365 63 445 71 407 63 b 278 78 333 63 304 68 b 213 122 253 89 231 104 b 172 188 195 141 181 163 b 158 271 163 214 158 241 b 180 392 158 313 166 354 b 239 494 194 431 214 465 b 328 563 264 523 294 546 b 440 589 362 580 400 589 b 528 573 473 589 502 584 b 594 529 554 562 576 548 b 635 463 612 511 625 489 b 649 381 644 438 649 410 z "},"ñ":{"ha":801,"x_min":0,"x_max":0,"o":"m 250 650 l 160 650 b 151 575 158 628 155 603 b 139 507 147 547 143 525 l 50 0 l 143 0 l 201 333 b 238 447 209 377 221 415 b 295 526 254 478 273 505 b 365 574 317 548 340 563 b 440 589 390 584 415 589 b 553 549 494 589 531 576 b 585 442 574 523 585 487 b 576 360 585 416 582 388 l 513 0 l 606 0 l 676 399 b 681 435 678 412 680 424 b 683 468 683 446 683 457 b 624 613 683 529 664 578 b 460 667 585 649 530 667 b 334 633 415 667 373 655 b 238 539 295 610 263 579 l 235 539 b 243 592 238 553 240 570 b 250 650 246 613 248 632 z m 233 800 l 293 800 b 322 848 300 818 310 834 b 372 869 334 862 351 869 b 416 860 387 869 402 866 b 460 838 430 853 445 846 b 507 816 475 830 491 823 b 556 806 523 809 539 806 b 610 818 576 806 594 810 b 653 851 627 826 641 837 b 686 897 666 864 677 879 b 710 950 695 914 703 931 l 650 950 b 620 902 643 932 633 916 b 569 881 608 888 591 881 b 527 891 556 881 541 884 b 482 913 513 898 498 905 b 435 935 466 921 450 928 b 386 944 419 941 403 944 b 331 932 365 944 346 940 b 288 899 315 924 301 913 b 256 853 276 886 265 870 b 233 800 247 835 240 818 z "},"ò":{"ha":828,"x_min":0,"x_max":0,"o":"m 347 -17 b 503 15 404 -17 456 -6 b 625 101 550 37 591 65 b 705 229 659 137 686 180 b 733 386 724 278 733 331 b 711 500 733 428 726 466 b 649 589 696 534 676 564 b 555 647 623 614 591 633 b 433 667 518 660 478 667 b 278 635 377 667 325 656 b 156 548 231 613 190 584 b 76 420 121 511 95 469 b 47 265 57 372 47 320 b 69 151 47 224 55 185 b 131 62 84 116 105 86 b 226 4 158 37 189 18 b 347 -17 263 -10 304 -17 z m 636 381 b 615 258 636 337 629 296 b 557 157 601 219 582 186 b 467 88 532 128 502 105 b 353 63 433 71 394 63 b 266 78 320 63 291 68 b 201 122 241 89 219 104 b 160 188 183 141 169 163 b 146 271 150 214 146 241 b 167 392 146 313 153 354 b 226 494 182 431 201 465 b 315 563 251 523 281 546 b 428 589 350 580 387 589 b 515 573 460 589 489 584 b 581 529 541 562 563 548 b 622 463 599 511 613 489 b 636 381 631 438 636 410 z m 257 983 l 440 783 l 518 783 l 379 983 z "},"ó":{"ha":828,"x_min":0,"x_max":0,"o":"m 347 -17 b 503 15 404 -17 456 -6 b 625 101 550 37 591 65 b 705 229 659 137 686 180 b 733 386 724 278 733 331 b 711 500 733 428 726 466 b 649 589 696 534 676 564 b 555 647 623 614 591 633 b 433 667 518 660 478 667 b 278 635 377 667 325 656 b 156 548 231 613 190 584 b 76 420 121 511 95 469 b 47 265 57 372 47 320 b 69 151 47 224 55 185 b 131 62 84 116 105 86 b 226 4 158 37 189 18 b 347 -17 263 -10 304 -17 z m 636 381 b 615 258 636 337 629 296 b 557 157 601 219 582 186 b 467 88 532 128 502 105 b 353 63 433 71 394 63 b 266 78 320 63 291 68 b 201 122 241 89 219 104 b 160 188 183 141 169 163 b 146 271 150 214 146 241 b 167 392 146 313 153 354 b 226 494 182 431 201 465 b 315 563 251 523 281 546 b 428 589 350 580 387 589 b 515 573 460 589 489 584 b 581 529 541 562 563 548 b 622 463 599 511 613 489 b 636 381 631 438 636 410 z m 469 783 l 689 983 l 567 983 l 392 783 z "},"ô":{"ha":828,"x_min":0,"x_max":0,"o":"m 347 -17 b 503 15 404 -17 456 -6 b 625 101 550 37 591 65 b 705 229 659 137 686 180 b 733 386 724 278 733 331 b 711 500 733 428 726 466 b 649 589 696 534 676 564 b 555 647 623 614 591 633 b 433 667 518 660 478 667 b 278 635 377 667 325 656 b 156 548 231 613 190 584 b 76 420 121 511 95 469 b 47 265 57 372 47 320 b 69 151 47 224 55 185 b 131 62 84 116 105 86 b 226 4 158 37 189 18 b 347 -17 263 -10 304 -17 z m 636 381 b 615 258 636 337 629 296 b 557 157 601 219 582 186 b 467 88 532 128 502 105 b 353 63 433 71 394 63 b 266 78 320 63 291 68 b 201 122 241 89 219 104 b 160 188 183 141 169 163 b 146 271 150 214 146 241 b 167 392 146 313 153 354 b 226 494 182 431 201 465 b 315 563 251 523 281 546 b 428 589 350 580 387 589 b 515 573 460 589 489 584 b 581 529 541 562 563 548 b 622 463 599 511 613 489 b 636 381 631 438 636 410 z m 685 783 l 569 983 l 458 983 l 271 783 l 367 783 l 508 933 l 597 783 z "},"õ":{"ha":828,"x_min":0,"x_max":0,"o":"m 347 -17 b 503 15 404 -17 456 -6 b 625 101 550 37 591 65 b 705 229 659 137 686 180 b 733 386 724 278 733 331 b 711 500 733 428 726 466 b 649 589 696 534 676 564 b 555 647 623 614 591 633 b 433 667 518 660 478 667 b 278 635 377 667 325 656 b 156 548 231 613 190 584 b 76 420 121 511 95 469 b 47 265 57 372 47 320 b 69 151 47 224 55 185 b 131 62 84 116 105 86 b 226 4 158 37 189 18 b 347 -17 263 -10 304 -17 z m 636 381 b 615 258 636 337 629 296 b 557 157 601 219 582 186 b 467 88 532 128 502 105 b 353 63 433 71 394 63 b 266 78 320 63 291 68 b 201 122 241 89 219 104 b 160 188 183 141 169 163 b 146 271 150 214 146 241 b 167 392 146 313 153 354 b 226 494 182 431 201 465 b 315 563 251 523 281 546 b 428 589 350 580 387 589 b 515 573 460 589 489 584 b 581 529 541 562 563 548 b 622 463 599 511 613 489 b 636 381 631 438 636 410 z m 242 800 l 301 800 b 331 848 309 818 319 834 b 381 869 343 862 359 869 b 424 860 395 869 410 866 b 468 838 439 853 453 846 b 515 816 484 830 500 823 b 564 806 531 809 547 806 b 619 818 584 806 603 810 b 662 851 635 826 649 837 b 694 897 674 864 685 879 b 718 950 704 914 712 931 l 658 950 b 628 902 651 932 641 916 b 578 881 616 888 599 881 b 535 891 564 881 550 884 b 490 913 521 898 506 905 b 443 935 475 921 459 928 b 394 944 427 941 411 944 b 339 932 373 944 355 940 b 297 899 323 924 309 913 b 265 853 284 886 273 870 b 242 800 256 835 248 818 z "},"ö":{"ha":828,"x_min":0,"x_max":0,"o":"m 347 -17 b 503 15 404 -17 456 -6 b 625 101 550 37 591 65 b 705 229 659 137 686 180 b 733 386 724 278 733 331 b 711 500 733 428 726 466 b 649 589 696 534 676 564 b 555 647 623 614 591 633 b 433 667 518 660 478 667 b 278 635 377 667 325 656 b 156 548 231 613 190 584 b 76 420 121 511 95 469 b 47 265 57 372 47 320 b 69 151 47 224 55 185 b 131 62 84 116 105 86 b 226 4 158 37 189 18 b 347 -17 263 -10 304 -17 z m 636 381 b 615 258 636 337 629 296 b 557 157 601 219 582 186 b 467 88 532 128 502 105 b 353 63 433 71 394 63 b 266 78 320 63 291 68 b 201 122 241 89 219 104 b 160 188 183 141 169 163 b 146 271 150 214 146 241 b 167 392 146 313 153 354 b 226 494 182 431 201 465 b 315 563 251 523 281 546 b 428 589 350 580 387 589 b 515 573 460 589 489 584 b 581 529 541 562 563 548 b 622 463 599 511 613 489 b 636 381 631 438 636 410 z m 413 901 b 394 950 413 922 406 938 b 349 968 382 962 367 968 b 300 948 330 968 314 961 b 279 897 286 934 279 918 b 299 849 279 877 286 861 b 346 832 312 838 327 832 b 393 853 364 832 380 839 b 413 901 406 867 413 883 z m 688 901 b 669 950 688 922 681 938 b 622 968 656 962 641 968 b 574 948 604 968 588 961 b 554 897 561 934 554 918 b 573 849 554 877 560 861 b 619 832 585 838 601 832 b 667 853 638 832 654 839 b 688 901 681 867 688 883 z "},"÷":{"ha":925,"x_min":0,"x_max":0,"o":"m 817 379 l 817 463 l 108 463 l 108 379 z m 538 646 b 517 698 538 665 531 683 b 463 721 503 713 485 721 b 408 698 440 721 422 713 b 388 646 394 683 388 665 b 408 594 388 626 394 609 b 463 571 422 578 440 571 b 517 594 485 571 503 578 b 538 646 531 609 538 626 z m 538 196 b 517 248 538 215 531 233 b 463 271 503 263 485 271 b 408 248 440 271 422 263 b 388 196 394 233 388 215 b 408 144 388 176 394 159 b 463 121 422 128 440 121 b 517 144 485 121 503 128 b 538 196 531 159 538 176 z "},"ø":{"ha":828,"x_min":0,"x_max":0,"o":"m 682 551 l 789 646 l 753 689 l 646 593 b 552 648 619 617 588 635 b 433 667 516 660 477 667 b 278 635 377 667 325 656 b 156 548 231 613 190 584 b 76 420 121 511 95 469 b 47 265 57 372 47 320 b 61 174 47 233 52 202 b 100 97 70 145 83 119 l -7 4 l 28 -39 l 138 57 b 347 -17 192 8 262 -17 b 503 15 404 -17 456 -6 b 625 101 550 37 591 65 b 705 229 659 137 686 180 b 733 386 724 278 733 331 b 682 551 733 451 716 506 z m 203 121 l 611 486 b 636 381 628 456 636 420 b 615 258 636 337 629 296 b 557 157 601 219 582 186 b 467 88 532 128 502 105 b 353 63 433 71 394 63 b 267 78 320 63 292 68 b 203 121 242 88 220 102 z m 578 532 l 171 164 b 146 271 154 194 146 230 b 167 392 146 313 153 354 b 226 494 182 431 201 465 b 315 563 251 523 281 546 b 428 589 350 580 387 589 b 513 574 460 589 489 584 b 578 532 538 565 559 550 z "},"ù":{"ha":801,"x_min":0,"x_max":0,"o":"m 506 0 l 596 0 b 605 75 598 22 601 47 b 617 143 609 103 613 125 l 706 650 l 613 650 l 554 317 b 518 203 547 273 535 235 b 460 124 501 172 482 145 b 390 78 439 103 415 88 b 315 63 365 68 340 63 b 203 101 262 62 224 75 b 171 208 181 127 171 163 b 179 290 171 233 174 261 l 243 650 l 150 650 l 79 251 b 74 215 77 238 76 226 b 72 182 73 204 72 193 b 131 37 72 121 92 72 b 296 -17 171 1 225 -17 b 422 17 340 -17 382 -5 b 518 111 461 40 493 71 l 521 111 b 513 58 518 97 515 80 b 506 0 510 37 507 18 z m 222 983 l 406 783 l 483 783 l 344 983 z "},"ú":{"ha":801,"x_min":0,"x_max":0,"o":"m 506 0 l 596 0 b 605 75 598 22 601 47 b 617 143 609 103 613 125 l 706 650 l 613 650 l 554 317 b 518 203 547 273 535 235 b 460 124 501 172 482 145 b 390 78 439 103 415 88 b 315 63 365 68 340 63 b 203 101 262 62 224 75 b 171 208 181 127 171 163 b 179 290 171 233 174 261 l 243 650 l 150 650 l 79 251 b 74 215 77 238 76 226 b 72 182 73 204 72 193 b 131 37 72 121 92 72 b 296 -17 171 1 225 -17 b 422 17 340 -17 382 -5 b 518 111 461 40 493 71 l 521 111 b 513 58 518 97 515 80 b 506 0 510 37 507 18 z m 460 783 l 679 983 l 557 983 l 382 783 z "},"û":{"ha":801,"x_min":0,"x_max":0,"o":"m 506 0 l 596 0 b 605 75 598 22 601 47 b 617 143 609 103 613 125 l 706 650 l 613 650 l 554 317 b 518 203 547 273 535 235 b 460 124 501 172 482 145 b 390 78 439 103 415 88 b 315 63 365 68 340 63 b 203 101 262 62 224 75 b 171 208 181 127 171 163 b 179 290 171 233 174 261 l 243 650 l 150 650 l 79 251 b 74 215 77 238 76 226 b 72 182 73 204 72 193 b 131 37 72 121 92 72 b 296 -17 171 1 225 -17 b 422 17 340 -17 382 -5 b 518 111 461 40 493 71 l 521 111 b 513 58 518 97 515 80 b 506 0 510 37 507 18 z m 664 783 l 549 983 l 438 983 l 250 783 l 346 783 l 488 933 l 576 783 z "},"ü":{"ha":801,"x_min":0,"x_max":0,"o":"m 506 0 l 596 0 b 605 75 598 22 601 47 b 617 143 609 103 613 125 l 706 650 l 613 650 l 554 317 b 518 203 547 273 535 235 b 460 124 501 172 482 145 b 390 78 439 103 415 88 b 315 63 365 68 340 63 b 203 101 262 62 224 75 b 171 208 181 127 171 163 b 179 290 171 233 174 261 l 243 650 l 150 650 l 79 251 b 74 215 77 238 76 226 b 72 182 73 204 72 193 b 131 37 72 121 92 72 b 296 -17 171 1 225 -17 b 422 17 340 -17 382 -5 b 518 111 461 40 493 71 l 521 111 b 513 58 518 97 515 80 b 506 0 510 37 507 18 z m 397 901 b 379 950 397 922 391 938 b 333 968 367 962 352 968 b 285 948 315 968 299 961 b 264 897 271 934 264 918 b 283 849 264 877 270 861 b 331 832 296 838 312 832 b 378 853 349 832 365 839 b 397 901 391 867 397 883 z m 672 901 b 653 950 672 922 666 938 b 607 968 641 962 625 968 b 559 948 588 968 572 961 b 539 897 546 934 539 918 b 558 849 539 877 545 861 b 604 832 570 838 586 832 b 652 853 623 832 639 839 b 672 901 666 867 672 883 z "},"ý":{"ha":671,"x_min":0,"x_max":0,"o":"m 263 103 l 158 650 l 61 650 l 197 1 l 117 -135 b 52 -220 95 -172 74 -200 b -25 -250 30 -240 5 -250 b -86 -239 -45 -250 -66 -246 l -100 -325 b -21 -333 -74 -331 -48 -333 b 100 -288 27 -333 68 -318 b 194 -168 132 -258 164 -218 l 686 650 l 582 650 l 265 103 z m 410 783 l 629 983 l 507 983 l 332 783 z "},"þ":{"ha":872,"x_min":0,"x_max":0,"o":"m 246 544 l 243 544 l 331 1050 l 238 1050 l -6 -333 l 88 -333 l 167 110 l 169 110 b 263 15 191 68 222 37 b 396 -17 304 -6 349 -17 b 548 15 450 -17 501 -6 b 669 101 595 37 635 65 b 749 229 703 137 729 180 b 778 386 768 278 778 331 b 757 500 778 428 771 466 b 697 589 743 534 723 564 b 605 647 671 614 641 633 b 485 667 569 660 529 667 b 410 657 459 667 434 663 b 342 631 386 650 363 642 b 286 592 322 619 303 606 b 246 544 269 577 256 561 z m 681 381 b 660 256 681 336 674 295 b 603 156 647 218 628 184 b 513 88 578 127 548 104 b 397 63 478 71 440 63 b 310 78 365 63 336 68 b 244 122 285 88 263 103 b 202 188 226 141 212 163 b 188 272 192 214 188 242 b 210 394 188 315 195 355 b 271 495 225 432 245 466 b 363 564 297 524 327 547 b 476 589 398 581 436 589 b 564 573 510 589 539 584 b 628 528 589 562 610 547 b 667 462 645 509 659 487 b 681 381 676 436 681 409 z "},"ÿ":{"ha":671,"x_min":0,"x_max":0,"o":"m 263 103 l 158 650 l 61 650 l 197 1 l 117 -135 b 52 -220 95 -172 74 -200 b -25 -250 30 -240 5 -250 b -86 -239 -45 -250 -66 -246 l -100 -325 b -21 -333 -74 -331 -48 -333 b 100 -288 27 -333 68 -318 b 194 -168 132 -258 164 -218 l 686 650 l 582 650 l 265 103 z m 332 901 b 314 950 332 922 326 938 b 268 968 302 962 287 968 b 219 948 250 968 233 961 b 199 897 206 934 199 918 b 218 849 199 877 205 861 b 265 832 231 838 247 832 b 313 853 284 832 300 839 b 332 901 325 867 332 883 z m 607 901 b 588 950 607 922 601 938 b 542 968 576 962 560 968 b 494 948 523 968 507 961 b 474 897 480 934 474 918 b 492 849 474 877 480 861 b 539 832 505 838 520 832 b 587 853 557 832 573 839 b 607 901 600 867 607 883 z "},"¤":{"ha":806,"x_min":0,"x_max":0,"o":"m 663 599 l 778 714 l 722 768 l 606 651 b 514 703 579 674 548 691 b 401 721 480 715 442 721 b 288 702 360 721 322 715 b 194 651 253 690 222 673 l 76 768 l 21 714 l 139 596 b 92 506 119 569 103 539 b 76 396 82 472 76 436 b 143 190 76 312 99 243 l 21 67 l 76 11 l 200 135 b 401 67 258 89 325 67 b 510 84 440 67 477 72 b 601 132 544 96 575 112 l 724 11 l 778 67 l 658 186 b 710 280 681 213 698 244 b 728 396 722 316 728 354 b 711 508 728 438 722 475 b 663 599 700 542 684 572 z m 401 635 b 497 616 437 635 469 628 b 570 565 526 603 550 586 b 617 488 590 543 606 517 b 633 396 628 459 633 428 b 617 302 633 363 628 331 b 570 225 606 273 590 247 b 497 173 550 203 526 185 b 401 154 469 160 437 154 b 306 173 366 154 334 160 b 232 225 277 185 252 203 b 185 302 212 247 196 273 b 169 396 175 331 169 363 b 185 488 169 428 175 459 b 232 565 196 517 212 543 b 306 616 252 586 277 603 b 401 635 334 628 366 635 z "},"¦":{"ha":308,"x_min":0,"x_max":0,"o":"m 196 938 l 113 938 l 113 451 l 196 451 z m 196 243 l 113 243 l 113 -243 l 196 -243 z "},"¨":{"ha":333,"x_min":0,"x_max":0,"o":"m 178 901 b 160 950 178 922 172 938 b 114 968 148 962 132 968 b 65 948 95 968 79 961 b 44 897 51 934 44 918 b 64 849 44 877 51 861 b 111 832 77 838 93 832 b 158 853 130 832 145 839 b 178 901 171 867 178 883 z m 453 901 b 434 950 453 922 447 938 b 388 968 422 962 406 968 b 340 948 369 968 353 961 b 319 897 326 934 319 918 b 338 849 319 877 326 861 b 385 832 351 838 366 832 b 433 853 403 832 419 839 b 453 901 446 867 453 883 z "},"´":{"ha":333,"x_min":0,"x_max":0,"o":"m 222 783 l 442 983 l 319 983 l 144 783 z "},"¸":{"ha":333,"x_min":0,"x_max":0,"o":"m 58 -104 l 142 0 l 82 0 l -28 -136 l -7 -157 b 54 -146 13 -150 34 -146 b 103 -158 74 -146 90 -150 b 124 -199 117 -167 124 -180 b 115 -228 124 -211 121 -221 b 93 -248 110 -236 102 -243 b 63 -258 84 -253 74 -256 b 32 -261 53 -260 42 -261 b -22 -257 14 -261 -3 -260 b -71 -242 -40 -254 -56 -249 l -97 -292 b -30 -312 -79 -301 -56 -308 b 38 -319 -3 -317 19 -319 b 93 -312 55 -319 74 -317 b 147 -291 113 -308 131 -301 b 188 -252 164 -281 178 -268 b 204 -192 199 -236 204 -216 b 194 -148 204 -174 201 -159 b 170 -119 188 -136 180 -127 b 137 -103 160 -112 149 -107 b 101 -99 124 -100 113 -99 b 80 -100 94 -99 87 -99 b 58 -104 73 -101 66 -102 z "},"¼":{"ha":1167,"x_min":0,"x_max":0,"o":"m 967 211 l 1032 586 l 938 586 l 628 208 l 615 136 l 881 136 l 857 0 l 933 0 l 957 136 l 1044 136 l 1058 211 z m 932 472 l 936 472 l 890 211 l 717 211 z m 317 397 l 421 983 l 350 983 l 172 856 l 214 799 l 317 878 l 232 397 z m 215 -43 l 1022 989 l 961 1026 l 153 -6 z "},"½":{"ha":1167,"x_min":0,"x_max":0,"o":"m 215 -43 l 1022 989 l 961 1026 l 153 -6 z m 317 397 l 421 983 l 350 983 l 172 856 l 214 799 l 317 878 l 232 397 z m 1046 75 l 749 75 l 951 242 b 1008 291 973 259 992 276 b 1051 338 1025 306 1039 322 b 1077 387 1062 353 1071 370 b 1086 444 1083 404 1086 423 b 1043 552 1086 488 1072 524 b 917 594 1014 580 972 594 b 798 555 872 594 833 581 b 722 446 763 528 738 492 l 799 425 b 842 496 809 455 823 478 b 911 522 861 513 884 522 b 981 499 941 522 964 515 b 1007 440 998 484 1007 464 b 986 376 1007 419 1000 398 b 914 301 972 355 948 330 l 654 83 l 640 0 l 1031 0 z "},"¾":{"ha":1167,"x_min":0,"x_max":0,"o":"m 967 211 l 1032 586 l 938 586 l 628 208 l 615 136 l 881 136 l 857 0 l 933 0 l 957 136 l 1044 136 l 1058 211 z m 932 472 l 936 472 l 890 211 l 717 211 z m 271 743 l 242 743 l 229 674 l 256 674 b 304 669 272 674 288 672 b 347 653 320 666 334 660 b 376 623 359 645 369 635 b 388 576 384 610 388 595 b 356 499 388 544 377 518 b 265 469 334 479 304 469 b 158 547 208 469 172 495 l 75 522 b 144 428 88 481 111 450 b 264 394 177 406 217 394 b 413 444 324 394 374 411 b 471 585 451 477 471 524 b 444 663 471 613 462 639 b 376 707 427 686 404 700 b 420 724 391 711 406 716 b 459 753 434 732 447 742 b 487 796 471 765 480 779 b 497 853 494 813 497 831 b 452 962 497 900 482 936 b 338 1000 422 987 384 1000 b 232 975 299 1000 263 992 b 154 897 200 958 175 932 l 218 857 b 263 908 231 879 246 896 b 328 926 279 920 301 926 b 390 906 354 926 375 919 b 414 849 406 892 414 873 b 380 772 414 816 403 791 b 271 743 357 753 321 743 z m 215 -43 l 1022 989 l 961 1026 l 153 -6 z "},"Ā":{"ha":965,"x_min":0,"x_max":0,"o":"m 43 0 l 204 258 l 707 258 l 760 0 l 864 0 l 660 983 l 563 983 l -71 0 z m 261 350 l 589 872 l 692 350 z m 811 1111 l 824 1186 l 449 1186 l 436 1111 z "},"ā":{"ha":742,"x_min":0,"x_max":0,"o":"m 532 399 b 353 390 472 399 412 396 b 192 355 294 384 240 372 b 76 281 145 338 106 313 b 32 156 47 249 32 207 b 51 76 32 124 38 98 b 98 24 63 55 79 38 b 161 -4 117 11 138 1 b 229 -12 184 -10 207 -12 b 303 -6 256 -12 281 -10 b 367 14 326 -2 347 5 b 425 51 387 23 406 35 b 481 106 444 66 462 84 l 483 106 b 477 51 481 88 478 70 b 475 0 476 33 475 16 l 558 0 b 563 68 558 19 560 41 b 574 146 565 95 569 121 l 621 410 b 625 445 623 419 624 431 b 626 479 626 459 626 471 b 608 565 626 513 620 541 b 558 623 595 588 578 608 b 484 656 537 638 512 649 b 396 667 456 663 426 667 b 258 641 350 667 305 658 b 142 574 212 624 173 601 l 183 511 b 274 566 207 532 238 551 b 386 589 310 581 347 589 b 499 560 434 589 472 579 b 539 460 525 540 539 507 b 538 435 539 452 538 444 b 532 399 537 427 535 414 z m 497 328 l 519 328 l 510 274 b 481 192 504 245 494 218 b 428 125 467 167 449 144 b 354 79 406 106 382 90 b 263 63 326 68 296 63 b 213 67 246 63 229 64 b 170 84 197 71 183 76 b 140 116 158 92 148 103 b 129 167 133 129 129 146 b 163 249 129 201 141 228 b 251 298 186 270 215 286 b 369 322 286 309 326 317 b 497 328 413 326 456 328 z m 621 833 l 633 908 l 258 908 l 246 833 z "},"Ă":{"ha":965,"x_min":0,"x_max":0,"o":"m 43 0 l 204 258 l 707 258 l 760 0 l 864 0 l 660 983 l 563 983 l -71 0 z m 261 350 l 589 872 l 692 350 z m 843 1261 l 782 1261 b 724 1180 775 1225 755 1198 b 619 1153 692 1162 657 1153 b 531 1176 584 1153 555 1161 b 496 1261 508 1192 496 1220 l 435 1261 b 483 1124 435 1200 451 1154 b 618 1078 516 1093 561 1078 b 698 1091 646 1078 672 1082 b 766 1128 723 1100 746 1112 b 816 1187 786 1145 803 1164 b 843 1261 829 1209 838 1234 z "},"ă":{"ha":742,"x_min":0,"x_max":0,"o":"m 532 399 b 353 390 472 399 412 396 b 192 355 294 384 240 372 b 76 281 145 338 106 313 b 32 156 47 249 32 207 b 51 76 32 124 38 98 b 98 24 63 55 79 38 b 161 -4 117 11 138 1 b 229 -12 184 -10 207 -12 b 303 -6 256 -12 281 -10 b 367 14 326 -2 347 5 b 425 51 387 23 406 35 b 481 106 444 66 462 84 l 483 106 b 477 51 481 88 478 70 b 475 0 476 33 475 16 l 558 0 b 563 68 558 19 560 41 b 574 146 565 95 569 121 l 621 410 b 625 445 623 419 624 431 b 626 479 626 459 626 471 b 608 565 626 513 620 541 b 558 623 595 588 578 608 b 484 656 537 638 512 649 b 396 667 456 663 426 667 b 258 641 350 667 305 658 b 142 574 212 624 173 601 l 183 511 b 274 566 207 532 238 551 b 386 589 310 581 347 589 b 499 560 434 589 472 579 b 539 460 525 540 539 507 b 538 435 539 452 538 444 b 532 399 537 427 535 414 z m 497 328 l 519 328 l 510 274 b 481 192 504 245 494 218 b 428 125 467 167 449 144 b 354 79 406 106 382 90 b 263 63 326 68 296 63 b 213 67 246 63 229 64 b 170 84 197 71 183 76 b 140 116 158 92 148 103 b 129 167 133 129 129 146 b 163 249 129 201 141 228 b 251 298 186 270 215 286 b 369 322 286 309 326 317 b 497 328 413 326 456 328 z m 654 983 l 593 983 b 535 902 586 947 566 920 b 431 875 503 884 469 875 b 342 899 395 875 366 883 b 307 983 319 914 307 943 l 246 983 b 294 846 246 922 262 876 b 429 800 327 815 372 800 b 509 813 457 800 484 804 b 577 851 534 822 557 834 b 627 909 597 867 614 886 b 654 983 641 932 650 956 z "},"Ą":{"ha":965,"x_min":0,"x_max":0,"o":"m 840 -260 l 824 -204 b 788 -227 813 -214 801 -222 b 747 -235 774 -232 760 -235 b 706 -225 732 -235 719 -231 b 688 -186 694 -219 688 -206 b 726 -99 688 -159 700 -130 b 826 0 752 -67 786 -34 l 864 0 l 660 983 l 563 983 l -71 0 l 43 0 l 204 258 l 707 258 l 760 0 b 708 -40 743 -11 726 -24 b 657 -90 690 -55 673 -72 b 618 -148 641 -108 628 -127 b 603 -214 608 -169 603 -191 b 637 -286 603 -246 614 -270 b 713 -310 659 -302 685 -310 b 778 -297 734 -310 756 -305 b 840 -260 801 -288 822 -275 z m 261 350 l 589 872 l 692 350 z "},"ą":{"ha":742,"x_min":0,"x_max":0,"o":"m 556 -260 l 539 -204 b 503 -227 529 -214 517 -222 b 463 -235 489 -232 475 -235 b 422 -225 448 -235 434 -231 b 403 -186 409 -219 403 -206 b 442 -99 403 -159 416 -130 b 542 0 468 -67 501 -34 l 558 0 b 563 68 558 19 560 41 b 574 146 565 95 569 121 l 621 410 b 625 445 623 419 624 431 b 626 479 626 459 626 471 b 608 565 626 513 620 541 b 558 623 595 588 578 608 b 484 656 537 638 512 649 b 396 667 456 663 426 667 b 258 641 350 667 305 658 b 142 574 212 624 173 601 l 183 511 b 274 566 207 532 238 551 b 386 589 310 581 347 589 b 499 560 434 589 472 579 b 539 460 525 540 539 507 b 538 435 539 452 538 444 b 532 399 537 427 535 414 b 353 390 472 399 412 396 b 192 355 294 384 240 372 b 76 281 145 338 106 313 b 32 156 47 249 32 207 b 51 76 32 124 38 98 b 98 24 63 55 79 38 b 161 -4 117 11 138 1 b 229 -12 184 -10 207 -12 b 303 -6 256 -12 281 -10 b 367 14 326 -2 347 5 b 425 51 387 23 406 35 b 481 106 444 66 462 84 l 483 106 b 477 51 481 88 478 70 b 475 0 476 33 475 16 b 423 -40 458 -11 441 -24 b 372 -90 405 -55 388 -72 b 333 -148 356 -108 344 -127 b 318 -214 323 -169 318 -191 b 352 -286 318 -246 329 -270 b 428 -310 375 -302 400 -310 b 494 -297 449 -310 471 -305 b 556 -260 516 -288 537 -275 z m 497 328 l 519 328 l 510 274 b 481 192 504 245 494 218 b 428 125 467 167 449 144 b 354 79 406 106 382 90 b 263 63 326 68 296 63 b 213 67 246 63 229 64 b 170 84 197 71 183 76 b 140 116 158 92 148 103 b 129 167 133 129 129 146 b 163 249 129 201 141 228 b 251 298 186 270 215 286 b 369 322 286 309 326 317 b 497 328 413 326 456 328 z "},"Ć":{"ha":1000,"x_min":0,"x_max":0,"o":"m 915 156 l 842 208 b 697 97 799 157 751 120 b 528 61 644 73 587 61 b 381 88 472 61 423 70 b 274 162 339 106 303 131 b 208 272 245 193 223 229 b 186 407 194 314 186 359 b 222 599 186 473 198 537 b 320 763 245 661 278 716 b 472 878 362 811 413 849 b 665 922 530 908 595 922 b 753 911 698 922 727 919 b 824 881 780 904 803 894 b 876 839 844 869 861 855 b 908 792 890 823 901 807 l 999 851 b 944 917 985 875 966 897 b 867 966 921 936 895 953 b 773 997 838 979 807 990 b 668 1008 739 1005 704 1008 b 439 960 587 1008 510 992 b 252 830 368 928 305 885 b 126 636 199 775 157 710 b 81 397 96 562 81 482 b 113 225 81 334 91 277 b 203 92 134 173 164 129 b 342 6 242 55 288 26 b 522 -25 397 -15 456 -25 b 651 -10 569 -25 611 -20 b 759 28 690 -1 726 12 b 847 85 792 45 821 64 b 915 156 873 107 896 131 z m 685 1061 l 904 1261 l 782 1261 l 607 1061 z "},"ć":{"ha":694,"x_min":0,"x_max":0,"o":"m 592 503 l 674 557 b 578 640 652 595 621 623 b 443 667 536 658 491 667 b 283 635 385 667 331 656 b 160 548 235 613 194 584 b 82 419 127 511 100 469 b 54 263 63 370 54 318 b 75 149 54 221 61 183 b 135 60 89 114 109 85 b 231 3 162 36 194 17 b 356 -17 268 -10 309 -17 b 501 14 411 -17 460 -6 b 614 96 543 34 581 62 l 554 147 b 472 86 531 122 504 102 b 363 63 441 70 404 63 b 274 78 329 63 300 68 b 208 122 248 89 226 104 b 167 188 190 141 176 163 b 153 271 157 214 153 241 b 174 394 153 314 160 355 b 234 495 189 432 209 466 b 325 564 259 524 290 547 b 440 589 360 581 399 589 b 534 565 475 589 507 581 b 592 503 561 548 581 528 z m 469 783 l 689 983 l 567 983 l 392 783 z "},"Ĉ":{"ha":1000,"x_min":0,"x_max":0,"o":"m 915 156 l 842 208 b 697 97 799 157 751 120 b 528 61 644 73 587 61 b 381 88 472 61 423 70 b 274 162 339 106 303 131 b 208 272 245 193 223 229 b 186 407 194 314 186 359 b 222 599 186 473 198 537 b 320 763 245 661 278 716 b 472 878 362 811 413 849 b 665 922 530 908 595 922 b 753 911 698 922 727 919 b 824 881 780 904 803 894 b 876 839 844 869 861 855 b 908 792 890 823 901 807 l 999 851 b 944 917 985 875 966 897 b 867 966 921 936 895 953 b 773 997 838 979 807 990 b 668 1008 739 1005 704 1008 b 439 960 587 1008 510 992 b 252 830 368 928 305 885 b 126 636 199 775 157 710 b 81 397 96 562 81 482 b 113 225 81 334 91 277 b 203 92 134 173 164 129 b 342 6 242 55 288 26 b 522 -25 397 -15 456 -25 b 651 -10 569 -25 611 -20 b 759 28 690 -1 726 12 b 847 85 792 45 821 64 b 915 156 873 107 896 131 z m 883 1061 l 768 1261 l 657 1261 l 469 1061 l 565 1061 l 707 1211 l 796 1061 z "},"ĉ":{"ha":694,"x_min":0,"x_max":0,"o":"m 592 503 l 674 557 b 578 640 652 595 621 623 b 443 667 536 658 491 667 b 283 635 385 667 331 656 b 160 548 235 613 194 584 b 82 419 127 511 100 469 b 54 263 63 370 54 318 b 75 149 54 221 61 183 b 135 60 89 114 109 85 b 231 3 162 36 194 17 b 356 -17 268 -10 309 -17 b 501 14 411 -17 460 -6 b 614 96 543 34 581 62 l 554 147 b 472 86 531 122 504 102 b 363 63 441 70 404 63 b 274 78 329 63 300 68 b 208 122 248 89 226 104 b 167 188 190 141 176 163 b 153 271 157 214 153 241 b 174 394 153 314 160 355 b 234 495 189 432 209 466 b 325 564 259 524 290 547 b 440 589 360 581 399 589 b 534 565 475 589 507 581 b 592 503 561 548 581 528 z m 682 783 l 567 983 l 456 983 l 268 783 l 364 783 l 506 933 l 594 783 z "},"Ċ":{"ha":1000,"x_min":0,"x_max":0,"o":"m 915 156 l 842 208 b 697 97 799 157 751 120 b 528 61 644 73 587 61 b 381 88 472 61 423 70 b 274 162 339 106 303 131 b 208 272 245 193 223 229 b 186 407 194 314 186 359 b 222 599 186 473 198 537 b 320 763 245 661 278 716 b 472 878 362 811 413 849 b 665 922 530 908 595 922 b 753 911 698 922 727 919 b 824 881 780 904 803 894 b 876 839 844 869 861 855 b 908 792 890 823 901 807 l 999 851 b 944 917 985 875 966 897 b 867 966 921 936 895 953 b 773 997 838 979 807 990 b 668 1008 739 1005 704 1008 b 439 960 587 1008 510 992 b 252 830 368 928 305 885 b 126 636 199 775 157 710 b 81 397 96 562 81 482 b 113 225 81 334 91 277 b 203 92 134 173 164 129 b 342 6 242 55 288 26 b 522 -25 397 -15 456 -25 b 651 -10 569 -25 611 -20 b 759 28 690 -1 726 12 b 847 85 792 45 821 64 b 915 156 873 107 896 131 z m 764 1179 b 746 1226 764 1199 758 1214 b 701 1243 734 1237 719 1243 b 655 1224 684 1243 668 1237 b 635 1175 641 1211 635 1194 b 653 1129 635 1156 641 1140 b 699 1113 666 1118 681 1113 b 745 1132 717 1113 733 1119 b 764 1179 758 1145 764 1161 z "},"ċ":{"ha":694,"x_min":0,"x_max":0,"o":"m 592 503 l 674 557 b 578 640 652 595 621 623 b 443 667 536 658 491 667 b 283 635 385 667 331 656 b 160 548 235 613 194 584 b 82 419 127 511 100 469 b 54 263 63 370 54 318 b 75 149 54 221 61 183 b 135 60 89 114 109 85 b 231 3 162 36 194 17 b 356 -17 268 -10 309 -17 b 501 14 411 -17 460 -6 b 614 96 543 34 581 62 l 554 147 b 472 86 531 122 504 102 b 363 63 441 70 404 63 b 274 78 329 63 300 68 b 208 122 248 89 226 104 b 167 188 190 141 176 163 b 153 271 157 214 153 241 b 174 394 153 314 160 355 b 234 495 189 432 209 466 b 325 564 259 524 290 547 b 440 589 360 581 399 589 b 534 565 475 589 507 581 b 592 503 561 548 581 528 z m 553 901 b 535 948 553 921 547 936 b 490 965 523 959 508 965 b 444 946 473 965 457 959 b 424 897 430 933 424 917 b 442 851 424 878 430 863 b 488 835 455 840 470 835 b 534 854 506 835 522 841 b 553 901 547 867 553 883 z "},"Č":{"ha":1000,"x_min":0,"x_max":0,"o":"m 915 156 l 842 208 b 697 97 799 157 751 120 b 528 61 644 73 587 61 b 381 88 472 61 423 70 b 274 162 339 106 303 131 b 208 272 245 193 223 229 b 186 407 194 314 186 359 b 222 599 186 473 198 537 b 320 763 245 661 278 716 b 472 878 362 811 413 849 b 665 922 530 908 595 922 b 753 911 698 922 727 919 b 824 881 780 904 803 894 b 876 839 844 869 861 855 b 908 792 890 823 901 807 l 999 851 b 944 917 985 875 966 897 b 867 966 921 936 895 953 b 773 997 838 979 807 990 b 668 1008 739 1005 704 1008 b 439 960 587 1008 510 992 b 252 830 368 928 305 885 b 126 636 199 775 157 710 b 81 397 96 562 81 482 b 113 225 81 334 91 277 b 203 92 134 173 164 129 b 342 6 242 55 288 26 b 522 -25 397 -15 456 -25 b 651 -10 569 -25 611 -20 b 759 28 690 -1 726 12 b 847 85 792 45 821 64 b 915 156 873 107 896 131 z m 738 1061 l 925 1261 l 829 1261 l 688 1111 l 599 1261 l 511 1261 l 626 1061 z "},"č":{"ha":694,"x_min":0,"x_max":0,"o":"m 592 503 l 674 557 b 578 640 652 595 621 623 b 443 667 536 658 491 667 b 283 635 385 667 331 656 b 160 548 235 613 194 584 b 82 419 127 511 100 469 b 54 263 63 370 54 318 b 75 149 54 221 61 183 b 135 60 89 114 109 85 b 231 3 162 36 194 17 b 356 -17 268 -10 309 -17 b 501 14 411 -17 460 -6 b 614 96 543 34 581 62 l 554 147 b 472 86 531 122 504 102 b 363 63 441 70 404 63 b 274 78 329 63 300 68 b 208 122 248 89 226 104 b 167 188 190 141 176 163 b 153 271 157 214 153 241 b 174 394 153 314 160 355 b 234 495 189 432 209 466 b 325 564 259 524 290 547 b 440 589 360 581 399 589 b 534 565 475 589 507 581 b 592 503 561 548 581 528 z m 519 783 l 707 983 l 611 983 l 469 833 l 381 983 l 293 983 l 408 783 z "},"Ď":{"ha":1051,"x_min":0,"x_max":0,"o":"m 229 983 l 56 0 l 385 0 b 624 41 471 0 550 14 b 814 157 697 68 760 107 b 940 338 868 207 909 267 b 985 572 970 408 985 486 b 944 760 985 645 971 708 b 839 888 918 813 882 855 b 692 960 795 921 746 945 b 526 983 637 976 582 983 z m 169 88 l 313 896 l 504 896 b 672 869 569 896 625 887 b 789 797 719 852 758 828 b 857 690 819 767 842 731 b 879 561 872 650 879 606 b 848 385 879 501 869 442 b 755 234 827 328 796 278 b 602 128 714 190 663 155 b 392 88 541 101 471 88 z m 613 1061 l 800 1261 l 704 1261 l 563 1111 l 474 1261 l 386 1261 l 501 1061 z "},"ď":{"ha":864,"x_min":0,"x_max":0,"o":"m 47 264 b 68 150 47 222 54 184 b 128 61 82 116 102 86 b 220 3 154 36 184 17 b 340 -17 256 -10 296 -17 b 483 20 393 -17 441 -4 b 579 107 526 45 558 74 l 582 107 l 563 0 l 656 0 l 842 1050 l 749 1050 l 658 540 l 656 540 b 562 635 634 582 603 613 b 429 667 521 656 476 667 b 277 635 375 667 324 656 b 156 549 230 613 190 585 b 76 421 121 513 95 470 b 47 264 57 372 47 319 z m 144 271 b 165 395 144 315 151 357 b 222 496 178 434 197 467 b 312 564 247 525 277 547 b 428 589 347 581 385 589 b 514 574 459 589 488 584 b 581 530 540 563 562 549 b 623 463 599 511 613 489 b 638 379 633 438 638 410 b 615 257 638 336 630 295 b 554 156 600 219 580 185 b 463 88 528 127 498 104 b 349 63 427 71 389 63 b 261 78 315 63 286 68 b 197 123 236 89 215 104 b 158 189 180 142 166 164 b 144 271 149 214 144 241 z m 939 726 l 1099 983 l 1000 983 l 860 726 z "},"Đ":{"ha":1051,"x_min":0,"x_max":0,"o":"m 43 482 l 140 482 l 56 0 l 385 0 b 624 41 471 0 550 14 b 814 157 697 68 760 107 b 940 338 868 207 909 267 b 985 572 970 408 985 486 b 944 760 985 645 971 708 b 839 888 918 813 882 855 b 692 960 795 921 746 945 b 526 983 637 976 582 983 l 229 983 l 154 557 l 57 557 z m 601 557 l 253 557 l 313 896 l 504 896 b 672 869 569 896 625 887 b 789 797 719 852 758 828 b 857 690 819 767 842 731 b 879 561 872 650 879 606 b 848 385 879 501 869 442 b 755 234 827 328 796 278 b 602 128 714 190 663 155 b 392 88 541 101 471 88 l 169 88 l 239 482 l 588 482 z "},"đ":{"ha":864,"x_min":0,"x_max":0,"o":"m 715 861 l 490 861 l 479 792 l 703 792 l 658 540 l 656 540 b 562 635 634 582 603 613 b 429 667 521 656 476 667 b 277 635 375 667 324 656 b 156 549 230 613 190 585 b 76 421 121 513 95 470 b 47 264 57 372 47 319 b 68 150 47 222 54 184 b 128 61 82 116 102 86 b 220 3 154 36 184 17 b 340 -17 256 -10 296 -17 b 483 20 393 -17 441 -4 b 579 107 526 45 558 74 l 582 107 l 563 0 l 656 0 l 796 792 l 868 792 l 879 861 l 808 861 l 842 1050 l 749 1050 z m 144 271 b 165 395 144 315 151 357 b 222 496 178 434 197 467 b 312 564 247 525 277 547 b 428 589 347 581 385 589 b 514 574 459 589 488 584 b 581 530 540 563 562 549 b 623 463 599 511 613 489 b 638 379 633 438 638 410 b 615 257 638 336 630 295 b 554 156 600 219 580 185 b 463 88 528 127 498 104 b 349 63 427 71 389 63 b 261 78 315 63 286 68 b 197 123 236 89 215 104 b 158 189 180 142 166 164 b 144 271 149 214 144 241 z "},"Ē":{"ha":806,"x_min":0,"x_max":0,"o":"m 169 88 l 238 469 l 707 469 l 722 554 l 253 554 l 313 896 l 804 896 l 819 983 l 229 983 l 56 0 l 682 0 l 697 88 z m 732 1111 l 744 1186 l 369 1186 l 357 1111 z "},"ē":{"ha":786,"x_min":0,"x_max":0,"o":"m 144 300 l 682 300 b 692 362 687 319 690 339 b 694 413 694 384 694 401 b 626 596 694 488 672 549 b 424 667 580 643 513 667 b 276 634 371 667 322 656 b 156 547 230 612 190 583 b 76 421 122 511 96 469 b 47 269 57 373 47 322 b 70 148 47 224 55 184 b 133 58 85 112 106 82 b 226 3 159 34 190 16 b 343 -17 263 -10 301 -17 b 503 18 400 -17 453 -5 b 635 121 553 41 597 75 l 576 176 b 485 97 553 146 523 119 b 351 63 447 74 402 63 b 269 78 322 63 294 68 b 202 121 243 88 221 102 b 158 186 183 139 168 161 b 142 269 147 211 142 239 b 142 284 142 274 142 279 b 144 300 143 289 144 294 z m 599 369 l 157 369 b 190 453 163 399 175 427 b 248 524 206 480 225 503 b 326 572 271 544 297 560 b 421 589 355 583 387 589 b 556 541 480 589 525 573 b 601 418 586 509 601 468 b 601 394 601 411 601 403 b 599 369 600 385 600 377 z m 658 833 l 671 908 l 296 908 l 283 833 z "},"Ĕ":{"ha":806,"x_min":0,"x_max":0,"o":"m 169 88 l 238 469 l 707 469 l 722 554 l 253 554 l 313 896 l 804 896 l 819 983 l 229 983 l 56 0 l 682 0 l 697 88 z m 764 1261 l 703 1261 b 644 1180 695 1225 676 1198 b 540 1153 613 1162 578 1153 b 452 1176 505 1153 476 1161 b 417 1261 428 1192 417 1220 l 356 1261 b 404 1124 356 1200 372 1154 b 539 1078 437 1093 481 1078 b 619 1091 567 1078 593 1082 b 687 1128 644 1100 667 1112 b 737 1187 707 1145 723 1164 b 764 1261 750 1209 759 1234 z "},"ĕ":{"ha":786,"x_min":0,"x_max":0,"o":"m 144 300 l 682 300 b 692 362 687 319 690 339 b 694 413 694 384 694 401 b 626 596 694 488 672 549 b 424 667 580 643 513 667 b 276 634 371 667 322 656 b 156 547 230 612 190 583 b 76 421 122 511 96 469 b 47 269 57 373 47 322 b 70 148 47 224 55 184 b 133 58 85 112 106 82 b 226 3 159 34 190 16 b 343 -17 263 -10 301 -17 b 503 18 400 -17 453 -5 b 635 121 553 41 597 75 l 576 176 b 485 97 553 146 523 119 b 351 63 447 74 402 63 b 269 78 322 63 294 68 b 202 121 243 88 221 102 b 158 186 183 139 168 161 b 142 269 147 211 142 239 b 142 284 142 274 142 279 b 144 300 143 289 144 294 z m 599 369 l 157 369 b 190 453 163 399 175 427 b 248 524 206 480 225 503 b 326 572 271 544 297 560 b 421 589 355 583 387 589 b 556 541 480 589 525 573 b 601 418 586 509 601 468 b 601 394 601 411 601 403 b 599 369 600 385 600 377 z m 690 983 l 629 983 b 571 902 622 947 602 920 b 467 875 539 884 505 875 b 378 899 431 875 402 883 b 343 983 355 914 343 943 l 282 983 b 331 846 282 922 298 876 b 465 800 363 815 408 800 b 545 813 493 800 520 804 b 613 851 571 822 593 834 b 663 909 633 867 650 886 b 690 983 677 932 686 956 z "},"Ė":{"ha":806,"x_min":0,"x_max":0,"o":"m 169 88 l 238 469 l 707 469 l 722 554 l 253 554 l 313 896 l 804 896 l 819 983 l 229 983 l 56 0 l 682 0 l 697 88 z m 621 1179 b 603 1226 621 1199 615 1214 b 558 1243 591 1237 576 1243 b 512 1224 541 1243 525 1237 b 492 1175 498 1211 492 1194 b 510 1129 492 1156 498 1140 b 556 1113 523 1118 538 1113 b 602 1132 574 1113 590 1119 b 621 1179 615 1145 621 1161 z "},"ė":{"ha":786,"x_min":0,"x_max":0,"o":"m 144 300 l 682 300 b 692 362 687 319 690 339 b 694 413 694 384 694 401 b 626 596 694 488 672 549 b 424 667 580 643 513 667 b 276 634 371 667 322 656 b 156 547 230 612 190 583 b 76 421 122 511 96 469 b 47 269 57 373 47 322 b 70 148 47 224 55 184 b 133 58 85 112 106 82 b 226 3 159 34 190 16 b 343 -17 263 -10 301 -17 b 503 18 400 -17 453 -5 b 635 121 553 41 597 75 l 576 176 b 485 97 553 146 523 119 b 351 63 447 74 402 63 b 269 78 322 63 294 68 b 202 121 243 88 221 102 b 158 186 183 139 168 161 b 142 269 147 211 142 239 b 142 284 142 274 142 279 b 144 300 143 289 144 294 z m 599 369 l 157 369 b 190 453 163 399 175 427 b 248 524 206 480 225 503 b 326 572 271 544 297 560 b 421 589 355 583 387 589 b 556 541 480 589 525 573 b 601 418 586 509 601 468 b 601 394 601 411 601 403 b 599 369 600 385 600 377 z m 542 901 b 524 948 542 921 536 936 b 479 965 512 959 497 965 b 433 946 462 965 446 959 b 413 897 419 933 413 917 b 431 851 413 878 419 863 b 476 835 444 840 459 835 b 523 854 495 835 510 841 b 542 901 535 867 542 883 z "},"Ę":{"ha":806,"x_min":0,"x_max":0,"o":"m 667 -260 l 650 -204 b 614 -227 640 -214 628 -222 b 574 -235 600 -232 587 -235 b 533 -225 559 -235 545 -231 b 514 -186 520 -219 514 -206 b 553 -99 514 -159 527 -130 b 653 0 579 -67 612 -34 l 682 0 l 697 88 l 169 88 l 238 469 l 707 469 l 722 554 l 253 554 l 313 896 l 804 896 l 819 983 l 229 983 l 56 0 l 586 0 b 534 -40 569 -11 552 -24 b 483 -90 516 -55 499 -72 b 444 -148 468 -108 455 -127 b 429 -214 434 -169 429 -191 b 463 -286 429 -246 441 -270 b 539 -310 486 -302 511 -310 b 605 -297 560 -310 582 -305 b 667 -260 628 -288 648 -275 z "},"ę":{"ha":786,"x_min":0,"x_max":0,"o":"m 440 -260 l 424 -204 b 388 -227 413 -214 401 -222 b 347 -235 374 -232 360 -235 b 306 -225 332 -235 319 -231 b 288 -186 294 -219 288 -206 b 322 -103 288 -160 299 -132 b 414 -10 345 -73 376 -42 b 635 121 501 6 575 50 l 576 176 b 485 97 553 146 523 119 b 351 63 447 74 402 63 b 269 78 322 63 294 68 b 202 121 243 88 221 102 b 158 186 183 139 168 161 b 142 269 147 211 142 239 b 142 284 142 274 142 279 b 144 300 143 289 144 294 l 682 300 b 692 362 687 319 690 339 b 694 413 694 384 694 401 b 626 596 694 488 672 549 b 424 667 580 643 513 667 b 276 634 371 667 322 656 b 156 547 230 612 190 583 b 76 421 122 511 96 469 b 47 269 57 373 47 322 b 69 149 47 224 55 184 b 131 60 84 113 105 84 b 222 4 156 36 187 17 b 336 -17 257 -9 295 -16 b 289 -55 320 -28 305 -41 b 247 -101 273 -69 259 -85 b 215 -155 234 -118 224 -136 b 203 -214 207 -174 203 -194 b 237 -286 203 -246 214 -270 b 313 -310 259 -302 285 -310 b 378 -297 334 -310 356 -305 b 440 -260 401 -288 422 -275 z m 599 369 l 157 369 b 190 453 163 399 175 427 b 248 524 206 480 225 503 b 326 572 271 544 297 560 b 421 589 355 583 387 589 b 556 541 480 589 525 573 b 601 418 586 509 601 468 b 601 394 601 411 601 403 b 599 369 600 385 600 377 z "},"Ě":{"ha":806,"x_min":0,"x_max":0,"o":"m 169 88 l 238 469 l 707 469 l 722 554 l 253 554 l 313 896 l 804 896 l 819 983 l 229 983 l 56 0 l 682 0 l 697 88 z m 589 1061 l 776 1261 l 681 1261 l 539 1111 l 450 1261 l 363 1261 l 478 1061 z "},"ě":{"ha":786,"x_min":0,"x_max":0,"o":"m 144 300 l 682 300 b 692 362 687 319 690 339 b 694 413 694 384 694 401 b 626 596 694 488 672 549 b 424 667 580 643 513 667 b 276 634 371 667 322 656 b 156 547 230 612 190 583 b 76 421 122 511 96 469 b 47 269 57 373 47 322 b 70 148 47 224 55 184 b 133 58 85 112 106 82 b 226 3 159 34 190 16 b 343 -17 263 -10 301 -17 b 503 18 400 -17 453 -5 b 635 121 553 41 597 75 l 576 176 b 485 97 553 146 523 119 b 351 63 447 74 402 63 b 269 78 322 63 294 68 b 202 121 243 88 221 102 b 158 186 183 139 168 161 b 142 269 147 211 142 239 b 142 284 142 274 142 279 b 144 300 143 289 144 294 z m 599 369 l 157 369 b 190 453 163 399 175 427 b 248 524 206 480 225 503 b 326 572 271 544 297 560 b 421 589 355 583 387 589 b 556 541 480 589 525 573 b 601 418 586 509 601 468 b 601 394 601 411 601 403 b 599 369 600 385 600 377 z m 514 783 l 701 983 l 606 983 l 464 833 l 375 983 l 288 983 l 403 783 z "},"Ĝ":{"ha":1069,"x_min":0,"x_max":0,"o":"m 528 61 b 381 88 472 61 423 70 b 274 162 339 106 303 131 b 208 272 245 193 223 229 b 186 407 194 314 186 359 b 222 599 186 473 198 537 b 320 763 245 661 278 716 b 472 878 362 811 413 849 b 665 922 530 908 595 922 b 753 911 698 922 727 919 b 824 881 780 904 803 894 b 876 839 844 869 861 855 b 908 792 890 823 901 807 l 999 851 b 944 917 985 875 966 897 b 867 966 921 936 895 953 b 773 997 838 979 807 990 b 668 1008 739 1005 704 1008 b 439 960 587 1008 510 992 b 252 830 368 928 305 885 b 126 636 199 775 157 710 b 81 397 96 562 81 482 b 113 225 81 334 91 277 b 203 92 134 173 164 129 b 342 6 242 55 288 26 b 522 -25 397 -15 456 -25 b 714 -3 589 -25 653 -18 b 894 71 775 12 835 37 l 972 514 l 643 514 l 628 429 l 860 429 l 807 128 b 685 79 774 107 733 91 b 528 61 637 67 584 61 z m 893 1061 l 778 1261 l 667 1261 l 479 1061 l 575 1061 l 717 1211 l 806 1061 z "},"ĝ":{"ha":871,"x_min":0,"x_max":0,"o":"m 57 -136 l -6 -203 b 119 -299 26 -244 68 -275 b 293 -333 171 -322 229 -333 b 469 -300 365 -333 424 -322 b 578 -217 515 -278 551 -250 b 639 -107 606 -183 626 -147 b 668 6 652 -67 662 -30 l 782 650 l 690 650 l 669 538 l 667 538 b 629 592 657 558 645 576 b 576 633 613 609 596 622 b 511 658 556 644 534 653 b 442 667 488 664 465 667 b 290 637 387 667 337 657 b 170 555 244 617 204 590 b 91 433 136 520 110 480 b 63 285 72 387 63 337 b 83 172 63 244 69 206 b 140 82 96 138 115 108 b 231 22 165 56 196 36 b 351 0 267 7 307 0 b 490 33 401 0 448 11 b 599 129 533 56 569 88 l 601 129 l 578 6 b 549 -94 571 -30 562 -63 b 496 -176 536 -125 518 -152 b 413 -231 474 -199 446 -218 b 293 -251 379 -245 339 -251 b 155 -219 243 -251 197 -241 b 57 -136 113 -197 80 -169 z m 158 283 b 179 408 158 329 165 370 b 237 505 193 446 212 478 b 326 567 261 531 291 552 b 440 589 360 581 399 589 b 528 572 473 589 502 583 b 594 528 554 561 576 546 b 635 462 612 509 626 487 b 650 381 645 436 650 409 b 629 265 650 340 643 301 b 571 168 615 228 596 196 b 481 102 546 140 516 118 b 367 78 447 86 408 78 b 278 94 333 78 304 83 b 213 138 252 104 230 119 b 172 204 195 157 181 179 b 158 283 163 229 158 256 z m 701 783 l 586 983 l 475 983 l 288 783 l 383 783 l 525 933 l 614 783 z "},"Ğ":{"ha":1069,"x_min":0,"x_max":0,"o":"m 528 61 b 381 88 472 61 423 70 b 274 162 339 106 303 131 b 208 272 245 193 223 229 b 186 407 194 314 186 359 b 222 599 186 473 198 537 b 320 763 245 661 278 716 b 472 878 362 811 413 849 b 665 922 530 908 595 922 b 753 911 698 922 727 919 b 824 881 780 904 803 894 b 876 839 844 869 861 855 b 908 792 890 823 901 807 l 999 851 b 944 917 985 875 966 897 b 867 966 921 936 895 953 b 773 997 838 979 807 990 b 668 1008 739 1005 704 1008 b 439 960 587 1008 510 992 b 252 830 368 928 305 885 b 126 636 199 775 157 710 b 81 397 96 562 81 482 b 113 225 81 334 91 277 b 203 92 134 173 164 129 b 342 6 242 55 288 26 b 522 -25 397 -15 456 -25 b 714 -3 589 -25 653 -18 b 894 71 775 12 835 37 l 972 514 l 643 514 l 628 429 l 860 429 l 807 128 b 685 79 774 107 733 91 b 528 61 637 67 584 61 z m 907 1261 l 846 1261 b 788 1180 838 1225 819 1198 b 683 1153 756 1162 721 1153 b 595 1176 648 1153 619 1161 b 560 1261 572 1192 560 1220 l 499 1261 b 547 1124 499 1200 515 1154 b 682 1078 580 1093 625 1078 b 762 1091 710 1078 736 1082 b 830 1128 787 1100 810 1112 b 880 1187 850 1145 866 1164 b 907 1261 893 1209 902 1234 z "},"ğ":{"ha":871,"x_min":0,"x_max":0,"o":"m 57 -136 l -6 -203 b 119 -299 26 -244 68 -275 b 293 -333 171 -322 229 -333 b 469 -300 365 -333 424 -322 b 578 -217 515 -278 551 -250 b 639 -107 606 -183 626 -147 b 668 6 652 -67 662 -30 l 782 650 l 690 650 l 669 538 l 667 538 b 629 592 657 558 645 576 b 576 633 613 609 596 622 b 511 658 556 644 534 653 b 442 667 488 664 465 667 b 290 637 387 667 337 657 b 170 555 244 617 204 590 b 91 433 136 520 110 480 b 63 285 72 387 63 337 b 83 172 63 244 69 206 b 140 82 96 138 115 108 b 231 22 165 56 196 36 b 351 0 267 7 307 0 b 490 33 401 0 448 11 b 599 129 533 56 569 88 l 601 129 l 578 6 b 549 -94 571 -30 562 -63 b 496 -176 536 -125 518 -152 b 413 -231 474 -199 446 -218 b 293 -251 379 -245 339 -251 b 155 -219 243 -251 197 -241 b 57 -136 113 -197 80 -169 z m 158 283 b 179 408 158 329 165 370 b 237 505 193 446 212 478 b 326 567 261 531 291 552 b 440 589 360 581 399 589 b 528 572 473 589 502 583 b 594 528 554 561 576 546 b 635 462 612 509 626 487 b 650 381 645 436 650 409 b 629 265 650 340 643 301 b 571 168 615 228 596 196 b 481 102 546 140 516 118 b 367 78 447 86 408 78 b 278 94 333 78 304 83 b 213 138 252 104 230 119 b 172 204 195 157 181 179 b 158 283 163 229 158 256 z m 719 983 l 658 983 b 600 902 651 947 631 920 b 496 875 569 884 534 875 b 408 899 461 875 431 883 b 372 983 384 914 372 943 l 311 983 b 360 846 311 922 327 876 b 494 800 392 815 437 800 b 574 813 522 800 549 804 b 642 851 600 822 622 834 b 692 909 662 867 679 886 b 719 983 706 932 715 956 z "},"Ġ":{"ha":1069,"x_min":0,"x_max":0,"o":"m 528 61 b 381 88 472 61 423 70 b 274 162 339 106 303 131 b 208 272 245 193 223 229 b 186 407 194 314 186 359 b 222 599 186 473 198 537 b 320 763 245 661 278 716 b 472 878 362 811 413 849 b 665 922 530 908 595 922 b 753 911 698 922 727 919 b 824 881 780 904 803 894 b 876 839 844 869 861 855 b 908 792 890 823 901 807 l 999 851 b 944 917 985 875 966 897 b 867 966 921 936 895 953 b 773 997 838 979 807 990 b 668 1008 739 1005 704 1008 b 439 960 587 1008 510 992 b 252 830 368 928 305 885 b 126 636 199 775 157 710 b 81 397 96 562 81 482 b 113 225 81 334 91 277 b 203 92 134 173 164 129 b 342 6 242 55 288 26 b 522 -25 397 -15 456 -25 b 714 -3 589 -25 653 -18 b 894 71 775 12 835 37 l 972 514 l 643 514 l 628 429 l 860 429 l 807 128 b 685 79 774 107 733 91 b 528 61 637 67 584 61 z m 768 1179 b 750 1226 768 1199 762 1214 b 706 1243 738 1237 723 1243 b 659 1224 688 1243 672 1237 b 639 1175 646 1211 639 1194 b 658 1129 639 1156 645 1140 b 703 1113 670 1118 685 1113 b 749 1132 721 1113 737 1119 b 768 1179 762 1145 768 1161 z "},"ġ":{"ha":871,"x_min":0,"x_max":0,"o":"m 57 -136 l -6 -203 b 119 -299 26 -244 68 -275 b 293 -333 171 -322 229 -333 b 469 -300 365 -333 424 -322 b 578 -217 515 -278 551 -250 b 639 -107 606 -183 626 -147 b 668 6 652 -67 662 -30 l 782 650 l 690 650 l 669 538 l 667 538 b 629 592 657 558 645 576 b 576 633 613 609 596 622 b 511 658 556 644 534 653 b 442 667 488 664 465 667 b 290 637 387 667 337 657 b 170 555 244 617 204 590 b 91 433 136 520 110 480 b 63 285 72 387 63 337 b 83 172 63 244 69 206 b 140 82 96 138 115 108 b 231 22 165 56 196 36 b 351 0 267 7 307 0 b 490 33 401 0 448 11 b 599 129 533 56 569 88 l 601 129 l 578 6 b 549 -94 571 -30 562 -63 b 496 -176 536 -125 518 -152 b 413 -231 474 -199 446 -218 b 293 -251 379 -245 339 -251 b 155 -219 243 -251 197 -241 b 57 -136 113 -197 80 -169 z m 158 283 b 179 408 158 329 165 370 b 237 505 193 446 212 478 b 326 567 261 531 291 552 b 440 589 360 581 399 589 b 528 572 473 589 502 583 b 594 528 554 561 576 546 b 635 462 612 509 626 487 b 650 381 645 436 650 409 b 629 265 650 340 643 301 b 571 168 615 228 596 196 b 481 102 546 140 516 118 b 367 78 447 86 408 78 b 278 94 333 78 304 83 b 213 138 252 104 230 119 b 172 204 195 157 181 179 b 158 283 163 229 158 256 z m 572 901 b 554 948 572 921 566 936 b 510 965 542 959 527 965 b 463 946 492 965 477 959 b 443 897 450 933 443 917 b 462 851 443 878 449 863 b 507 835 474 840 489 835 b 553 854 525 835 541 841 b 572 901 566 867 572 883 z "},"Ģ":{"ha":1069,"x_min":0,"x_max":0,"o":"m 528 61 b 381 88 472 61 423 70 b 274 162 339 106 303 131 b 208 272 245 193 223 229 b 186 407 194 314 186 359 b 222 599 186 473 198 537 b 320 763 245 661 278 716 b 472 878 362 811 413 849 b 665 922 530 908 595 922 b 753 911 698 922 727 919 b 824 881 780 904 803 894 b 876 839 844 869 861 855 b 908 792 890 823 901 807 l 999 851 b 944 917 985 875 966 897 b 867 966 921 936 895 953 b 773 997 838 979 807 990 b 668 1008 739 1005 704 1008 b 439 960 587 1008 510 992 b 252 830 368 928 305 885 b 126 636 199 775 157 710 b 81 397 96 562 81 482 b 113 225 81 334 91 277 b 203 92 134 173 164 129 b 342 6 242 55 288 26 b 522 -25 397 -15 456 -25 b 714 -3 589 -25 653 -18 b 894 71 775 12 835 37 l 972 514 l 643 514 l 628 429 l 860 429 l 807 128 b 685 79 774 107 733 91 b 528 61 637 67 584 61 z m 429 -319 l 589 -62 l 490 -62 l 350 -319 z "},"ģ":{"ha":871,"x_min":0,"x_max":0,"o":"m 57 -136 l -6 -203 b 119 -299 26 -244 68 -275 b 293 -333 171 -322 229 -333 b 469 -300 365 -333 424 -322 b 578 -217 515 -278 551 -250 b 639 -107 606 -183 626 -147 b 668 6 652 -67 662 -30 l 782 650 l 690 650 l 669 538 l 667 538 b 629 592 657 558 645 576 b 576 633 613 609 596 622 b 511 658 556 644 534 653 b 442 667 488 664 465 667 b 290 637 387 667 337 657 b 170 555 244 617 204 590 b 91 433 136 520 110 480 b 63 285 72 387 63 337 b 83 172 63 244 69 206 b 140 82 96 138 115 108 b 231 22 165 56 196 36 b 351 0 267 7 307 0 b 490 33 401 0 448 11 b 599 129 533 56 569 88 l 601 129 l 578 6 b 549 -94 571 -30 562 -63 b 496 -176 536 -125 518 -152 b 413 -231 474 -199 446 -218 b 293 -251 379 -245 339 -251 b 155 -219 243 -251 197 -241 b 57 -136 113 -197 80 -169 z m 158 283 b 179 408 158 329 165 370 b 237 505 193 446 212 478 b 326 567 261 531 291 552 b 440 589 360 581 399 589 b 528 572 473 589 502 583 b 594 528 554 561 576 546 b 635 462 612 509 626 487 b 650 381 645 436 650 409 b 629 265 650 340 643 301 b 571 168 615 228 596 196 b 481 102 546 140 516 118 b 367 78 447 86 408 78 b 278 94 333 78 304 83 b 213 138 252 104 230 119 b 172 204 195 157 181 179 b 158 283 163 229 158 256 z m 569 1040 l 410 783 l 508 783 l 649 1040 z "},"Ĥ":{"ha":983,"x_min":0,"x_max":0,"o":"m 229 983 l 56 0 l 154 0 l 236 467 l 760 467 l 678 0 l 776 0 l 950 983 l 851 983 l 775 556 l 251 556 l 328 983 z m 810 1061 l 694 1261 l 583 1261 l 396 1061 l 492 1061 l 633 1211 l 722 1061 z "},"ĥ":{"ha":801,"x_min":0,"x_max":0,"o":"m 461 667 b 336 633 417 667 375 656 b 242 543 297 611 266 581 l 239 543 l 328 1050 l 235 1050 l 50 0 l 143 0 l 201 333 b 237 447 209 377 221 415 b 293 526 253 478 272 505 b 363 574 314 548 338 563 b 438 589 388 584 413 589 b 552 549 492 589 530 576 b 585 442 574 523 585 487 b 576 360 585 416 582 388 l 513 0 l 606 0 l 676 399 b 681 435 678 412 680 424 b 683 468 683 446 683 457 b 624 613 683 529 664 578 b 461 667 585 649 531 667 z m 494 1106 l 379 1306 l 268 1306 l 81 1106 l 176 1106 l 318 1256 l 407 1106 z "},"Ħ":{"ha":983,"x_min":0,"x_max":0,"o":"m 229 983 l 56 0 l 154 0 l 236 467 l 760 467 l 678 0 l 776 0 l 950 983 l 851 983 l 813 764 l 289 764 l 328 983 z m 775 556 l 251 556 l 276 694 l 800 694 z "},"ħ":{"ha":801,"x_min":0,"x_max":0,"o":"m 201 861 l 125 861 l 114 792 l 189 792 l 50 0 l 143 0 l 201 333 b 237 447 209 377 221 415 b 293 526 253 478 272 505 b 363 574 314 548 338 563 b 438 589 388 584 413 589 b 552 549 492 589 530 576 b 585 442 574 523 585 487 b 576 360 585 416 582 388 l 513 0 l 606 0 l 676 399 b 681 435 678 412 680 424 b 683 468 683 446 683 457 b 624 613 683 529 664 578 b 461 667 585 649 531 667 b 336 633 417 667 375 656 b 242 543 297 611 266 581 l 239 543 l 282 792 l 503 792 l 514 861 l 294 861 l 328 1050 l 235 1050 z "},"Ĩ":{"ha":361,"x_min":0,"x_max":0,"o":"m 154 0 l 328 983 l 229 983 l 56 0 z m 67 1078 l 126 1078 b 156 1126 134 1095 144 1111 b 206 1147 168 1140 184 1147 b 249 1138 220 1147 235 1144 b 293 1115 264 1131 278 1124 b 340 1094 309 1108 325 1101 b 389 1083 356 1087 372 1083 b 444 1096 409 1083 428 1088 b 487 1128 460 1104 474 1115 b 519 1174 499 1142 510 1157 b 543 1228 529 1191 537 1209 l 483 1228 b 453 1180 476 1210 466 1194 b 403 1158 441 1166 424 1158 b 360 1169 389 1158 375 1162 b 315 1190 346 1176 331 1183 b 268 1213 300 1199 284 1206 b 219 1222 252 1219 236 1222 b 164 1210 198 1222 180 1218 b 122 1177 148 1201 134 1191 b 90 1131 109 1164 98 1148 b 67 1078 81 1113 73 1095 z "},"ĩ":{"ha":347,"x_min":0,"x_max":0,"o":"m 144 0 l 260 650 l 167 650 l 51 0 z m 13 800 l 72 800 b 101 848 80 818 89 834 b 151 869 113 862 130 869 b 195 860 166 869 181 866 b 239 838 209 853 224 846 b 286 816 255 830 270 823 b 335 806 302 809 318 806 b 390 818 355 806 373 810 b 433 851 406 826 420 837 b 465 897 445 864 456 879 b 489 950 475 914 482 931 l 429 950 b 399 902 422 932 412 916 b 349 881 387 888 370 881 b 306 891 335 881 321 884 b 261 913 292 898 277 905 b 214 935 245 921 230 928 b 165 944 198 941 182 944 b 110 932 144 944 125 940 b 67 899 94 924 80 913 b 35 853 55 886 44 870 b 13 800 27 835 19 818 z "},"Ī":{"ha":361,"x_min":0,"x_max":0,"o":"m 154 0 l 328 983 l 229 983 l 56 0 z m 483 1111 l 496 1186 l 121 1186 l 108 1111 z "},"ī":{"ha":347,"x_min":0,"x_max":0,"o":"m 144 0 l 260 650 l 167 650 l 51 0 z m 428 833 l 440 908 l 65 908 l 53 833 z "},"Į":{"ha":361,"x_min":0,"x_max":0,"o":"m 167 -260 l 150 -204 b 114 -227 140 -214 128 -222 b 74 -235 100 -232 87 -235 b 33 -225 59 -235 45 -231 b 14 -186 20 -219 14 -206 b 53 -99 14 -159 27 -130 b 153 0 79 -67 112 -34 l 154 0 l 328 983 l 229 983 l 56 0 l 86 0 b 34 -40 69 -11 52 -24 b -17 -90 16 -55 -1 -72 b -56 -148 -32 -108 -45 -127 b -71 -214 -66 -169 -71 -191 b -37 -286 -71 -246 -59 -270 b 39 -310 -14 -302 11 -310 b 105 -297 60 -310 82 -305 b 167 -260 128 -288 148 -275 z "},"į":{"ha":347,"x_min":0,"x_max":0,"o":"m 156 -260 l 139 -204 b 103 -227 129 -214 117 -222 b 63 -235 89 -232 75 -235 b 22 -225 48 -235 34 -231 b 3 -186 9 -219 3 -206 b 42 -99 3 -159 16 -130 b 142 0 68 -67 101 -34 l 144 0 l 260 650 l 167 650 l 51 0 l 75 0 b 23 -40 58 -11 41 -24 b -28 -90 5 -55 -12 -72 b -67 -148 -44 -108 -56 -127 b -82 -214 -77 -169 -82 -191 b -48 -286 -82 -246 -71 -270 b 28 -310 -25 -302 0 -310 b 94 -297 49 -310 71 -305 b 156 -260 116 -288 137 -275 z m 315 901 b 297 948 315 921 309 936 b 253 965 285 959 270 965 b 206 946 235 965 220 959 b 186 897 193 933 186 917 b 205 851 186 878 192 863 b 250 835 217 840 232 835 b 297 854 269 835 284 841 b 315 901 309 867 315 883 z "},"İ":{"ha":361,"x_min":0,"x_max":0,"o":"m 154 0 l 328 983 l 229 983 l 56 0 z m 371 1179 b 353 1226 371 1199 365 1214 b 308 1243 341 1237 326 1243 b 262 1224 291 1243 275 1237 b 242 1175 248 1211 242 1194 b 260 1129 242 1156 248 1140 b 306 1113 273 1118 288 1113 b 352 1132 324 1113 340 1119 b 371 1179 365 1145 371 1161 z "},"ı":{"ha":347,"x_min":0,"x_max":0,"o":"m 144 0 l 260 650 l 167 650 l 51 0 z "},"Ĳ":{"ha":1021,"x_min":0,"x_max":0,"o":"m 154 0 l 328 983 l 229 983 l 56 0 z m 425 194 l 338 167 b 361 93 341 141 349 116 b 409 32 373 70 389 50 b 482 -10 429 14 453 0 b 579 -25 511 -20 543 -25 b 715 5 635 -25 680 -15 b 801 81 750 25 779 50 b 849 181 822 111 838 144 b 872 283 859 217 867 251 l 996 983 l 897 983 l 775 290 b 755 205 769 261 763 232 b 720 132 747 178 735 153 b 663 81 705 111 686 94 b 574 61 639 68 610 61 b 471 100 529 61 495 74 b 425 194 447 126 431 157 z "},"ĳ":{"ha":718,"x_min":0,"x_max":0,"o":"m 144 0 l 260 650 l 167 650 l 51 0 z m 315 901 b 297 948 315 921 309 936 b 253 965 285 959 270 965 b 206 946 235 965 220 959 b 186 897 193 933 186 917 b 205 851 186 878 192 863 b 250 835 217 840 232 835 b 297 854 269 835 284 841 b 315 901 309 867 315 883 z m 232 -244 l 213 -324 b 252 -331 224 -327 237 -330 b 290 -333 267 -333 280 -333 b 382 -316 327 -333 358 -328 b 440 -270 406 -304 425 -289 b 474 -205 455 -251 466 -229 b 493 -129 482 -180 488 -155 l 631 650 l 538 650 l 403 -114 b 390 -170 399 -134 395 -153 b 371 -214 386 -187 379 -202 b 339 -242 363 -226 352 -235 b 290 -253 326 -249 310 -253 b 260 -251 281 -253 271 -252 b 232 -244 250 -249 240 -247 z m 685 901 b 667 948 685 921 679 936 b 622 965 655 959 640 965 b 576 946 605 965 589 959 b 556 897 562 933 556 917 b 574 851 556 878 562 863 b 619 835 587 840 602 835 b 666 854 638 835 653 841 b 685 901 678 867 685 883 z "},"Ĵ":{"ha":669,"x_min":0,"x_max":0,"o":"m 74 194 l -14 167 b 10 93 -10 141 -2 116 b 58 32 22 70 38 50 b 131 -10 78 14 102 0 b 228 -25 159 -20 192 -25 b 364 5 283 -25 329 -15 b 449 81 399 25 428 50 b 497 181 471 111 487 144 b 521 283 507 217 515 251 l 644 983 l 546 983 l 424 290 b 403 205 418 261 411 232 b 369 132 396 178 384 153 b 311 81 353 111 334 94 b 222 61 288 68 258 61 b 119 100 178 61 144 74 b 74 194 95 126 80 157 z m 811 1061 l 696 1261 l 585 1261 l 397 1061 l 493 1061 l 635 1211 l 724 1061 z "},"ĵ":{"ha":349,"x_min":0,"x_max":0,"o":"m -137 -244 l -157 -324 b -117 -331 -146 -327 -133 -330 b -79 -333 -102 -333 -89 -333 b 13 -316 -42 -333 -12 -328 b 71 -270 37 -304 56 -289 b 105 -205 86 -251 97 -229 b 124 -129 113 -180 119 -155 l 261 650 l 168 650 l 33 -114 b 21 -170 30 -134 25 -153 b 1 -214 16 -187 10 -202 b -31 -242 -7 -226 -18 -235 b -79 -253 -44 -249 -60 -253 b -109 -251 -88 -253 -98 -252 b -137 -244 -120 -249 -129 -247 z m 436 783 l 321 983 l 210 983 l 22 783 l 118 783 l 260 933 l 349 783 z "},"Ķ":{"ha":813,"x_min":0,"x_max":0,"o":"m 250 542 l 328 983 l 229 983 l 56 0 l 154 0 l 246 524 l 247 524 l 640 0 l 769 0 l 358 528 l 896 983 l 751 983 l 251 542 z m 290 -319 l 450 -62 l 351 -62 l 211 -319 z "},"ķ":{"ha":676,"x_min":0,"x_max":0,"o":"m 208 357 l 331 1050 l 238 1050 l 53 0 l 147 0 l 206 342 l 210 342 l 492 0 l 614 0 l 317 349 l 674 650 l 544 650 l 213 357 z m 219 -319 l 379 -62 l 281 -62 l 140 -319 z "},"Ĺ":{"ha":708,"x_min":0,"x_max":0,"o":"m 168 88 l 328 983 l 229 983 l 56 0 l 614 0 l 628 88 z m 318 1061 l 538 1261 l 415 1261 l 240 1061 z "},"ĺ":{"ha":350,"x_min":0,"x_max":0,"o":"m 147 0 l 332 1050 l 238 1050 l 53 0 z m 321 1100 l 540 1300 l 418 1300 l 243 1100 z "},"Ļ":{"ha":708,"x_min":0,"x_max":0,"o":"m 168 88 l 328 983 l 229 983 l 56 0 l 614 0 l 628 88 z m 242 -319 l 401 -62 l 303 -62 l 163 -319 z "},"ļ":{"ha":350,"x_min":0,"x_max":0,"o":"m 147 0 l 332 1050 l 238 1050 l 53 0 z m 15 -319 l 175 -62 l 76 -62 l -64 -319 z "},"Ľ":{"ha":708,"x_min":0,"x_max":0,"o":"m 168 88 l 328 983 l 229 983 l 56 0 l 614 0 l 628 88 z m 493 726 l 653 983 l 554 983 l 414 726 z "},"ľ":{"ha":350,"x_min":0,"x_max":0,"o":"m 147 0 l 332 1050 l 238 1050 l 53 0 z m 444 726 l 604 983 l 506 983 l 365 726 z "},"Ŀ":{"ha":708,"x_min":0,"x_max":0,"o":"m 168 88 l 328 983 l 229 983 l 56 0 l 614 0 l 628 88 z m 590 457 b 572 503 590 476 584 492 b 528 521 560 515 545 521 b 481 501 510 521 495 514 b 461 453 468 488 461 472 b 480 407 461 433 467 418 b 525 390 492 396 507 390 b 572 410 544 390 559 397 b 590 457 584 423 590 438 z "},"ŀ":{"ha":433,"x_min":0,"x_max":0,"o":"m 147 0 l 332 1050 l 238 1050 l 53 0 z m 456 457 b 438 503 456 476 450 492 b 393 521 425 515 411 521 b 347 501 375 521 360 514 b 326 453 333 488 326 472 b 345 407 326 433 333 418 b 390 390 358 396 373 390 b 437 410 409 390 424 397 b 456 457 449 423 456 438 z "},"Ł":{"ha":708,"x_min":0,"x_max":0,"o":"m 244 503 l 329 983 l 229 983 l 132 433 l 1 336 l -17 239 l 115 336 l 56 0 l 614 0 l 629 89 l 171 89 l 226 406 l 572 664 l 590 761 z "},"ł":{"ha":350,"x_min":0,"x_max":0,"o":"m 257 636 l 329 1050 l 238 1050 l 151 560 l 19 446 l 1 344 l 133 460 l 53 0 l 144 0 l 239 536 l 372 651 l 390 753 z "},"Ń":{"ha":1042,"x_min":0,"x_max":0,"o":"m 758 140 l 354 983 l 231 983 l 57 0 l 156 0 l 306 854 l 308 854 l 711 0 l 835 0 l 1008 983 l 910 983 l 761 140 z m 628 1061 l 847 1261 l 725 1261 l 550 1061 z "},"ń":{"ha":801,"x_min":0,"x_max":0,"o":"m 250 650 l 160 650 b 151 575 158 628 155 603 b 139 507 147 547 143 525 l 50 0 l 143 0 l 201 333 b 238 447 209 377 221 415 b 295 526 254 478 273 505 b 365 574 317 548 340 563 b 440 589 390 584 415 589 b 553 549 494 589 531 576 b 585 442 574 523 585 487 b 576 360 585 416 582 388 l 513 0 l 606 0 l 676 399 b 681 435 678 412 680 424 b 683 468 683 446 683 457 b 624 613 683 529 664 578 b 460 667 585 649 530 667 b 334 633 415 667 373 655 b 238 539 295 610 263 579 l 235 539 b 243 592 238 553 240 570 b 250 650 246 613 248 632 z m 449 783 l 668 983 l 546 983 l 371 783 z "},"Ņ":{"ha":1042,"x_min":0,"x_max":0,"o":"m 758 140 l 354 983 l 231 983 l 57 0 l 156 0 l 306 854 l 308 854 l 711 0 l 835 0 l 1008 983 l 910 983 l 761 140 z m 353 -319 l 513 -62 l 414 -62 l 274 -319 z "},"ņ":{"ha":801,"x_min":0,"x_max":0,"o":"m 250 650 l 160 650 b 151 575 158 628 155 603 b 139 507 147 547 143 525 l 50 0 l 143 0 l 201 333 b 238 447 209 377 221 415 b 295 526 254 478 273 505 b 365 574 317 548 340 563 b 440 589 390 584 415 589 b 553 549 494 589 531 576 b 585 442 574 523 585 487 b 576 360 585 416 582 388 l 513 0 l 606 0 l 676 399 b 681 435 678 412 680 424 b 683 468 683 446 683 457 b 624 613 683 529 664 578 b 460 667 585 649 530 667 b 334 633 415 667 373 655 b 238 539 295 610 263 579 l 235 539 b 243 592 238 553 240 570 b 250 650 246 613 248 632 z m 235 -319 l 394 -62 l 296 -62 l 156 -319 z "},"Ň":{"ha":1042,"x_min":0,"x_max":0,"o":"m 758 140 l 354 983 l 231 983 l 57 0 l 156 0 l 306 854 l 308 854 l 711 0 l 835 0 l 1008 983 l 910 983 l 761 140 z m 676 1061 l 864 1261 l 768 1261 l 626 1111 l 538 1261 l 450 1261 l 565 1061 z "},"ň":{"ha":801,"x_min":0,"x_max":0,"o":"m 250 650 l 160 650 b 151 575 158 628 155 603 b 139 507 147 547 143 525 l 50 0 l 143 0 l 201 333 b 238 447 209 377 221 415 b 295 526 254 478 273 505 b 365 574 317 548 340 563 b 440 589 390 584 415 589 b 553 549 494 589 531 576 b 585 442 574 523 585 487 b 576 360 585 416 582 388 l 513 0 l 606 0 l 676 399 b 681 435 678 412 680 424 b 683 468 683 446 683 457 b 624 613 683 529 664 578 b 460 667 585 649 530 667 b 334 633 415 667 373 655 b 238 539 295 610 263 579 l 235 539 b 243 592 238 553 240 570 b 250 650 246 613 248 632 z m 501 783 l 689 983 l 593 983 l 451 833 l 363 983 l 275 983 l 390 783 z "},"ŉ":{"ha":801,"x_min":0,"x_max":0,"o":"m 250 650 l 160 650 b 151 575 158 628 155 603 b 139 507 147 547 143 525 l 50 0 l 143 0 l 201 333 b 238 447 209 377 221 415 b 295 526 254 478 273 505 b 365 574 317 548 340 563 b 440 589 390 584 415 589 b 553 549 494 589 531 576 b 585 442 574 523 585 487 b 576 360 585 416 582 388 l 513 0 l 606 0 l 676 399 b 681 435 678 412 680 424 b 683 468 683 446 683 457 b 624 613 683 529 664 578 b 460 667 585 649 530 667 b 334 633 415 667 373 655 b 238 539 295 610 263 579 l 235 539 b 243 592 238 553 240 570 b 250 650 246 613 248 632 z m 175 726 l 335 983 l 236 983 l 96 726 z "},"Ō":{"ha":1158,"x_min":0,"x_max":0,"o":"m 518 -25 b 747 24 600 -25 677 -9 b 929 156 818 56 878 100 b 1049 351 980 211 1020 276 b 1092 589 1077 425 1092 505 b 1059 760 1092 652 1081 709 b 969 893 1037 812 1007 856 b 831 978 930 930 884 959 b 654 1008 777 998 718 1008 b 428 960 574 1008 498 992 b 247 830 359 928 298 885 b 125 635 195 775 155 710 b 81 397 95 561 81 481 b 113 225 81 334 91 277 b 203 92 134 173 164 129 b 342 6 242 55 288 26 b 518 -25 395 -15 454 -25 z m 986 579 b 952 385 986 513 975 448 b 857 219 929 323 898 268 b 710 104 816 171 767 133 b 522 61 653 75 591 61 b 378 88 468 61 419 70 b 272 162 336 106 301 131 b 208 272 244 193 222 229 b 186 406 193 314 186 358 b 219 597 186 471 197 535 b 313 763 242 659 273 714 b 460 878 353 811 402 849 b 650 922 517 908 581 922 b 794 895 704 922 752 913 b 899 822 836 877 871 853 b 964 713 928 791 949 754 b 986 579 979 671 986 626 z m 874 1111 l 886 1186 l 511 1186 l 499 1111 z "},"ō":{"ha":828,"x_min":0,"x_max":0,"o":"m 347 -17 b 503 15 404 -17 456 -6 b 625 101 550 37 591 65 b 705 229 659 137 686 180 b 733 386 724 278 733 331 b 711 500 733 428 726 466 b 649 589 696 534 676 564 b 555 647 623 614 591 633 b 433 667 518 660 478 667 b 278 635 377 667 325 656 b 156 548 231 613 190 584 b 76 420 121 511 95 469 b 47 265 57 372 47 320 b 69 151 47 224 55 185 b 131 62 84 116 105 86 b 226 4 158 37 189 18 b 347 -17 263 -10 304 -17 z m 636 381 b 615 258 636 337 629 296 b 557 157 601 219 582 186 b 467 88 532 128 502 105 b 353 63 433 71 394 63 b 266 78 320 63 291 68 b 201 122 241 89 219 104 b 160 188 183 141 169 163 b 146 271 150 214 146 241 b 167 392 146 313 153 354 b 226 494 182 431 201 465 b 315 563 251 523 281 546 b 428 589 350 580 387 589 b 515 573 460 589 489 584 b 581 529 541 562 563 548 b 622 463 599 511 613 489 b 636 381 631 438 636 410 z m 665 833 l 678 908 l 303 908 l 290 833 z "},"Ŏ":{"ha":1158,"x_min":0,"x_max":0,"o":"m 518 -25 b 747 24 600 -25 677 -9 b 929 156 818 56 878 100 b 1049 351 980 211 1020 276 b 1092 589 1077 425 1092 505 b 1059 760 1092 652 1081 709 b 969 893 1037 812 1007 856 b 831 978 930 930 884 959 b 654 1008 777 998 718 1008 b 428 960 574 1008 498 992 b 247 830 359 928 298 885 b 125 635 195 775 155 710 b 81 397 95 561 81 481 b 113 225 81 334 91 277 b 203 92 134 173 164 129 b 342 6 242 55 288 26 b 518 -25 395 -15 454 -25 z m 986 579 b 952 385 986 513 975 448 b 857 219 929 323 898 268 b 710 104 816 171 767 133 b 522 61 653 75 591 61 b 378 88 468 61 419 70 b 272 162 336 106 301 131 b 208 272 244 193 222 229 b 186 406 193 314 186 358 b 219 597 186 471 197 535 b 313 763 242 659 273 714 b 460 878 353 811 402 849 b 650 922 517 908 581 922 b 794 895 704 922 752 913 b 899 822 836 877 871 853 b 964 713 928 791 949 754 b 986 579 979 671 986 626 z m 899 1261 l 838 1261 b 779 1180 830 1225 811 1198 b 675 1153 748 1162 713 1153 b 587 1176 640 1153 610 1161 b 551 1261 563 1192 551 1220 l 490 1261 b 539 1124 490 1200 506 1154 b 674 1078 571 1093 616 1078 b 753 1091 701 1078 728 1082 b 822 1128 779 1100 802 1112 b 872 1187 841 1145 858 1164 b 899 1261 885 1209 894 1234 z "},"ŏ":{"ha":828,"x_min":0,"x_max":0,"o":"m 347 -17 b 503 15 404 -17 456 -6 b 625 101 550 37 591 65 b 705 229 659 137 686 180 b 733 386 724 278 733 331 b 711 500 733 428 726 466 b 649 589 696 534 676 564 b 555 647 623 614 591 633 b 433 667 518 660 478 667 b 278 635 377 667 325 656 b 156 548 231 613 190 584 b 76 420 121 511 95 469 b 47 265 57 372 47 320 b 69 151 47 224 55 185 b 131 62 84 116 105 86 b 226 4 158 37 189 18 b 347 -17 263 -10 304 -17 z m 636 381 b 615 258 636 337 629 296 b 557 157 601 219 582 186 b 467 88 532 128 502 105 b 353 63 433 71 394 63 b 266 78 320 63 291 68 b 201 122 241 89 219 104 b 160 188 183 141 169 163 b 146 271 150 214 146 241 b 167 392 146 313 153 354 b 226 494 182 431 201 465 b 315 563 251 523 281 546 b 428 589 350 580 387 589 b 515 573 460 589 489 584 b 581 529 541 562 563 548 b 622 463 599 511 613 489 b 636 381 631 438 636 410 z m 689 983 l 628 983 b 569 902 620 947 601 920 b 465 875 538 884 503 875 b 377 899 430 875 401 883 b 342 983 353 914 342 943 l 281 983 b 329 846 281 922 297 876 b 464 800 362 815 406 800 b 544 813 492 800 518 804 b 612 851 569 822 592 834 b 662 909 632 867 648 886 b 689 983 675 932 684 956 z "},"Ő":{"ha":1158,"x_min":0,"x_max":0,"o":"m 518 -25 b 747 24 600 -25 677 -9 b 929 156 818 56 878 100 b 1049 351 980 211 1020 276 b 1092 589 1077 425 1092 505 b 1059 760 1092 652 1081 709 b 969 893 1037 812 1007 856 b 831 978 930 930 884 959 b 654 1008 777 998 718 1008 b 428 960 574 1008 498 992 b 247 830 359 928 298 885 b 125 635 195 775 155 710 b 81 397 95 561 81 481 b 113 225 81 334 91 277 b 203 92 134 173 164 129 b 342 6 242 55 288 26 b 518 -25 395 -15 454 -25 z m 986 579 b 952 385 986 513 975 448 b 857 219 929 323 898 268 b 710 104 816 171 767 133 b 522 61 653 75 591 61 b 378 88 468 61 419 70 b 272 162 336 106 301 131 b 208 272 244 193 222 229 b 186 406 193 314 186 358 b 219 597 186 471 197 535 b 313 763 242 659 273 714 b 460 878 353 811 402 849 b 650 922 517 908 581 922 b 794 895 704 922 752 913 b 899 822 836 877 871 853 b 964 713 928 791 949 754 b 986 579 979 671 986 626 z m 579 1061 l 800 1261 l 674 1261 l 497 1061 z m 817 1061 l 1036 1261 l 910 1261 l 735 1061 z "},"ő":{"ha":828,"x_min":0,"x_max":0,"o":"m 347 -17 b 503 15 404 -17 456 -6 b 625 101 550 37 591 65 b 705 229 659 137 686 180 b 733 386 724 278 733 331 b 711 500 733 428 726 466 b 649 589 696 534 676 564 b 555 647 623 614 591 633 b 433 667 518 660 478 667 b 278 635 377 667 325 656 b 156 548 231 613 190 584 b 76 420 121 511 95 469 b 47 265 57 372 47 320 b 69 151 47 224 55 185 b 131 62 84 116 105 86 b 226 4 158 37 189 18 b 347 -17 263 -10 304 -17 z m 636 381 b 615 258 636 337 629 296 b 557 157 601 219 582 186 b 467 88 532 128 502 105 b 353 63 433 71 394 63 b 266 78 320 63 291 68 b 201 122 241 89 219 104 b 160 188 183 141 169 163 b 146 271 150 214 146 241 b 167 392 146 313 153 354 b 226 494 182 431 201 465 b 315 563 251 523 281 546 b 428 589 350 580 387 589 b 515 573 460 589 489 584 b 581 529 541 562 563 548 b 622 463 599 511 613 489 b 636 381 631 438 636 410 z m 369 783 l 590 983 l 464 983 l 288 783 z m 607 783 l 826 983 l 700 983 l 525 783 z "},"Ŕ":{"ha":832,"x_min":0,"x_max":0,"o":"m 154 0 l 235 460 l 408 460 l 614 0 l 726 0 l 510 468 b 622 493 550 472 587 480 b 715 547 657 506 688 524 b 776 631 741 569 762 597 b 799 749 791 664 799 703 b 776 853 799 788 791 823 b 712 926 760 882 739 907 b 615 969 684 946 652 960 b 494 983 578 979 538 983 l 229 983 l 56 0 z m 250 543 l 313 899 l 479 899 b 640 858 548 899 601 885 b 699 738 679 831 699 791 b 674 638 699 697 691 664 b 611 579 658 613 637 593 b 524 551 585 565 556 556 b 425 543 491 546 458 543 z m 504 1061 l 724 1261 l 601 1261 l 426 1061 z "},"ŕ":{"ha":483,"x_min":0,"x_max":0,"o":"m 139 507 l 50 0 l 143 0 l 201 333 b 235 445 209 377 220 414 b 288 522 251 476 268 502 b 354 565 308 541 330 556 b 428 579 378 575 403 579 b 466 576 441 579 453 578 b 492 571 478 575 487 573 l 514 660 b 485 665 504 663 494 664 b 453 667 475 666 465 667 b 328 631 406 667 365 655 b 236 539 291 608 260 577 l 233 539 b 242 592 236 553 239 570 b 249 650 244 613 247 632 l 160 650 b 151 575 158 628 155 603 b 139 507 147 547 143 525 z m 283 783 l 503 983 l 381 983 l 206 783 z "},"Ŗ":{"ha":832,"x_min":0,"x_max":0,"o":"m 154 0 l 235 460 l 408 460 l 614 0 l 726 0 l 510 468 b 622 493 550 472 587 480 b 715 547 657 506 688 524 b 776 631 741 569 762 597 b 799 749 791 664 799 703 b 776 853 799 788 791 823 b 712 926 760 882 739 907 b 615 969 684 946 652 960 b 494 983 578 979 538 983 l 229 983 l 56 0 z m 250 543 l 313 899 l 479 899 b 640 858 548 899 601 885 b 699 738 679 831 699 791 b 674 638 699 697 691 664 b 611 579 658 613 637 593 b 524 551 585 565 556 556 b 425 543 491 546 458 543 z m 272 -319 l 432 -62 l 333 -62 l 193 -319 z "},"ŗ":{"ha":483,"x_min":0,"x_max":0,"o":"m 139 507 l 50 0 l 143 0 l 201 333 b 235 445 209 377 220 414 b 288 522 251 476 268 502 b 354 565 308 541 330 556 b 428 579 378 575 403 579 b 466 576 441 579 453 578 b 492 571 478 575 487 573 l 514 660 b 485 665 504 663 494 664 b 453 667 475 666 465 667 b 328 631 406 667 365 655 b 236 539 291 608 260 577 l 233 539 b 242 592 236 553 239 570 b 249 650 244 613 247 632 l 160 650 b 151 575 158 628 155 603 b 139 507 147 547 143 525 z m 11 -321 l 171 -64 l 72 -64 l -68 -321 z "},"Ř":{"ha":832,"x_min":0,"x_max":0,"o":"m 154 0 l 235 460 l 408 460 l 614 0 l 726 0 l 510 468 b 622 493 550 472 587 480 b 715 547 657 506 688 524 b 776 631 741 569 762 597 b 799 749 791 664 799 703 b 776 853 799 788 791 823 b 712 926 760 882 739 907 b 615 969 684 946 652 960 b 494 983 578 979 538 983 l 229 983 l 56 0 z m 250 543 l 313 899 l 479 899 b 640 858 548 899 601 885 b 699 738 679 831 699 791 b 674 638 699 697 691 664 b 611 579 658 613 637 593 b 524 551 585 565 556 556 b 425 543 491 546 458 543 z m 547 1061 l 735 1261 l 639 1261 l 497 1111 l 408 1261 l 321 1261 l 436 1061 z "},"ř":{"ha":483,"x_min":0,"x_max":0,"o":"m 139 507 l 50 0 l 143 0 l 201 333 b 235 445 209 377 220 414 b 288 522 251 476 268 502 b 354 565 308 541 330 556 b 428 579 378 575 403 579 b 466 576 441 579 453 578 b 492 571 478 575 487 573 l 514 660 b 485 665 504 663 494 664 b 453 667 475 666 465 667 b 328 631 406 667 365 655 b 236 539 291 608 260 577 l 233 539 b 242 592 236 553 239 570 b 249 650 244 613 247 632 l 160 650 b 151 575 158 628 155 603 b 139 507 147 547 143 525 z m 397 783 l 585 983 l 489 983 l 347 833 l 258 983 l 171 983 l 286 783 z "},"Ś":{"ha":783,"x_min":0,"x_max":0,"o":"m 682 831 l 767 892 b 665 976 745 926 711 954 b 494 1008 618 997 561 1008 b 346 985 439 1008 389 1001 b 236 923 302 970 266 949 b 168 829 206 897 184 865 b 144 713 152 793 144 754 b 163 620 144 677 151 647 b 213 551 176 594 192 571 b 283 501 233 532 256 515 b 365 465 310 488 338 475 b 444 433 393 455 419 444 b 509 394 468 422 490 409 b 554 342 528 380 543 362 b 571 269 565 321 571 297 b 551 183 571 238 564 209 b 498 117 538 157 521 135 b 419 76 475 99 449 85 b 324 61 389 66 357 61 b 190 95 272 61 227 72 b 107 178 153 118 125 145 l 18 121 b 146 12 48 73 90 36 b 319 -25 201 -13 259 -25 b 488 5 386 -25 442 -15 b 597 81 533 25 569 50 b 657 183 625 112 645 146 b 675 288 669 219 675 254 b 653 384 675 325 668 357 b 594 456 638 411 619 435 b 514 507 570 476 544 493 b 426 544 484 521 455 533 b 356 574 401 554 378 563 b 299 610 334 584 316 596 b 261 658 283 624 270 640 b 247 725 252 677 247 699 b 269 813 247 759 254 789 b 325 874 283 838 302 858 b 403 910 348 891 374 903 b 489 922 431 918 460 922 b 606 896 533 922 572 913 b 682 831 639 878 664 856 z m 499 1061 l 718 1261 l 596 1261 l 421 1061 z "},"ś":{"ha":617,"x_min":0,"x_max":0,"o":"m 492 507 l 565 560 b 480 638 548 592 519 618 b 346 667 441 657 396 667 b 257 656 316 667 287 663 b 177 622 227 648 201 637 b 119 563 153 606 134 587 b 96 476 103 538 96 510 b 110 408 96 450 101 427 b 149 359 120 389 133 372 b 201 326 164 346 182 335 b 260 304 221 318 240 311 b 377 252 311 288 350 270 b 418 174 404 234 418 208 b 404 123 418 154 413 137 b 367 88 395 109 383 97 b 315 69 352 79 335 73 b 256 63 296 65 276 63 b 146 91 214 63 177 72 b 75 160 114 110 91 133 l -6 107 b 106 14 21 65 59 34 b 260 -17 154 -6 205 -17 b 347 -6 288 -17 318 -13 b 428 30 377 2 404 14 b 488 92 452 46 472 67 b 511 183 503 118 511 148 b 461 303 511 235 494 275 b 315 374 428 332 379 355 b 261 391 295 379 277 385 b 221 412 245 397 232 404 b 195 440 210 420 201 429 b 186 483 189 451 186 466 b 201 533 186 503 191 519 b 238 565 210 546 223 557 b 288 583 253 574 270 580 b 340 589 306 587 324 589 b 433 566 376 589 407 581 b 492 507 459 551 479 531 z m 378 783 l 597 983 l 475 983 l 300 783 z "},"Ŝ":{"ha":783,"x_min":0,"x_max":0,"o":"m 682 831 l 767 892 b 665 976 745 926 711 954 b 494 1008 618 997 561 1008 b 346 985 439 1008 389 1001 b 236 923 302 970 266 949 b 168 829 206 897 184 865 b 144 713 152 793 144 754 b 163 620 144 677 151 647 b 213 551 176 594 192 571 b 283 501 233 532 256 515 b 365 465 310 488 338 475 b 444 433 393 455 419 444 b 509 394 468 422 490 409 b 554 342 528 380 543 362 b 571 269 565 321 571 297 b 551 183 571 238 564 209 b 498 117 538 157 521 135 b 419 76 475 99 449 85 b 324 61 389 66 357 61 b 190 95 272 61 227 72 b 107 178 153 118 125 145 l 18 121 b 146 12 48 73 90 36 b 319 -25 201 -13 259 -25 b 488 5 386 -25 442 -15 b 597 81 533 25 569 50 b 657 183 625 112 645 146 b 675 288 669 219 675 254 b 653 384 675 325 668 357 b 594 456 638 411 619 435 b 514 507 570 476 544 493 b 426 544 484 521 455 533 b 356 574 401 554 378 563 b 299 610 334 584 316 596 b 261 658 283 624 270 640 b 247 725 252 677 247 699 b 269 813 247 759 254 789 b 325 874 283 838 302 858 b 403 910 348 891 374 903 b 489 922 431 918 460 922 b 606 896 533 922 572 913 b 682 831 639 878 664 856 z m 718 1061 l 603 1261 l 492 1261 l 304 1061 l 400 1061 l 542 1211 l 631 1061 z "},"ŝ":{"ha":617,"x_min":0,"x_max":0,"o":"m 492 507 l 565 560 b 480 638 548 592 519 618 b 346 667 441 657 396 667 b 257 656 316 667 287 663 b 177 622 227 648 201 637 b 119 563 153 606 134 587 b 96 476 103 538 96 510 b 110 408 96 450 101 427 b 149 359 120 389 133 372 b 201 326 164 346 182 335 b 260 304 221 318 240 311 b 377 252 311 288 350 270 b 418 174 404 234 418 208 b 404 123 418 154 413 137 b 367 88 395 109 383 97 b 315 69 352 79 335 73 b 256 63 296 65 276 63 b 146 91 214 63 177 72 b 75 160 114 110 91 133 l -6 107 b 106 14 21 65 59 34 b 260 -17 154 -6 205 -17 b 347 -6 288 -17 318 -13 b 428 30 377 2 404 14 b 488 92 452 46 472 67 b 511 183 503 118 511 148 b 461 303 511 235 494 275 b 315 374 428 332 379 355 b 261 391 295 379 277 385 b 221 412 245 397 232 404 b 195 440 210 420 201 429 b 186 483 189 451 186 466 b 201 533 186 503 191 519 b 238 565 210 546 223 557 b 288 583 253 574 270 580 b 340 589 306 587 324 589 b 433 566 376 589 407 581 b 492 507 459 551 479 531 z m 588 783 l 472 983 l 361 983 l 174 783 l 269 783 l 411 933 l 500 783 z "},"Ş":{"ha":783,"x_min":0,"x_max":0,"o":"m 682 831 l 767 892 b 665 976 745 926 711 954 b 494 1008 618 997 561 1008 b 346 985 439 1008 389 1001 b 236 923 302 970 266 949 b 168 829 206 897 184 865 b 144 713 152 793 144 754 b 163 620 144 677 151 647 b 213 551 176 594 192 571 b 283 501 233 532 256 515 b 365 465 310 488 338 475 b 444 433 393 455 419 444 b 509 394 468 422 490 409 b 554 342 528 380 543 362 b 571 269 565 321 571 297 b 551 183 571 238 564 209 b 498 117 538 157 521 135 b 419 76 475 99 449 85 b 324 61 389 66 357 61 b 190 95 272 61 227 72 b 107 178 153 118 125 145 l 18 121 b 69 61 32 99 49 79 b 135 17 89 44 111 29 b 213 -12 159 5 185 -5 b 296 -24 240 -19 268 -23 l 206 -136 l 226 -157 b 288 -146 247 -150 267 -146 b 337 -158 307 -146 323 -150 b 357 -199 350 -167 357 -180 b 349 -228 357 -211 354 -221 b 326 -248 343 -236 336 -243 b 297 -258 317 -253 307 -256 b 265 -261 286 -260 275 -261 b 212 -257 248 -261 230 -260 b 163 -242 194 -254 177 -249 l 136 -292 b 203 -312 155 -301 177 -308 b 271 -319 230 -317 252 -319 b 326 -312 288 -319 307 -317 b 381 -291 346 -308 364 -301 b 422 -252 397 -281 411 -268 b 438 -192 432 -236 438 -216 b 428 -148 438 -174 434 -159 b 403 -119 421 -136 413 -127 b 370 -103 394 -112 383 -107 b 335 -99 358 -100 346 -99 b 313 -100 327 -99 320 -99 b 292 -104 306 -101 299 -102 l 356 -24 b 507 14 416 -20 466 -7 b 606 90 548 35 581 61 b 659 187 631 120 648 152 b 675 288 670 222 675 255 b 653 384 675 325 668 357 b 594 456 638 411 619 435 b 514 507 570 476 544 493 b 426 544 484 521 455 533 b 356 574 401 554 378 563 b 299 610 334 584 316 596 b 261 658 283 624 270 640 b 247 725 252 677 247 699 b 269 813 247 759 254 789 b 325 874 283 838 302 858 b 403 910 348 891 374 903 b 489 922 431 918 460 922 b 606 896 533 922 572 913 b 682 831 639 878 664 856 z "},"ş":{"ha":617,"x_min":0,"x_max":0,"o":"m 492 507 l 565 560 b 480 638 548 592 519 618 b 346 667 441 657 396 667 b 257 656 316 667 287 663 b 177 622 227 648 201 637 b 119 563 153 606 134 587 b 96 476 103 538 96 510 b 110 408 96 450 101 427 b 149 359 120 389 133 372 b 201 326 164 346 182 335 b 260 304 221 318 240 311 b 377 252 311 288 350 270 b 418 174 404 234 418 208 b 404 123 418 154 413 137 b 367 88 395 109 383 97 b 315 69 352 79 335 73 b 256 63 296 65 276 63 b 146 91 214 63 177 72 b 75 160 114 110 91 133 l -6 107 b 96 19 19 68 53 39 b 235 -15 138 -1 185 -12 l 139 -136 l 160 -157 b 221 -146 180 -150 200 -146 b 270 -158 240 -146 257 -150 b 290 -199 284 -167 290 -180 b 282 -228 290 -211 288 -221 b 260 -248 276 -236 269 -243 b 230 -258 250 -253 241 -256 b 199 -261 219 -260 209 -261 b 145 -257 181 -261 163 -260 b 96 -242 127 -254 111 -249 l 69 -292 b 137 -312 88 -301 110 -308 b 204 -319 163 -317 186 -319 b 260 -312 222 -319 240 -317 b 314 -291 279 -308 297 -301 b 355 -252 331 -281 344 -268 b 371 -192 366 -236 371 -216 b 361 -148 371 -174 368 -159 b 337 -119 355 -136 347 -127 b 303 -103 327 -112 316 -107 b 268 -99 291 -100 279 -99 b 247 -100 261 -99 253 -99 b 225 -104 240 -101 232 -102 l 296 -14 b 374 4 322 -11 348 -5 b 443 42 400 13 423 26 b 492 101 463 57 480 77 b 511 183 505 124 511 152 b 461 303 511 235 494 275 b 315 374 428 332 379 355 b 261 391 295 379 277 385 b 221 412 245 397 232 404 b 195 440 210 420 201 429 b 186 483 189 451 186 466 b 201 533 186 503 191 519 b 238 565 210 546 223 557 b 288 583 253 574 270 580 b 340 589 306 587 324 589 b 433 566 376 589 407 581 b 492 507 459 551 479 531 z "},"Ţ":{"ha":760,"x_min":0,"x_max":0,"o":"m 347 0 l 506 896 l 836 896 l 851 983 l 93 983 l 78 896 l 407 896 l 249 0 l 276 0 l 167 -136 l 188 -157 b 249 -146 208 -150 228 -146 b 298 -158 268 -146 284 -150 b 318 -199 311 -167 318 -180 b 310 -228 318 -211 315 -221 b 288 -248 304 -236 297 -243 b 258 -258 278 -253 268 -256 b 226 -261 247 -260 237 -261 b 173 -257 209 -261 191 -260 b 124 -242 155 -254 138 -249 l 97 -292 b 165 -312 116 -301 138 -308 b 232 -319 191 -317 213 -319 b 288 -312 250 -319 268 -317 b 342 -291 307 -308 325 -301 b 383 -252 358 -281 372 -268 b 399 -192 393 -236 399 -216 b 389 -148 399 -174 395 -159 b 365 -119 382 -136 374 -127 b 331 -103 355 -112 344 -107 b 296 -99 319 -100 307 -99 b 274 -100 288 -99 281 -99 b 253 -104 267 -101 260 -102 l 336 0 z "},"ţ":{"ha":426,"x_min":0,"x_max":0,"o":"m 421 572 l 436 650 l 257 650 l 289 833 l 196 833 l 164 650 l 32 650 l 17 572 l 151 572 l 79 165 b 75 121 76 149 75 134 b 84 66 75 100 78 81 b 108 28 90 51 98 38 b 142 6 117 19 129 11 b 181 -6 155 0 168 -4 l 76 -136 l 97 -157 b 158 -146 118 -150 138 -146 b 208 -158 178 -146 194 -150 b 228 -199 221 -167 228 -180 b 219 -228 228 -211 225 -221 b 197 -248 214 -236 206 -243 b 167 -258 188 -253 178 -256 b 136 -261 157 -260 146 -261 b 83 -257 119 -261 101 -260 b 33 -242 65 -254 48 -249 l 7 -292 b 74 -312 25 -301 48 -308 b 142 -319 101 -317 123 -319 b 197 -312 159 -319 178 -317 b 251 -291 217 -308 235 -301 b 292 -252 268 -281 282 -268 b 308 -192 303 -236 308 -216 b 299 -148 308 -174 305 -159 b 274 -119 292 -136 284 -127 b 241 -103 265 -112 253 -107 b 206 -99 228 -100 217 -99 b 184 -100 198 -99 191 -99 b 163 -104 177 -101 170 -102 l 239 -7 b 321 11 272 -6 300 0 l 332 92 b 296 76 324 85 312 80 b 253 71 280 73 266 71 b 194 86 229 71 209 76 b 172 147 180 96 172 117 b 176 192 172 160 174 175 l 244 572 z "},"Ť":{"ha":760,"x_min":0,"x_max":0,"o":"m 347 0 l 506 896 l 836 896 l 851 983 l 93 983 l 78 896 l 407 896 l 249 0 z m 538 1061 l 725 1261 l 629 1261 l 488 1111 l 399 1261 l 311 1261 l 426 1061 z "},"ť":{"ha":426,"x_min":0,"x_max":0,"o":"m 421 572 l 436 650 l 257 650 l 289 833 l 196 833 l 164 650 l 32 650 l 17 572 l 151 572 l 79 165 b 75 121 76 149 75 134 b 88 57 75 95 79 74 b 122 17 97 40 108 27 b 166 -3 135 8 150 1 b 214 -8 182 -6 198 -8 b 274 -3 235 -8 255 -7 b 321 11 293 0 309 5 l 332 92 b 296 76 324 85 312 80 b 253 71 280 73 266 71 b 194 86 229 71 209 76 b 172 147 180 96 172 117 b 176 192 172 160 174 175 l 244 572 z m 446 758 l 606 1015 l 507 1015 l 367 758 z "},"Ŧ":{"ha":775,"x_min":0,"x_max":0,"o":"m 389 754 l 153 754 l 142 685 l 376 685 l 256 0 l 354 0 l 475 685 l 717 685 l 728 754 l 488 754 l 513 896 l 843 896 l 858 983 l 100 983 l 85 896 l 414 896 z "},"ŧ":{"ha":426,"x_min":0,"x_max":0,"o":"m 126 436 l 22 436 l 11 367 l 114 367 l 79 165 b 75 121 76 149 75 134 b 88 57 75 95 79 74 b 122 17 97 40 108 27 b 166 -3 135 8 150 1 b 214 -8 182 -6 198 -8 b 274 -3 235 -8 255 -7 b 321 11 293 0 309 5 l 332 92 b 296 76 324 85 312 80 b 253 71 280 73 266 71 b 194 86 229 71 209 76 b 172 147 180 96 172 117 b 176 192 172 160 174 175 l 207 367 l 367 367 l 378 436 l 219 436 l 244 572 l 421 572 l 436 650 l 257 650 l 289 833 l 196 833 l 164 650 l 32 650 l 17 572 l 151 572 z "},"Ũ":{"ha":986,"x_min":0,"x_max":0,"o":"m 432 -25 b 617 13 505 -25 567 -12 b 740 110 667 39 708 71 b 813 237 772 149 796 191 b 850 367 830 283 843 326 l 958 983 l 860 983 l 753 378 b 720 258 745 336 734 296 b 662 156 706 219 686 185 b 570 87 637 127 607 104 b 438 61 534 70 489 61 b 328 80 394 61 358 67 b 258 131 299 92 276 109 b 219 204 240 152 227 176 b 207 293 211 232 207 262 b 215 378 207 320 210 348 l 322 983 l 224 983 l 115 367 b 107 274 110 337 107 306 b 124 166 107 238 113 202 b 181 70 136 130 155 98 b 281 1 206 42 240 19 b 432 -25 322 -16 373 -25 z m 382 1078 l 442 1078 b 471 1126 449 1095 459 1111 b 521 1147 483 1140 500 1147 b 565 1138 536 1147 550 1144 b 608 1115 579 1131 594 1124 b 656 1094 624 1108 640 1101 b 704 1083 671 1087 688 1083 b 759 1096 725 1083 743 1088 b 802 1128 775 1104 790 1115 b 835 1174 815 1142 825 1157 b 858 1228 844 1191 852 1209 l 799 1228 b 769 1180 791 1210 781 1194 b 718 1158 756 1166 739 1158 b 676 1169 704 1158 690 1162 b 631 1190 661 1176 646 1183 b 583 1213 615 1199 599 1206 b 535 1222 568 1219 551 1222 b 479 1210 513 1222 495 1218 b 437 1177 463 1201 449 1191 b 405 1131 424 1164 414 1148 b 382 1078 396 1113 388 1095 z "},"ũ":{"ha":801,"x_min":0,"x_max":0,"o":"m 506 0 l 596 0 b 605 75 598 22 601 47 b 617 143 609 103 613 125 l 706 650 l 613 650 l 554 317 b 518 203 547 273 535 235 b 460 124 501 172 482 145 b 390 78 439 103 415 88 b 315 63 365 68 340 63 b 203 101 262 62 224 75 b 171 208 181 127 171 163 b 179 290 171 233 174 261 l 243 650 l 150 650 l 79 251 b 74 215 77 238 76 226 b 72 182 73 204 72 193 b 131 37 72 121 92 72 b 296 -17 171 1 225 -17 b 422 17 340 -17 382 -5 b 518 111 461 40 493 71 l 521 111 b 513 58 518 97 515 80 b 506 0 510 37 507 18 z m 229 800 l 289 800 b 318 848 296 818 306 834 b 368 869 330 862 347 869 b 412 860 383 869 397 866 b 456 838 426 853 441 846 b 503 816 471 830 487 823 b 551 806 519 809 535 806 b 606 818 572 806 590 810 b 649 851 622 826 637 837 b 682 897 662 864 673 879 b 706 950 691 914 699 931 l 646 950 b 616 902 638 932 628 916 b 565 881 603 888 587 881 b 523 891 551 881 537 884 b 478 913 509 898 494 905 b 431 935 462 921 446 928 b 382 944 415 941 399 944 b 326 932 361 944 342 940 b 284 899 311 924 297 913 b 252 853 272 886 261 870 b 229 800 243 835 236 818 z "},"Ū":{"ha":986,"x_min":0,"x_max":0,"o":"m 432 -25 b 617 13 505 -25 567 -12 b 740 110 667 39 708 71 b 813 237 772 149 796 191 b 850 367 830 283 843 326 l 958 983 l 860 983 l 753 378 b 720 258 745 336 734 296 b 662 156 706 219 686 185 b 570 87 637 127 607 104 b 438 61 534 70 489 61 b 328 80 394 61 358 67 b 258 131 299 92 276 109 b 219 204 240 152 227 176 b 207 293 211 232 207 262 b 215 378 207 320 210 348 l 322 983 l 224 983 l 115 367 b 107 274 110 337 107 306 b 124 166 107 238 113 202 b 181 70 136 130 155 98 b 281 1 206 42 240 19 b 432 -25 322 -16 373 -25 z m 800 1111 l 813 1186 l 438 1186 l 425 1111 z "},"ū":{"ha":801,"x_min":0,"x_max":0,"o":"m 506 0 l 596 0 b 605 75 598 22 601 47 b 617 143 609 103 613 125 l 706 650 l 613 650 l 554 317 b 518 203 547 273 535 235 b 460 124 501 172 482 145 b 390 78 439 103 415 88 b 315 63 365 68 340 63 b 203 101 262 62 224 75 b 171 208 181 127 171 163 b 179 290 171 233 174 261 l 243 650 l 150 650 l 79 251 b 74 215 77 238 76 226 b 72 182 73 204 72 193 b 131 37 72 121 92 72 b 296 -17 171 1 225 -17 b 422 17 340 -17 382 -5 b 518 111 461 40 493 71 l 521 111 b 513 58 518 97 515 80 b 506 0 510 37 507 18 z m 646 833 l 658 908 l 283 908 l 271 833 z "},"Ŭ":{"ha":986,"x_min":0,"x_max":0,"o":"m 432 -25 b 617 13 505 -25 567 -12 b 740 110 667 39 708 71 b 813 237 772 149 796 191 b 850 367 830 283 843 326 l 958 983 l 860 983 l 753 378 b 720 258 745 336 734 296 b 662 156 706 219 686 185 b 570 87 637 127 607 104 b 438 61 534 70 489 61 b 328 80 394 61 358 67 b 258 131 299 92 276 109 b 219 204 240 152 227 176 b 207 293 211 232 207 262 b 215 378 207 320 210 348 l 322 983 l 224 983 l 115 367 b 107 274 110 337 107 306 b 124 166 107 238 113 202 b 181 70 136 130 155 98 b 281 1 206 42 240 19 b 432 -25 322 -16 373 -25 z m 828 1261 l 767 1261 b 708 1180 759 1225 740 1198 b 604 1153 677 1162 642 1153 b 516 1176 569 1153 540 1161 b 481 1261 492 1192 481 1220 l 419 1261 b 468 1124 419 1200 436 1154 b 603 1078 500 1093 545 1078 b 683 1091 631 1078 657 1082 b 751 1128 708 1100 731 1112 b 801 1187 771 1145 787 1164 b 828 1261 814 1209 823 1234 z "},"ŭ":{"ha":801,"x_min":0,"x_max":0,"o":"m 506 0 l 596 0 b 605 75 598 22 601 47 b 617 143 609 103 613 125 l 706 650 l 613 650 l 554 317 b 518 203 547 273 535 235 b 460 124 501 172 482 145 b 390 78 439 103 415 88 b 315 63 365 68 340 63 b 203 101 262 62 224 75 b 171 208 181 127 171 163 b 179 290 171 233 174 261 l 243 650 l 150 650 l 79 251 b 74 215 77 238 76 226 b 72 182 73 204 72 193 b 131 37 72 121 92 72 b 296 -17 171 1 225 -17 b 422 17 340 -17 382 -5 b 518 111 461 40 493 71 l 521 111 b 513 58 518 97 515 80 b 506 0 510 37 507 18 z m 672 983 l 611 983 b 553 902 604 947 584 920 b 449 875 521 884 487 875 b 360 899 413 875 384 883 b 325 983 337 914 325 943 l 264 983 b 313 846 264 922 280 876 b 447 800 345 815 390 800 b 527 813 475 800 502 804 b 595 851 553 822 575 834 b 645 909 615 867 632 886 b 672 983 659 932 668 956 z "},"Ů":{"ha":986,"x_min":0,"x_max":0,"o":"m 432 -25 b 617 13 505 -25 567 -12 b 740 110 667 39 708 71 b 813 237 772 149 796 191 b 850 367 830 283 843 326 l 958 983 l 860 983 l 753 378 b 720 258 745 336 734 296 b 662 156 706 219 686 185 b 570 87 637 127 607 104 b 438 61 534 70 489 61 b 328 80 394 61 358 67 b 258 131 299 92 276 109 b 219 204 240 152 227 176 b 207 293 211 232 207 262 b 215 378 207 320 210 348 l 322 983 l 224 983 l 115 367 b 107 274 110 337 107 306 b 124 166 107 238 113 202 b 181 70 136 130 155 98 b 281 1 206 42 240 19 b 432 -25 322 -16 373 -25 z m 604 1047 b 713 1093 649 1047 685 1063 b 754 1204 740 1124 754 1161 b 722 1283 754 1237 743 1263 b 636 1314 700 1304 671 1314 b 576 1301 614 1314 594 1310 b 528 1267 558 1293 542 1282 b 497 1217 515 1253 505 1236 b 486 1157 490 1198 486 1178 b 519 1078 486 1125 497 1098 b 604 1047 541 1057 569 1047 z m 707 1201 b 679 1122 707 1171 698 1144 b 607 1089 661 1100 637 1089 b 554 1109 585 1089 567 1096 b 535 1161 541 1122 535 1140 b 563 1240 535 1192 544 1218 b 633 1274 581 1263 605 1274 b 688 1253 656 1274 675 1267 b 707 1201 700 1239 707 1222 z "},"ů":{"ha":801,"x_min":0,"x_max":0,"o":"m 506 0 l 596 0 b 605 75 598 22 601 47 b 617 143 609 103 613 125 l 706 650 l 613 650 l 554 317 b 518 203 547 273 535 235 b 460 124 501 172 482 145 b 390 78 439 103 415 88 b 315 63 365 68 340 63 b 203 101 262 62 224 75 b 171 208 181 127 171 163 b 179 290 171 233 174 261 l 243 650 l 150 650 l 79 251 b 74 215 77 238 76 226 b 72 182 73 204 72 193 b 131 37 72 121 92 72 b 296 -17 171 1 225 -17 b 422 17 340 -17 382 -5 b 518 111 461 40 493 71 l 521 111 b 513 58 518 97 515 80 b 506 0 510 37 507 18 z m 454 769 b 563 815 499 769 535 785 b 604 926 590 846 604 883 b 572 1006 604 959 593 985 b 486 1036 550 1026 521 1036 b 426 1024 464 1036 444 1032 b 378 990 408 1015 392 1004 b 347 940 365 975 355 959 b 336 879 340 921 336 900 b 369 800 336 847 347 820 b 454 769 391 780 419 769 z m 557 924 b 529 844 557 893 548 867 b 457 811 511 822 487 811 b 404 831 435 811 417 818 b 385 883 391 845 385 862 b 413 963 385 914 394 940 b 483 996 431 985 455 996 b 538 975 506 996 525 989 b 557 924 550 961 557 944 z "},"Ű":{"ha":986,"x_min":0,"x_max":0,"o":"m 432 -25 b 617 13 505 -25 567 -12 b 740 110 667 39 708 71 b 813 237 772 149 796 191 b 850 367 830 283 843 326 l 958 983 l 860 983 l 753 378 b 720 258 745 336 734 296 b 662 156 706 219 686 185 b 570 87 637 127 607 104 b 438 61 534 70 489 61 b 328 80 394 61 358 67 b 258 131 299 92 276 109 b 219 204 240 152 227 176 b 207 293 211 232 207 262 b 215 378 207 320 210 348 l 322 983 l 224 983 l 115 367 b 107 274 110 337 107 306 b 124 166 107 238 113 202 b 181 70 136 130 155 98 b 281 1 206 42 240 19 b 432 -25 322 -16 373 -25 z m 511 1061 l 732 1261 l 606 1261 l 429 1061 z m 749 1061 l 968 1261 l 842 1261 l 667 1061 z "},"ű":{"ha":801,"x_min":0,"x_max":0,"o":"m 506 0 l 596 0 b 605 75 598 22 601 47 b 617 143 609 103 613 125 l 706 650 l 613 650 l 554 317 b 518 203 547 273 535 235 b 460 124 501 172 482 145 b 390 78 439 103 415 88 b 315 63 365 68 340 63 b 203 101 262 62 224 75 b 171 208 181 127 171 163 b 179 290 171 233 174 261 l 243 650 l 150 650 l 79 251 b 74 215 77 238 76 226 b 72 182 73 204 72 193 b 131 37 72 121 92 72 b 296 -17 171 1 225 -17 b 422 17 340 -17 382 -5 b 518 111 461 40 493 71 l 521 111 b 513 58 518 97 515 80 b 506 0 510 37 507 18 z m 358 783 l 579 983 l 453 983 l 276 783 z m 596 783 l 815 983 l 689 983 l 514 783 z "},"Ų":{"ha":986,"x_min":0,"x_max":0,"o":"m 432 -25 l 432 -25 l 440 -25 b 397 -62 425 -36 411 -49 b 358 -108 382 -76 369 -91 b 329 -158 346 -124 337 -141 b 318 -214 322 -176 318 -194 b 352 -286 318 -246 329 -270 b 428 -310 375 -302 400 -310 b 494 -297 449 -310 471 -305 b 556 -260 516 -288 537 -275 l 539 -204 b 503 -227 529 -214 517 -222 b 463 -235 489 -232 475 -235 b 422 -225 448 -235 434 -231 b 403 -186 409 -219 403 -206 b 435 -106 403 -161 414 -134 b 521 -17 457 -78 486 -48 b 663 40 576 -6 624 12 b 759 135 701 67 734 99 b 819 251 784 172 804 211 b 850 367 833 292 844 331 l 958 983 l 860 983 l 753 378 b 720 258 745 336 734 296 b 662 156 706 219 686 185 b 570 87 637 127 607 104 b 438 61 534 70 489 61 b 328 80 394 61 358 67 b 258 131 299 92 276 109 b 219 204 240 152 227 176 b 207 293 211 232 207 262 b 215 378 207 320 210 348 l 322 983 l 224 983 l 115 367 b 107 274 110 337 107 306 b 124 166 107 238 113 202 b 181 70 136 130 155 98 b 281 1 206 42 240 19 b 432 -25 322 -16 373 -25 z "},"ų":{"ha":801,"x_min":0,"x_max":0,"o":"m 585 -260 l 568 -204 b 532 -227 558 -214 546 -222 b 492 -235 518 -232 505 -235 b 451 -225 477 -235 463 -231 b 432 -186 438 -219 432 -206 b 471 -99 432 -159 445 -130 b 571 0 497 -67 530 -34 l 596 0 b 605 75 598 22 601 47 b 617 143 609 103 613 125 l 706 650 l 613 650 l 554 317 b 518 203 547 273 535 235 b 460 124 501 172 482 145 b 390 78 439 103 415 88 b 315 63 365 68 340 63 b 203 101 262 62 224 75 b 171 208 181 127 171 163 b 179 290 171 233 174 261 l 243 650 l 150 650 l 79 251 b 74 215 77 238 76 226 b 72 182 73 204 72 193 b 131 37 72 121 92 72 b 296 -17 171 1 225 -17 b 422 17 340 -17 382 -5 b 518 111 461 40 493 71 l 521 111 b 513 58 518 97 515 80 b 506 0 510 37 507 18 l 504 0 b 452 -40 488 -11 470 -24 b 401 -90 434 -55 417 -72 b 363 -148 386 -108 373 -127 b 347 -214 352 -169 347 -191 b 381 -286 347 -246 359 -270 b 457 -310 404 -302 429 -310 b 523 -297 478 -310 500 -305 b 585 -260 546 -288 566 -275 z "},"Ŵ":{"ha":1333,"x_min":0,"x_max":0,"o":"m 303 138 l 224 983 l 118 983 l 219 0 l 336 0 l 751 847 l 754 847 l 833 0 l 950 0 l 1429 983 l 1324 983 l 919 138 l 917 138 l 835 983 l 715 983 l 306 138 z m 994 1061 l 879 1261 l 768 1261 l 581 1061 l 676 1061 l 818 1211 l 907 1061 z "},"ŵ":{"ha":1018,"x_min":0,"x_max":0,"o":"m 169 650 l 72 650 l 143 0 l 242 0 l 513 526 l 515 526 l 589 0 l 689 0 l 1021 650 l 921 650 l 661 122 l 657 122 l 581 650 l 492 650 l 217 122 l 214 122 z m 763 783 l 647 983 l 536 983 l 349 783 l 444 783 l 586 933 l 675 783 z "},"Ŷ":{"ha":774,"x_min":0,"x_max":0,"o":"m 343 0 l 418 424 l 899 983 l 775 983 l 382 506 l 186 983 l 69 983 l 319 424 l 244 0 z m 694 1061 l 579 1261 l 468 1261 l 281 1061 l 376 1061 l 518 1211 l 607 1061 z "},"ŷ":{"ha":671,"x_min":0,"x_max":0,"o":"m 263 103 l 158 650 l 61 650 l 197 1 l 117 -135 b 52 -220 95 -172 74 -200 b -25 -250 30 -240 5 -250 b -86 -239 -45 -250 -66 -246 l -100 -325 b -21 -333 -74 -331 -48 -333 b 100 -288 27 -333 68 -318 b 194 -168 132 -258 164 -218 l 686 650 l 582 650 l 265 103 z m 597 783 l 482 983 l 371 983 l 183 783 l 279 783 l 421 933 l 510 783 z "},"Ź":{"ha":794,"x_min":0,"x_max":0,"o":"m 829 900 l 844 983 l 164 983 l 149 896 l 701 896 l -19 83 l -35 0 l 676 0 l 692 88 l 110 88 z m 510 1061 l 729 1261 l 607 1261 l 432 1061 z "},"ź":{"ha":614,"x_min":0,"x_max":0,"o":"m 585 583 l 597 650 l 103 650 l 88 571 l 456 571 l -21 67 l -32 0 l 496 0 l 510 82 l 107 82 z m 365 783 l 585 983 l 463 983 l 288 783 z "},"Ż":{"ha":794,"x_min":0,"x_max":0,"o":"m 829 900 l 844 983 l 164 983 l 149 896 l 701 896 l -19 83 l -35 0 l 676 0 l 692 88 l 110 88 z m 596 1179 b 578 1226 596 1199 590 1214 b 533 1243 566 1237 551 1243 b 487 1224 516 1243 500 1237 b 467 1175 473 1211 467 1194 b 485 1129 467 1156 473 1140 b 531 1113 498 1118 513 1113 b 577 1132 549 1113 565 1119 b 596 1179 590 1145 596 1161 z "},"ż":{"ha":614,"x_min":0,"x_max":0,"o":"m 585 583 l 597 650 l 103 650 l 88 571 l 456 571 l -21 67 l -32 0 l 496 0 l 510 82 l 107 82 z m 450 901 b 432 948 450 921 444 936 b 388 965 420 959 405 965 b 341 946 370 965 354 959 b 321 897 328 933 321 917 b 340 851 321 878 327 863 b 385 835 352 840 367 835 b 431 854 403 835 419 841 b 450 901 444 867 450 883 z "},"ƒ":{"ha":806,"x_min":0,"x_max":0,"o":"m 601 507 l 615 582 l 465 582 l 526 756 b 545 806 531 770 537 787 b 576 858 553 824 563 842 b 619 900 588 875 603 889 b 679 917 636 911 656 917 b 719 910 693 917 706 915 b 754 893 732 906 744 900 l 814 960 b 689 1000 779 987 737 1000 b 597 982 654 1000 623 994 b 527 933 570 970 547 954 b 476 864 507 913 490 890 b 439 782 461 838 449 811 l 367 582 l 201 582 l 188 507 l 338 507 l 168 38 b 147 -15 162 20 154 2 b 118 -62 139 -33 129 -49 b 78 -97 107 -76 94 -88 b 22 -110 62 -105 44 -110 b -14 -106 10 -110 -2 -108 b -47 -93 -26 -103 -37 -99 l -103 -160 b -54 -185 -89 -172 -73 -180 b 4 -193 -36 -191 -16 -193 b 101 -174 41 -193 74 -187 b 173 -125 129 -162 153 -145 b 223 -57 193 -105 209 -82 b 257 18 236 -32 248 -7 l 436 507 z "},"Ș":{"ha":783,"x_min":0,"x_max":0,"o":"m 682 831 l 767 892 b 665 976 745 926 711 954 b 494 1008 618 997 561 1008 b 346 985 439 1008 389 1001 b 236 923 302 970 266 949 b 168 829 206 897 184 865 b 144 713 152 793 144 754 b 163 620 144 677 151 647 b 213 551 176 594 192 571 b 283 501 233 532 256 515 b 365 465 310 488 338 475 b 444 433 393 455 419 444 b 509 394 468 422 490 409 b 554 342 528 380 543 362 b 571 269 565 321 571 297 b 551 183 571 238 564 209 b 498 117 538 157 521 135 b 419 76 475 99 449 85 b 324 61 389 66 357 61 b 190 95 272 61 227 72 b 107 178 153 118 125 145 l 18 121 b 146 12 48 73 90 36 b 319 -25 201 -13 259 -25 b 488 5 386 -25 442 -15 b 597 81 533 25 569 50 b 657 183 625 112 645 146 b 675 288 669 219 675 254 b 653 384 675 325 668 357 b 594 456 638 411 619 435 b 514 507 570 476 544 493 b 426 544 484 521 455 533 b 356 574 401 554 378 563 b 299 610 334 584 316 596 b 261 658 283 624 270 640 b 247 725 252 677 247 699 b 269 813 247 759 254 789 b 325 874 283 838 302 858 b 403 910 348 891 374 903 b 489 922 431 918 460 922 b 606 896 533 922 572 913 b 682 831 639 878 664 856 z m 242 -319 l 401 -62 l 303 -62 l 163 -319 z "}}}
